<svg id="Layer_1" data-name="Layer 1" xmlns="http://www.w3.org/2000/svg" viewBox="0 0 256 256"><defs><style>.cls-1{fill:#318fff;}</style></defs><g id="Icons"><path id="Combined-Shape-Copy" class="cls-1" d="M128,2.81A125.19,125.19,0,1,1,2.81,128,124.88,124.88,0,0,1,128,2.81Zm0,20.87C70.62,23.68,23.68,70.62,23.68,128S70.62,232.32,128,232.32,232.32,185.38,232.32,128,185.38,23.68,128,23.68Zm10.43,137.18v19.3H118.61v-19.3ZM127,81.58c9.91,0,18.25,2.6,25,7.3s9.92,12,9.92,21.38a26.68,26.68,0,0,1-4.18,14.61c-1.56,2.61-4.69,5.22-9.91,9.39l-4.69,3.65a15.89,15.89,0,0,0-5.22,6.78,25.51,25.51,0,0,0-1,7.83H119.13c.52-7.31,1.05-12.52,2.09-15.65s4.17-6.26,8.87-9.91l4.69-3.66a11.86,11.86,0,0,0,3.65-3.65,15.43,15.43,0,0,0,2.61-7.82,16.8,16.8,0,0,0-3.13-9.39c-2.09-3.13-5.74-4.17-11-4.17s-8.87,1.56-11,5.21a20.19,20.19,0,0,0-3.13,10.44H93.57c.52-12.52,4.7-21.39,13-26.61C112.87,83.14,119.65,81.58,127,81.58Z"/></g></svg>