<svg id="Layer_1" data-name="Layer 1" xmlns="http://www.w3.org/2000/svg" viewBox="0 0 256 256"><defs><style>.cls-1{fill:#318fff;}</style></defs><g id="Icons"><path id="Combined-Shape-Copy" class="cls-1" d="M128,2.2A125.8,125.8,0,1,1,2.2,128,125.5,125.5,0,0,1,128,2.2Zm0,21C70.34,23.17,23.17,70.34,23.17,128S70.34,232.83,128,232.83,232.83,185.66,232.83,128,185.66,23.17,128,23.17Z"/></g><path class="cls-1" d="M172.75,175.89a10.48,10.48,0,0,1-5.58-1.61l-44.76-28.19a10.47,10.47,0,0,1-4.89-8.87V78a10.48,10.48,0,1,1,21,0v53.41l39.86,25.1a10.49,10.49,0,0,1-5.59,19.36Z"/></svg>