<svg xmlns="http://www.w3.org/2000/svg" viewBox="0 0 65.45 46.58"><defs><style>.cls-1{fill:#fff;}</style></defs><g id="Layer_2" data-name="Layer 2"><g id="Layer_1-2" data-name="Layer 1"><path class="cls-1" d="M65.16,11.37C64.7,4,62,1.53,56,1A271,271,0,0,0,9.26,1C3.93,1.48,1,3.94.67,9.27A207.25,207.25,0,0,0,.23,34.92c.45,7.9,3,10,10.82,10.61,7.18.57,14.4.71,21.93,1,7.28-.35,14.88-.6,22.46-1.13,6.12-.43,8.92-2.63,9.38-8.72A186.68,186.68,0,0,0,65.16,11.37ZM25.91,33.29v-20l17.59,9.9Z"/></g></g></svg>