<svg xmlns="http://www.w3.org/2000/svg" viewBox="0 0 72.6 95.4"><defs><style>.cls-1{fill:#fff;}</style></defs><g id="Layer_2" data-name="Layer 2"><g id="Layer_1-2" data-name="Layer 1"><path class="cls-1" d="M39.3,55.4c-.1,0-.3.1-.4.1-.9.2-1.8.5-2.6.7l-1.1.3c-2.3.6-4.6,1.2-6.9,1.9.9-2.1,1.7-4.2,2.5-6.3.6-1.5,1.2-3.1,1.8-4.6.3.5.6,1,1,1.6A30.41,30.41,0,0,0,39.3,55.4ZM33.5,31.7a5.45,5.45,0,0,0-.7-2.6,5.8,5.8,0,0,0-.8,1.2c-1.3,2.6-.8,5.9.2,8.8A16.79,16.79,0,0,0,33.5,31.7ZM14.4,71.2a.76.76,0,0,0,.1.4.65.65,0,0,0,.5.2c1.2,0,3.5-2.3,5-4.5a20.12,20.12,0,0,0,1.7-2.9A22.86,22.86,0,0,0,17,67.6C15.4,69,14.4,70.4,14.4,71.2ZM47.7,56.8a23.94,23.94,0,0,0,5.6,1.7,10.54,10.54,0,0,0,4.4-.1,9.93,9.93,0,0,0-2-1.1A15.7,15.7,0,0,0,47.7,56.8ZM72.6,24.36V85.9a9.53,9.53,0,0,1-9.5,9.5H9.5A9.53,9.53,0,0,1,0,85.9V9.5A9.52,9.52,0,0,1,9.5,0H47.69a3.46,3.46,0,0,1,2.42,1l21.45,20.9A3.5,3.5,0,0,1,72.6,24.36ZM61.6,58.5c-.2-2.6-4.6-4.3-4.7-4.3a17,17,0,0,0-5.7-.9,31.58,31.58,0,0,0-7.9,1.1,28.12,28.12,0,0,1-7-7.2,33.54,33.54,0,0,1-2.1-3.6c1.5-3.6,2.9-7.6,2.6-12-.2-3.5-1.8-5.9-3.9-5.9-1.5,0-2.8,1.1-3.8,3.3-1.9,3.9-1.4,8.8,1.4,14.7-1,2.4-2,4.8-2.9,7.2-1.1,3-2.3,6-3.6,8.9a31.48,31.48,0,0,0-9.2,5.4c-1.7,1.4-3.6,3.6-3.8,5.9a3.36,3.36,0,0,0,1.1,2.8A4.11,4.11,0,0,0,15,75.2c3.6,0,7.1-5,7.7-5.9a53.19,53.19,0,0,0,3.8-6.8c3.1-1.1,6.3-1.9,9.5-2.7l1.1-.3c.9-.2,1.7-.5,2.6-.7s1.9-.5,3-.8a25.25,25.25,0,0,0,10.1,3.9c2.9.4,5.4.2,7.1-.7A3.08,3.08,0,0,0,61.6,58.5Zm-13-51.83A1,1,0,0,0,47,7.35V18.7a6.42,6.42,0,0,0,6.4,6.4H65a1,1,0,0,0,.71-1.73Z"/></g></g></svg>