<svg xmlns="http://www.w3.org/2000/svg" viewBox="0 0 16 19"><defs><style>.cls-1{fill:#fff;fill-rule:evenodd;}</style></defs><g id="Layer_2" data-name="Layer 2"><g id="Layer_1-2" data-name="Layer 1"><g id="Icons"><g id="Current-Icon-Guide"><path id="Combined-Shape-Copy" class="cls-1" d="M9.78,0a3.59,3.59,0,0,1,3.55,3.62V6.33H14a2,2,0,0,1,2,1.9V17.1A2,2,0,0,1,14,19H2a2,2,0,0,1-2-1.9V8.23a2,2,0,0,1,2-1.9h.67V3.62A3.59,3.59,0,0,1,6.22,0ZM14,8.14H2c-.15,0-.22.07-.22.09V17.1s.07.09.22.09H14c.15,0,.22-.07.22-.09V8.23S14.15,8.14,14,8.14ZM8,9.9a.9.9,0,0,1,.89.91v3.72a.91.91,0,0,1-.78.9H8a.89.89,0,0,1-.89-.9V10.81a.89.89,0,0,1,.78-.9ZM9.78,1.81H6.22A1.8,1.8,0,0,0,4.44,3.62V6.33h7.12V3.62A1.8,1.8,0,0,0,9.78,1.81Z"/></g></g></g></g></svg>