<svg xmlns="http://www.w3.org/2000/svg" viewBox="0 0 100 95.18"><defs><style>.cls-1{fill:#fff;}</style></defs><g id="Layer_2" data-name="Layer 2"><g id="Layer_1-2" data-name="Layer 1"><path class="cls-1" d="M50,0A50,50,0,0,0,5.49,72.81,17.47,17.47,0,0,1,22.83,56.4h.11a17.54,17.54,0,0,1,5.08.78,28,28,0,0,0-4,14.43V89.76a10.17,10.17,0,0,0,.56,3.33c1.28.75,2.6,1.46,3.95,2.09V71.61a21.43,21.43,0,0,1,42.86,0V95.18c1.35-.63,2.67-1.34,3.95-2.09a10.17,10.17,0,0,0,.56-3.33V71.61A27.87,27.87,0,0,0,72,57.3a17.29,17.29,0,0,1,5.08-.9A17.47,17.47,0,0,1,94.51,72.81,50,50,0,0,0,50,0ZM30.28,49.93a8.76,8.76,0,1,1,2.57-6.2A8.72,8.72,0,0,1,30.28,49.93ZM50,46.13A11.17,11.17,0,1,1,61.17,35,11.17,11.17,0,0,1,50,46.13ZM75.92,52.5a8.77,8.77,0,1,1,8.76-8.77A8.76,8.76,0,0,1,75.92,52.5Z"/></g></g></svg>