<svg xmlns="http://www.w3.org/2000/svg" viewBox="0 0 16 19"><defs><style>.cls-1{fill:#fff;fill-rule:evenodd;}</style></defs><g id="Layer_2" data-name="Layer 2"><g id="Layer_1-2" data-name="Layer 1"><path class="cls-1" d="M14,6.3h-.7V3.6A3.56,3.56,0,0,0,9.8,0H6.2A3.65,3.65,0,0,0,3.3,1.5.89.89,0,0,0,4,2.9H4a.67.67,0,0,0,.7-.4,1.51,1.51,0,0,1,1.4-.7H9.7a1.79,1.79,0,0,1,1.8,1.8V6.3H2A2,2,0,0,0,0,8.2v8.9A1.92,1.92,0,0,0,2,19H14a1.92,1.92,0,0,0,2-1.9V8.2A2,2,0,0,0,14,6.3Zm.2,10.8a.35.35,0,0,1-.2.1H2c-.2,0-.2-.1-.2-.1V8.2A.35.35,0,0,1,2,8.1H14c.2,0,.2.1.2.1Z"/><path class="cls-1" d="M8,9.9a.9.9,0,0,1,.9.9v3.7a.88.88,0,0,1-.8.9H8a.9.9,0,0,1-.9-.9V10.8a.88.88,0,0,1,.8-.9Z"/></g></g></svg>