<svg xmlns="http://www.w3.org/2000/svg" viewBox="0 0 24 24"><defs><style>.cls-1{fill:#fff;}</style></defs><g id="Layer_2" data-name="Layer 2"><g id="Layer_1-2" data-name="Layer 1"><g id="Icons"><g id="Current-Icon-Guide"><path id="Combined-Shape" class="cls-1" d="M12,0A12,12,0,1,1,0,12,12,12,0,0,1,12,0Zm0,2A10,10,0,1,0,22,12,10,10,0,0,0,12,2Zm1,13.17V17H11.13V15.17ZM11.91,7.55a4,4,0,0,1,2.39.68,2.37,2.37,0,0,1,.95,2,2.27,2.27,0,0,1-.42,1.39,5,5,0,0,1-.92.87l-.45.35a1.32,1.32,0,0,0-.49.67,2.69,2.69,0,0,0-.08.75H11.17a5.25,5.25,0,0,1,.2-1.49,2.69,2.69,0,0,1,.86-.94l.46-.36a1.66,1.66,0,0,0,.37-.38,1.24,1.24,0,0,0,.25-.76A1.46,1.46,0,0,0,13,9.49a1.17,1.17,0,0,0-1-.4A1.15,1.15,0,0,0,11,9.58a1.93,1.93,0,0,0-.31,1H8.81A3,3,0,0,1,10.07,8,3.36,3.36,0,0,1,11.91,7.55Z"/></g></g></g></g></svg>