<svg xmlns="http://www.w3.org/2000/svg" viewBox="0 0 72.6 95.4"><defs><style>.cls-1{fill:#fff;}</style></defs><g id="Layer_2" data-name="Layer 2"><g id="Layer_1-2" data-name="Layer 1"><path class="cls-1" d="M71.56,21.88,50.11,1A3.46,3.46,0,0,0,47.7,0H9.5A9.53,9.53,0,0,0,0,9.5V85.9a9.53,9.53,0,0,0,9.5,9.5H63.1a9.53,9.53,0,0,0,9.5-9.5V24.36A3.46,3.46,0,0,0,71.56,21.88ZM59.43,53.43a4.42,4.42,0,0,1-6.36,0v0a4.72,4.72,0,0,1-.89-1.16l-4.36,0q4.82,4.26,5.67,9.32h2a.68.68,0,0,1,.66.66v8.41a.55.55,0,0,1-.21.44.57.57,0,0,1-.45.21H47.08a.64.64,0,0,1-.47-.21.59.59,0,0,1-.18-.44V62.28a.67.67,0,0,1,.18-.47.7.7,0,0,1,.47-.19H48.9q-3.84-6.85-7.75-8.22v1.05a.73.73,0,0,1-.66.66H32.14a.66.66,0,0,1-.48-.21.61.61,0,0,1-.18-.45V53.4q-3.9,1.38-7.78,8.22h1.84a.68.68,0,0,1,.66.66v8.41a.55.55,0,0,1-.21.44.57.57,0,0,1-.45.21H17.16a.62.62,0,0,1-.47-.21.59.59,0,0,1-.18-.44V62.28a.67.67,0,0,1,.18-.47.68.68,0,0,1,.47-.19h1.92a16.52,16.52,0,0,1,5.67-9.32l-4.33,0a4.09,4.09,0,0,1-.89,1.16l0,0a4.18,4.18,0,0,1-3.15,1.34,4.35,4.35,0,0,1-3.18-1.36,4.22,4.22,0,0,1-1.29-3.1,4.39,4.39,0,0,1,4.47-4.52,4.28,4.28,0,0,1,3.15,1.28l0,0a5,5,0,0,1,.73,1H31.48V46a.69.69,0,0,1,.18-.47.72.72,0,0,1,.48-.18h8.35a.61.61,0,0,1,.45.18.64.64,0,0,1,.21.47v2.05H52.31a6.23,6.23,0,0,1,.76-1v0a4.55,4.55,0,0,1,6.33,0h0a4.56,4.56,0,0,1,1.29,3.24,4.17,4.17,0,0,1-1.32,3.1ZM65,25.1H53.4A6.42,6.42,0,0,1,47,18.7V7.35a1,1,0,0,1,1.62-.68l17.11,16.7A1,1,0,0,1,65,25.1Z"/></g></g></svg>