<svg xmlns="http://www.w3.org/2000/svg" viewBox="0 0 72.6 95.4"><defs><style>.cls-1{fill:#fff;}</style></defs><g id="Layer_2" data-name="Layer 2"><g id="Layer_1-2" data-name="Layer 1"><path class="cls-1" d="M71.56,21.88,50.11,1A3.46,3.46,0,0,0,47.7,0H22V5.87h5.87v5.87H22v5.87h5.87v5.87H22v5.86h5.87v5.87H22v5.87h5.87V47H22v5.87h5.87v5.87H22V52.82H16.15V47H22V41.08H16.15V35.21H22V29.34H16.15V23.48H22V17.61H16.15V11.74H22V5.87H16.15V0H9.5A9.53,9.53,0,0,0,0,9.5V85.9a9.53,9.53,0,0,0,9.5,9.5H63.1a9.53,9.53,0,0,0,9.5-9.5V24.36A3.46,3.46,0,0,0,71.56,21.88ZM22.36,76a4.82,4.82,0,0,1-3.51,1.54,5.12,5.12,0,0,1-5-5.27l1.81-13.67h6.23l1.87,13.67A5.42,5.42,0,0,1,22.36,76ZM65,25.1H53.4A6.42,6.42,0,0,1,47,18.7V7.35a1,1,0,0,1,1.62-.68l17.11,16.7A1,1,0,0,1,65,25.1Z"/><path class="cls-1" d="M17.23,64.71l-.94,7.07a2.56,2.56,0,1,0,5.12,0l-1-7.07Z"/></g></g></svg>