<svg id="Layer_1" data-name="Layer 1" xmlns="http://www.w3.org/2000/svg" viewBox="0 0 256 256"><defs><style>.cls-1{fill:#318fff;}</style></defs><g id="Icons"><path id="Combined-Shape-Copy" class="cls-1" d="M128,1.06A126.94,126.94,0,1,0,254.94,128,126.63,126.63,0,0,0,128,1.06Zm55.64,176.45-6.08,6a7,7,0,0,1-10,0L128,144,88.49,183.59a7.15,7.15,0,0,1-10,0l-6.08-6.08a7.15,7.15,0,0,1,0-10L111.92,128,72.52,88.54a7.15,7.15,0,0,1,0-10.05l6.08-6.08a7.15,7.15,0,0,1,10.05,0L128,111.81l39.41-39.35a7.05,7.05,0,0,1,10,0l6,6a7,7,0,0,1,0,10.05L144.13,128l39.51,39.51A7,7,0,0,1,183.64,177.51Z"/></g></svg>