<svg id="Layer_1" data-name="Layer 1" xmlns="http://www.w3.org/2000/svg" viewBox="0 0 256 256"><defs><style>.cls-1{fill:#318fff;}</style></defs><path class="cls-1" d="M97.5,1.06a52,52,0,1,0,52.08,52.07A52.06,52.06,0,0,0,97.5,1.06Z"/><path class="cls-1" d="M184.16,132.94a61.29,61.29,0,0,0-30.85,8.3A86.63,86.63,0,0,0,10.84,207.5v33.75a13.68,13.68,0,0,0,13.7,13.69H184.16a61,61,0,1,0,0-122Zm0,111.84h-.49a50.78,50.78,0,0,1-22.54-96.07,49.76,49.76,0,0,1,23-5.6,50.84,50.84,0,0,1,0,101.67Z"/><polygon class="cls-1" points="216.73 187.47 216.73 200.39 190.61 200.39 190.61 226.51 177.69 226.51 177.69 200.39 151.66 200.39 151.66 187.47 177.69 187.47 177.69 161.44 190.61 161.44 190.61 187.47 216.73 187.47"/></svg>