<svg id="Layer_1" data-name="Layer 1" xmlns="http://www.w3.org/2000/svg" viewBox="0 0 256 256"><defs><style>.cls-1{fill:#318fff;fill-rule:evenodd;}</style></defs><g id="Branding"><g id="Icons"><path id="Fill-1" class="cls-1" d="M74,129.91c.37,11.49.16,24.32-9.21,29.28-12.55,6.57-25.11,13.14-37.44,19.87C17.06,184.4,10,184,4.83,173c-8.62-17.65-5.84-46.21,9.39-58.62a178.85,178.85,0,0,1,227.52,0c15.05,12.39,18,41.15,9.66,58.74-5.23,11-12.51,11.51-22.67,6.09-12.42-6.66-25.07-13.49-37.49-20.15-9.45-4.92-9.64-17.68-9.38-29.07,0-28.07-107.83-28.07-107.83,0"/></g></g></svg>