<svg width="16" height="13" viewBox="0 0 16 13" fill="none" xmlns="http://www.w3.org/2000/svg">
    <path fill-rule="evenodd" clip-rule="evenodd" d="M4.607 8.396c.116 0 .22.076.257.184l.48 1.44h4.484l.48-1.44a.274.274 0 0 1 .257-.184H12.461V3.25H9.482a.272.272 0 0 1-.271-.27V0H2.98a.272.272 0 0 0-.27.27v8.125H4.607zm5.958-1.625H4.607a.272.272 0 0 1-.271-.27c0-.15.122-.271.27-.271h5.96c.148 0 .27.122.27.27 0 .15-.122.271-.27.271zm.27-2.167a.272.272 0 0 0-.27-.271H4.607a.272.272 0 0 0-.271.27c0 .15.122.271.27.271h5.96c.148 0 .27-.121.27-.27zm3.79 4.333h-3.867l-.48 1.441a.274.274 0 0 1-.257.184H5.146a.274.274 0 0 1-.257-.184l-.48-1.44H0v3.791c0 .15.122.271.27.271h14.626c.149 0 .27-.122.27-.27V8.936h-.541zM9.75.158l2.551 2.55H9.75V.158zm5.265 8.238L13 6.18v2.215h2.015zM2.167 6.985v1.41H.152L2.167 6.18v.804z" fill="#318FFF"/>
</svg>
