<svg width="20" height="20" viewBox="0 0 20 20" fill="none" xmlns="http://www.w3.org/2000/svg">
    <path fill-rule="evenodd" clip-rule="evenodd" d="M16.663 2.222h1.116c1.224 0 2.216.994 2.216 2.216v13.346A2.215 2.215 0 0 1 17.78 20H2.216A2.217 2.217 0 0 1 0 17.784V4.438c0-1.224.992-2.216 2.216-2.216h1.117V.545c0-.301.257-.545.555-.545.307 0 .555.239.555.545v1.677h11.11V.545c0-.301.257-.545.555-.545.306 0 .555.239.555.545v1.677zm0 1.111V3.9a.556.556 0 0 1-.555.545.547.547 0 0 1-.556-.545v-.566H4.443V3.9a.556.556 0 0 1-.555.545.547.547 0 0 1-.555-.545v-.566H2.216c-.61 0-1.105.495-1.105 1.105v1.118h17.774V4.438c0-.609-.496-1.105-1.106-1.105h-1.116zm2.222 3.334H1.11v11.117c0 .61.495 1.105 1.105 1.105H17.78c.611 0 1.106-.494 1.106-1.105V6.667zM14.44 9.45c0-.31.238-.561.56-.561h1.101c.31 0 .56.238.56.56v1.101c0 .31-.237.561-.56.561h-1.1a.552.552 0 0 1-.56-.56V9.45zm-4.993-.561a.552.552 0 0 0-.561.56v1.101c0 .323.25.561.56.561h1.101c.323 0 .56-.25.56-.56V9.45a.552.552 0 0 0-.56-.561h-1.1zm-6.115.56c0-.309.237-.56.56-.56h1.1c.31 0 .561.238.561.56v1.101c0 .31-.237.561-.56.561h-1.1a.552.552 0 0 1-.561-.56V9.45zm.56 4.995a.552.552 0 0 0-.56.561v1.1c0 .324.25.562.56.562h1.1c.324 0 .561-.251.561-.561v-1.1a.552.552 0 0 0-.56-.562h-1.1zm4.994.561c0-.31.238-.56.56-.56h1.101c.31 0 .56.237.56.56v1.1c0 .31-.237.562-.56.562h-1.1a.552.552 0 0 1-.561-.561v-1.1zm6.115-.56a.552.552 0 0 0-.56.56v1.1c0 .324.25.562.56.562h1.1c.323 0 .56-.251.56-.561v-1.1a.552.552 0 0 0-.56-.562h-1.1z" fill="#318FFF"/>
</svg>
