<svg width="15" height="15" viewBox="0 0 15 15" xmlns="http://www.w3.org/2000/svg">
    <path d="M7.5 0C11.656 0 15 3.344 15 7.5c0 4.156-3.344 7.5-7.5 7.5A7.482 7.482 0 0 1 0 7.5C0 3.344 3.344 0 7.5 0zm0 1.25c-3.438 0-6.25 2.813-6.25 6.25 0 3.438 2.813 6.25 6.25 6.25 3.438 0 6.25-2.813 6.25-6.25 0-3.438-2.813-6.25-6.25-6.25zm.171 4.643c.772 0 1.33.728 1.115 1.457l-.772 2.572c-.085.3.129.557.429.557h.386a1.57 1.57 0 0 1-1.5 1.072c-.772 0-1.33-.729-1.115-1.458l.772-2.572c.085-.3-.129-.557-.429-.557h-.386a1.571 1.571 0 0 1 1.5-1.071zm.13-2.444c.47 0 .9.386.9.9 0 .515-.387.9-.9.9a.905.905 0 0 1-.901-.9c0-.514.386-.9.9-.9z" fill="#0A256A" fill-rule="evenodd"/>
</svg>
