<svg width="17" height="14" viewBox="0 0 17 14" xmlns="http://www.w3.org/2000/svg">
    <path d="M10.161 3.843c.27 0 .49.245.49.53v6.422a.52.52 0 0 1-.145.36.464.464 0 0 1-.345.144H3.94l-1.725 2.189c-.396.504-.728.386-.728-.27v-1.92H.69a.464.464 0 0 1-.345-.143.52.52 0 0 1-.144-.36V4.374c0-.286.219-.531.489-.531zM15.943.2c.399.003.72.347.72.77v7.135a.724.724 0 0 1-.72.742h-.632l.007 1.868c.002.657-.321.784-.72.282l-1.697-2.15H11.68V4.374c0-.886-.68-1.62-1.516-1.62h-5.14V.968C5.03.544 5.355.202 5.756.2z" fill="#0A256A" fill-rule="nonzero"/>
</svg>
