<svg width="13" height="13" viewBox="0 0 13 13" xmlns="http://www.w3.org/2000/svg">
    <path d="M12.92 12.155 9.145 8.378a5.12 5.12 0 0 0 1.148-3.232A5.152 5.152 0 0 0 5.146 0 5.152 5.152 0 0 0 0 5.146a5.152 5.152 0 0 0 5.146 5.146 5.12 5.12 0 0 0 3.232-1.148l3.777 3.777a.27.27 0 0 0 .383 0l.383-.383a.27.27 0 0 0 0-.383zM5.147 9.208a4.067 4.067 0 0 1-4.063-4.062 4.067 4.067 0 0 1 4.063-4.063 4.067 4.067 0 0 1 4.062 4.063 4.067 4.067 0 0 1-4.062 4.062z" fill="#858FA3" fill-rule="nonzero"/>
</svg>
