<svg width="14" height="13" viewBox="0 0 14 13" fill="none" xmlns="http://www.w3.org/2000/svg">
    <path fill-rule="evenodd" clip-rule="evenodd" d="M.413 2.056h1.94c.236.428.687.722 1.21.722.524 0 .975-.294 1.211-.722h8.64c.23 0 .414-.3.414-.667 0-.368-.185-.667-.413-.667h-8.64A1.382 1.382 0 0 0 3.562 0c-.523 0-.974.293-1.21.722H.412C.185.722 0 1.02 0 1.389c0 .368.185.667.413.667zm13.002 3.777h-1.94a1.384 1.384 0 0 0-1.21-.722c-.524 0-.975.294-1.211.722H.414C.184 5.833 0 6.132 0 6.5c0 .368.185.667.413.667h8.64c.237.428.688.722 1.212.722s.974-.294 1.21-.722h1.94c.228 0 .413-.299.413-.667 0-.368-.185-.667-.413-.667zm-5.863 5.111h5.863c.228 0 .413.3.413.667 0 .368-.185.667-.413.667H7.552A1.383 1.383 0 0 1 6.34 13c-.524 0-.974-.294-1.21-.722H.412c-.228 0-.413-.299-.413-.667 0-.368.185-.667.413-.667H5.13a1.383 1.383 0 0 1 1.21-.722c.525 0 .976.294 1.212.722z" fill="#318FFF"/>
</svg>
