<svg xmlns="http://www.w3.org/2000/svg" viewBox="0 0 65.41 46.54"><defs><style>.cls-1{fill:#0b1f47;}</style></defs><g id="Layer_2" data-name="Layer 2"><g id="Layer_1-2" data-name="Layer 1"><g id="Layer_2-2" data-name="Layer 2"><g id="Layer_1-2-2" data-name="Layer 1-2"><path class="cls-1" d="M65.14,11.38C64.68,4,62,1.54,56,1A270.21,270.21,0,0,0,9.24,1C3.91,1.49,1,4,.65,9.28A205.19,205.19,0,0,0,.21,34.93c.45,7.9,3,10,10.82,10.61,7.18.57,14.4.71,21.93,1,7.28-.35,14.88-.6,22.46-1.13,6.12-.43,8.92-2.63,9.38-8.72A187.55,187.55,0,0,0,65.14,11.38ZM25.89,33.3v-20l17.59,9.9Z"/></g></g></g></g></svg>