<?xml version="1.0" encoding="utf-8"?>
<!-- Generator: Adobe Illustrator 26.0.1, SVG Export Plug-In . SVG Version: 6.00 Build 0)  -->
<svg version="1.1" id="Layer_1" xmlns="http://www.w3.org/2000/svg" xmlns:xlink="http://www.w3.org/1999/xlink" x="0px" y="0px"
	 viewBox="0 0 100 100" style="enable-background:new 0 0 100 100;" xml:space="preserve">
<style type="text/css">
	.st0{fill:#0B1F47;}
</style>
<path class="st0" d="M53,57.7c-0.1,0-0.3,0.1-0.4,0.1c-0.9,0.2-1.8,0.5-2.6,0.7l-1.1,0.3c-2.3,0.6-4.6,1.2-6.9,1.9
	c0.9-2.1,1.7-4.2,2.5-6.3c0.6-1.5,1.2-3.1,1.8-4.6c0.3,0.5,0.6,1,1,1.6C48.8,53.6,50.7,55.8,53,57.7z M47.2,34
	c-0.1-1.3-0.4-2.2-0.7-2.6c-0.2,0.2-0.4,0.5-0.8,1.2c-1.3,2.6-0.8,5.9,0.2,8.8C46.8,39.1,47.4,36.6,47.2,34z M28.1,73.5
	c0,0.1,0,0.2,0.1,0.4c0.2,0.2,0.4,0.2,0.5,0.2c1.2,0,3.5-2.3,5-4.5c0.6-0.9,1.2-1.8,1.7-2.9c-1.8,0.9-3.3,2-4.7,3.2
	C29.1,71.3,28.1,72.7,28.1,73.5z M61.4,59.1c1.9,0.8,3.7,1.4,5.6,1.7c1.7,0.3,3.3,0.2,4.4-0.1c-0.6-0.4-1.4-0.9-2-1.1
	C67.3,58.8,64.7,58.6,61.4,59.1z M86.3,26.7v61.5c0,5.2-4.3,9.5-9.5,9.5H23.2c-5.2,0-9.5-4.3-9.5-9.5V11.8c0-5.2,4.3-9.5,9.5-9.5
	h38.2c0.9,0,1.8,0.4,2.4,1l21.4,20.9C85.9,24.8,86.3,25.7,86.3,26.7z M75.3,60.8c-0.2-2.6-4.6-4.3-4.7-4.3c-1.7-0.6-3.6-0.9-5.7-0.9
	c-2.3,0-4.7,0.3-7.9,1.1c-2.8-2-5.2-4.5-7-7.2c-0.8-1.2-1.5-2.4-2.1-3.6c1.5-3.6,2.9-7.6,2.6-12c-0.2-3.5-1.8-5.9-3.9-5.9
	c-1.5,0-2.8,1.1-3.8,3.3c-1.9,3.9-1.4,8.8,1.4,14.7c-1,2.4-2,4.8-2.9,7.2c-1.1,3-2.3,6-3.6,8.9c-3.7,1.5-6.7,3.2-9.2,5.4
	c-1.7,1.4-3.6,3.6-3.8,5.9c-0.1,1.1,0.3,2,1.1,2.8c0.8,0.8,1.8,1.3,2.9,1.3c3.6,0,7.1-5,7.7-5.9c1.3-2,2.6-4.2,3.8-6.8
	c3.1-1.1,6.3-1.9,9.5-2.7l1.1-0.3c0.9-0.2,1.7-0.5,2.6-0.7c1-0.3,1.9-0.5,3-0.8c3.2,2.1,6.7,3.4,10.1,3.9c2.9,0.4,5.4,0.2,7.1-0.7
	C75.2,62.5,75.3,61.3,75.3,60.8z M62.3,9c-0.6-0.6-1.6-0.2-1.6,0.7V21c0,3.5,2.9,6.4,6.4,6.4h11.6c0.9,0,1.4-1.1,0.7-1.7L62.3,9z"/>
</svg>
