<svg id="Layer_1" data-name="Layer 1" xmlns="http://www.w3.org/2000/svg" viewBox="0 0 256 256"><defs><style>.cls-1{fill:#e82b87;}</style></defs><path class="cls-1" d="M243.83,58.07H71.9a10.5,10.5,0,1,1,0-21H243.83a10.5,10.5,0,0,1,0,21Z"/><path class="cls-1" d="M243.83,138.49H71.9a10.49,10.49,0,1,1,0-21H243.83a10.49,10.49,0,0,1,0,21Z"/><path class="cls-1" d="M243.83,218.92H71.9a10.5,10.5,0,1,1,0-21H243.83a10.5,10.5,0,0,1,0,21Z"/><circle class="cls-1" cx="19.83" cy="47.57" r="18.15"/><circle class="cls-1" cx="19.83" cy="128" r="18.15"/><circle class="cls-1" cx="19.83" cy="208.43" r="18.15"/></svg>