<svg id="Layer_1" data-name="Layer 1" xmlns="http://www.w3.org/2000/svg" viewBox="0 0 256 256"><defs><style>.cls-1{fill:#e82b87;}</style></defs><path class="cls-1" d="M250.87,149.58,229.29,128l21.58-21.58a10,10,0,0,0,0-14.17h0a10,10,0,0,0-14.16,0l-21.58,21.58L193.55,92.25a10,10,0,0,0-14.17,0h0a10,10,0,0,0,0,14.17L201,128l-21.58,21.58a10,10,0,0,0,0,14.17h0a10,10,0,0,0,14.17,0l21.58-21.58,21.58,21.58a10,10,0,0,0,14.16,0h0A10,10,0,0,0,250.87,149.58Z"/><path class="cls-1" d="M138.22,32.46V223.54a6.24,6.24,0,0,1-10,5L67,182.05H13.41A11.22,11.22,0,0,1,2.19,170.83V85.21A11.21,11.21,0,0,1,13.41,74H67L128.2,27.49A6.24,6.24,0,0,1,138.22,32.46Z"/></svg>