<svg id="Layer_1" data-name="Layer 1" xmlns="http://www.w3.org/2000/svg" viewBox="0 0 256 256"><defs><style>.cls-1{fill:#e82b87;}</style></defs><g id="Branding"><g id="Icons"><path id="Path" class="cls-1" d="M208.66,170.52c.41,3.85-2.9,7.7-6.62,7.7H137.1V246.6a9.1,9.1,0,1,1-18.2,0V178.22H54a6.9,6.9,0,0,1-6.62-7.7C49.82,144,63.89,121,85,107.27V49.58A69.79,69.79,0,0,1,63.89,8.12a7.33,7.33,0,0,1,7-8.12H185.08c4.14,0,7.86,3.85,7,8.12-2.06,16.67-9.51,31.2-21.09,41.46v57.69C192.11,121,206.18,143.6,208.66,170.52Z"/></g></g></svg>