<svg id="Layer_1" data-name="Layer 1" xmlns="http://www.w3.org/2000/svg" viewBox="0 0 256 256"><defs><style>.cls-1{fill:#e82b87;}</style></defs><path class="cls-1" d="M222.87,30.44H33.13a19.8,19.8,0,0,0-19.8,19.81v127.4a19.8,19.8,0,0,0,19.8,19.81H222.87a19.81,19.81,0,0,0,19.81-19.81V50.25A19.81,19.81,0,0,0,222.87,30.44ZM225,177.65a2.09,2.09,0,0,1-2.08,2.09H148.6a6.54,6.54,0,0,0,2.12-4.84V158.66a41.7,41.7,0,1,0-83.39,0V174.9a6.54,6.54,0,0,0,2.12,4.84H33.13a2.09,2.09,0,0,1-2.08-2.09V50.25a2.08,2.08,0,0,1,2.08-2.08H222.87A2.08,2.08,0,0,1,225,50.25Z"/><path class="cls-1" d="M246,225.56H10a8.86,8.86,0,0,1,0-17.72H246a8.86,8.86,0,1,1,0,17.72Z"/><path class="cls-1" d="M109,62.65a25.05,25.05,0,1,0,25,25.05A25,25,0,0,0,109,62.65Z"/><path class="cls-1" d="M187,108.12,174.65,95.77,187,83.43a5.73,5.73,0,0,0,0-8.11h0a5.75,5.75,0,0,0-8.11,0L166.55,87.67,154.2,75.32a5.74,5.74,0,0,0-8.1,0h0a5.73,5.73,0,0,0,0,8.11l12.34,12.34L146.1,108.12a5.72,5.72,0,0,0,0,8.1h0a5.72,5.72,0,0,0,8.1,0l12.35-12.34,12.34,12.34a5.73,5.73,0,0,0,8.11,0h0A5.72,5.72,0,0,0,187,108.12Z"/></svg>