<svg id="Layer_1" data-name="Layer 1" xmlns="http://www.w3.org/2000/svg" viewBox="0 0 256 256"><defs><style>.cls-1{fill:#e82b87;}</style></defs><path class="cls-1" d="M128,143.49a71.79,71.79,0,0,1,71.79,71.78v28a11.34,11.34,0,0,1-11.34,11.33H67.55a11.34,11.34,0,0,1-11.34-11.33v-28A71.79,71.79,0,0,1,128,143.49Z"/><path class="cls-1" d="M171.1,9.05V49.56A1.77,1.77,0,0,1,168,50.78a54.71,54.71,0,0,0-40-17.84H128A54.35,54.35,0,0,0,88,50.52a1.77,1.77,0,0,1-3.06-1.23V9.05A2.15,2.15,0,0,1,86,7.16a2,2,0,0,1,2.12.18l22.51,16.38L126.31,2.3a2.08,2.08,0,0,1,3.37,0l15.7,21.42L167.89,7.34A2,2,0,0,1,170,7.16,2.15,2.15,0,0,1,171.1,9.05Z"/><path class="cls-1" d="M171.1,93.1a43.51,43.51,0,1,1-8.31-25.2A43.12,43.12,0,0,1,171.1,93.1Z"/></svg>