<svg id="Layer_1" data-name="Layer 1" xmlns="http://www.w3.org/2000/svg" viewBox="0 0 256 256"><defs><style>.cls-1{fill:#e82b87;}</style></defs><path class="cls-1" d="M8.65,45.26H44.26a25.27,25.27,0,0,0,44.46,0H247.35c4.19,0,7.58-5.49,7.58-12.25s-3.39-12.24-7.58-12.24H88.72a25.27,25.27,0,0,0-44.46,0H8.65c-4.19,0-7.58,5.48-7.58,12.24S4.46,45.26,8.65,45.26Z"/><path class="cls-1" d="M247.35,114.6H211.74a25.27,25.27,0,0,0-44.46,0H8.65c-4.19,0-7.58,5.49-7.58,12.25s3.39,12.24,7.58,12.24H167.28a25.27,25.27,0,0,0,44.46,0h35.61c4.19,0,7.58-5.48,7.58-12.24S251.54,114.6,247.35,114.6Z"/><path class="cls-1" d="M247.35,208.44H139.71a25.27,25.27,0,0,0-44.46,0H8.65c-4.19,0-7.58,5.48-7.58,12.24s3.39,12.25,7.58,12.25h86.6a25.27,25.27,0,0,0,44.46,0H247.35c4.19,0,7.58-5.48,7.58-12.25S251.54,208.44,247.35,208.44Z"/></svg>