<svg id="Layer_1" data-name="Layer 1" xmlns="http://www.w3.org/2000/svg" viewBox="0 0 256 256"><defs><style>.cls-1{fill:#e82b87;fill-rule:evenodd;}</style></defs><path class="cls-1" d="M209.43,248.43V7.8a6.25,6.25,0,0,0-6.37-6.36H52.94A6.53,6.53,0,0,0,46.57,7.8V248.43h.07a6.31,6.31,0,0,0,6.3,6.13H203.07c.1,0,.19-.05.29-.05a6.27,6.27,0,0,0,1.79-.37c.17-.06.35-.08.51-.15a5.74,5.74,0,0,0,1.56-1.06c.14-.12.29-.22.42-.35a5.08,5.08,0,0,0,.61-.9,6,6,0,0,0,.8-1.67A2.73,2.73,0,0,0,209.43,248.43Zm-37.61-122.7a4.46,4.46,0,0,1-1.38,3.29,4.75,4.75,0,0,1-6.63,0L149.22,114.8v37.66a4.73,4.73,0,0,1-4.72,4.72,4.69,4.69,0,0,1-4.67-4.72V114.8L124.66,129a4.63,4.63,0,1,1-6.53-6.57l23.13-22.18a5.08,5.08,0,0,1,2.39-1.32h.53c.11-.06.26,0,.32,0h.79a4.59,4.59,0,0,1,2.71,1.48l22.44,22.07A4.45,4.45,0,0,1,171.82,125.73ZM164.6,14.11,88.48,39.52a6.32,6.32,0,0,0-4.24,5.89V210.76a6,6,0,0,0,4.66,5.94l75.16,25.18H59.3V14.11Z"/></svg>