<svg id="Layer_1" data-name="Layer 1" xmlns="http://www.w3.org/2000/svg" viewBox="0 0 256 256"><defs><style>.cls-1{fill:#e82b87;}</style></defs><path class="cls-1" d="M217,39A125.87,125.87,0,0,0,2.14,128V253.86H128A125.87,125.87,0,0,0,217,39ZM202.25,202.25A105.1,105.1,0,0,1,128,233.32H22.68V128C22.68,70.07,70.07,22.68,128,22.68a102.93,102.93,0,0,1,74.25,31.07c19,19.48,31.07,45.29,31.07,74.25A105.1,105.1,0,0,1,202.25,202.25Z"/><rect class="cls-1" x="117.47" y="159.07" width="20.01" height="19.49"/><rect class="cls-1" x="117.47" y="78.5" width="20.01" height="71.09"/></svg>