<svg id="Layer_1" data-name="Layer 1" xmlns="http://www.w3.org/2000/svg" viewBox="0 0 256 256"><defs><style>.cls-1{fill:#e82b87;}</style></defs><g id="Icons"><path id="Combined-Shape-Copy" class="cls-1" d="M128,2.3A125.7,125.7,0,1,1,2.3,128,125.4,125.4,0,0,1,128,2.3Zm0,21C70.39,23.25,23.25,70.39,23.25,128S70.39,232.75,128,232.75,232.75,185.61,232.75,128,185.61,23.25,128,23.25Z"/></g><circle class="cls-1" cx="133.03" cy="75.2" r="15.09"/><path class="cls-1" d="M125.13,195.89c-12.93,0-22.27-12.21-18.68-24.43l12.93-43.1A7.19,7.19,0,0,0,112.2,119h-6.47a26.32,26.32,0,0,1,25.14-18c12.93,0,22.27,12.21,18.68,24.43l-12.93,43.1a7.19,7.19,0,0,0,7.18,9.34h6.47A26.33,26.33,0,0,1,125.13,195.89Z"/></svg>