<svg id="Layer_1" data-name="Layer 1" xmlns="http://www.w3.org/2000/svg" viewBox="0 0 256 256"><defs><style>.cls-1{fill:#e82b87;}</style></defs><path class="cls-1" d="M163.88,33.32a36.59,36.59,0,0,0-73,3.25V119.3a36.9,36.9,0,0,0,.69,6.92Z"/><path class="cls-1" d="M127.42,155.87A36.68,36.68,0,0,0,164,119.3V98.75l63-81a10.34,10.34,0,0,0-1.54-14.53,10.25,10.25,0,0,0-13.47,1l-.11.11a12.34,12.34,0,0,0-.85,1L164,65.8,102,145.49,84.73,167.63,72.16,183.82,28.94,239.34a7.2,7.2,0,0,0-.86,1.33l-.15.21a10.74,10.74,0,0,0-1.28,5.06,10.11,10.11,0,0,0,3.83,7.93,10.33,10.33,0,0,0,14.43-2.08L89.2,194.94a87,87,0,0,0,24.7,7.83l3.35.53v42.48a10.2,10.2,0,1,0,20.39,0V203.3l3.35-.53A85.55,85.55,0,0,0,213.34,118,10.2,10.2,0,0,0,193,118a65.6,65.6,0,0,1-65.53,65.53A64.25,64.25,0,0,1,102,178.39l18.1-23.27A36.34,36.34,0,0,0,127.42,155.87Z"/><path class="cls-1" d="M71.47,152a64.83,64.83,0,0,1-9.53-34,10.2,10.2,0,0,0-20.39,0A85.64,85.64,0,0,0,58.27,169Z"/></svg>