<svg id="Layer_1" data-name="Layer 1" xmlns="http://www.w3.org/2000/svg" viewBox="0 0 256 256"><defs><style>.cls-1{fill:#e82b87;fill-rule:evenodd;}</style></defs><g id="Branding"><g id="Icons"><path id="Path" class="cls-1" d="M145.7,190.08c10.15-7.63,21.89-15.59,32.35-10.18,14,7.32,27.92,14.64,41.87,21.64,11.42,6.05,15.54,12.73,8.88,24.5-10.46,19.09-38.06,34.68-59,28.64A201,201,0,0,1,24.54,46.58C26.12,24.94,50.23,3.94,71.48.44c13.32-2.23,18.4,4.13,20,16.86,1.91,15.59,3.81,31.5,5.71,47.1,1.59,11.77-9.83,20-20.3,27C51.5,109.26,120.33,207.9,145.7,190.08Z"/></g></g></svg>