<svg width="28" height="28" viewBox="0 0 28 28" fill="none" xmlns="http://www.w3.org/2000/svg">
    <path fill-rule="evenodd" clip-rule="evenodd" d="M1.92 0C.86 0 0 .86 0 1.92v24.16C0 27.14.86 28 1.92 28h24.16c1.06 0 1.92-.86 1.92-1.92V1.92C28 .86 27.14 0 26.08 0H1.92zm10.292 20.76 8.925-11.967a1.36 1.36 0 0 0-.31-1.937 1.449 1.449 0 0 0-1.992.303l-8.108 10.88-3.39-3.121a1.438 1.438 0 0 0-2.005.052c-.54.554-.52 1.436.054 1.963l4.328 3.991c.31.317.729.488 1.175.488h.047c.506-.013.972-.25 1.276-.652z" fill="#A6D068"/>
</svg>
