<svg width="227" height="27" viewBox="0 0 227 27" fill="none" xmlns="http://www.w3.org/2000/svg">
    <path d="M.462 14.134c0-2.312.521-4.386 1.564-6.222 1.043-1.859 2.46-3.31 4.25-4.352 1.813-1.043 3.82-1.564 6.018-1.564 2.584 0 4.84.623 6.766 1.87 1.927 1.247 3.332 3.015 4.216 5.304H19.57c-.657-1.428-1.61-2.527-2.856-3.298-1.224-.77-2.697-1.156-4.42-1.156-1.655 0-3.14.385-4.454 1.156-1.315.77-2.346 1.87-3.094 3.298-.748 1.405-1.122 3.06-1.122 4.964 0 1.881.374 3.536 1.122 4.964.748 1.405 1.78 2.493 3.094 3.264 1.315.77 2.8 1.156 4.454 1.156 1.723 0 3.196-.374 4.42-1.122 1.247-.77 2.199-1.87 2.856-3.298h3.706c-.884 2.267-2.29 4.023-4.216 5.27-1.927 1.224-4.182 1.836-6.766 1.836-2.199 0-4.205-.51-6.018-1.53-1.79-1.043-3.207-2.482-4.25-4.318C.983 18.52.462 16.446.462 14.134zm30.514-3.74c.544-1.065 1.314-1.893 2.312-2.482 1.02-.59 2.255-.884 3.706-.884v3.196h-.816c-3.468 0-5.202 1.881-5.202 5.644V26h-3.094V7.368h3.094v3.026zm26.59 5.576c0 .59-.035 1.213-.103 1.87H42.571c.114 1.836.737 3.275 1.87 4.318 1.156 1.02 2.55 1.53 4.182 1.53 1.338 0 2.448-.306 3.332-.918a5.008 5.008 0 0 0 1.904-2.516h3.332c-.498 1.79-1.496 3.253-2.992 4.386-1.496 1.11-3.354 1.666-5.576 1.666-1.768 0-3.354-.397-4.76-1.19-1.382-.793-2.47-1.915-3.264-3.366-.793-1.473-1.19-3.173-1.19-5.1 0-1.927.386-3.615 1.156-5.066.77-1.45 1.848-2.561 3.23-3.332 1.406-.793 3.015-1.19 4.828-1.19 1.768 0 3.332.385 4.692 1.156a7.862 7.862 0 0 1 3.128 3.196c.748 1.337 1.122 2.856 1.122 4.556zm-3.197-.646c0-1.179-.26-2.187-.782-3.026a4.922 4.922 0 0 0-2.142-1.938c-.884-.453-1.87-.68-2.958-.68-1.564 0-2.901.499-4.012 1.496-1.088.997-1.711 2.38-1.87 4.148H54.37zm6.124 1.292c0-1.904.386-3.57 1.156-4.998.77-1.45 1.825-2.573 3.162-3.366 1.36-.793 2.868-1.19 4.522-1.19 1.632 0 3.049.351 4.25 1.054 1.202.703 2.097 1.587 2.686 2.652v-3.4h3.128V26H76.27v-3.468c-.612 1.088-1.53 1.995-2.754 2.72-1.201.703-2.606 1.054-4.216 1.054-1.654 0-3.15-.408-4.488-1.224-1.337-.816-2.391-1.96-3.162-3.434-.77-1.473-1.156-3.15-1.156-5.032zm15.776.034c0-1.405-.283-2.63-.85-3.672-.566-1.043-1.337-1.836-2.312-2.38-.952-.567-2.006-.85-3.162-.85-1.156 0-2.21.272-3.162.816-.952.544-1.711 1.337-2.278 2.38-.566 1.043-.85 2.267-.85 3.672 0 1.428.284 2.675.85 3.74.567 1.043 1.326 1.847 2.278 2.414.952.544 2.006.816 3.162.816 1.156 0 2.21-.272 3.162-.816.975-.567 1.746-1.371 2.312-2.414.567-1.065.85-2.3.85-3.706zM88.4 9.918V20.9c0 .907.194 1.553.579 1.938.385.363 1.054.544 2.006.544h2.278V26h-2.788c-1.723 0-3.015-.397-3.876-1.19-.861-.793-1.292-2.097-1.292-3.91V9.918h-2.414v-2.55h2.414V2.676H88.4v4.692h4.862v2.55H88.4zm25.612 6.052c0 .59-.034 1.213-.102 1.87H99.017c.113 1.836.736 3.275 1.87 4.318 1.156 1.02 2.55 1.53 4.182 1.53 1.337 0 2.448-.306 3.332-.918a5.013 5.013 0 0 0 1.904-2.516h3.332c-.499 1.79-1.496 3.253-2.992 4.386-1.496 1.11-3.355 1.666-5.576 1.666-1.768 0-3.355-.397-4.76-1.19-1.383-.793-2.471-1.915-3.264-3.366-.794-1.473-1.19-3.173-1.19-5.1 0-1.927.385-3.615 1.156-5.066.77-1.45 1.847-2.561 3.23-3.332 1.405-.793 3.014-1.19 4.828-1.19 1.768 0 3.332.385 4.692 1.156a7.866 7.866 0 0 1 3.128 3.196c.748 1.337 1.122 2.856 1.122 4.556zm-3.196-.646c0-1.179-.261-2.187-.782-3.026a4.929 4.929 0 0 0-2.142-1.938c-.884-.453-1.87-.68-2.958-.68-1.564 0-2.902.499-4.012 1.496-1.088.997-1.712 2.38-1.87 4.148h11.764zm15.188 1.292c0-1.904.385-3.57 1.156-4.998.771-1.45 1.825-2.573 3.162-3.366 1.36-.793 2.867-1.19 4.522-1.19 1.632 0 3.049.351 4.25 1.054 1.201.703 2.097 1.587 2.686 2.652v-3.4h3.128V26h-3.128v-3.468c-.612 1.088-1.53 1.995-2.754 2.72-1.201.703-2.607 1.054-4.216 1.054-1.655 0-3.151-.408-4.488-1.224-1.337-.816-2.391-1.96-3.162-3.434-.771-1.473-1.156-3.15-1.156-5.032zm15.776.034c0-1.405-.283-2.63-.85-3.672-.567-1.043-1.337-1.836-2.312-2.38-.952-.567-2.006-.85-3.162-.85-1.156 0-2.21.272-3.162.816-.952.544-1.711 1.337-2.278 2.38s-.85 2.267-.85 3.672c0 1.428.283 2.675.85 3.74.567 1.043 1.326 1.847 2.278 2.414.952.544 2.006.816 3.162.816 1.156 0 2.21-.272 3.162-.816.975-.567 1.745-1.371 2.312-2.414.567-1.065.85-2.3.85-3.706zm21.195-6.732V20.9c0 .907.193 1.553.578 1.938.385.363 1.054.544 2.006.544h2.278V26h-2.788c-1.723 0-3.015-.397-3.876-1.19-.861-.793-1.292-2.097-1.292-3.91V9.918h-2.414v-2.55h2.414V2.676h3.094v4.692h4.862v2.55h-4.862zm7.455 6.698c0-1.904.385-3.57 1.156-4.998.77-1.45 1.824-2.573 3.162-3.366 1.36-.793 2.867-1.19 4.522-1.19 1.632 0 3.048.351 4.25 1.054 1.201.703 2.096 1.587 2.686 2.652v-3.4h3.128V26h-3.128v-3.468c-.612 1.088-1.53 1.995-2.754 2.72-1.202.703-2.607 1.054-4.216 1.054-1.655 0-3.151-.408-4.488-1.224-1.338-.816-2.392-1.96-3.162-3.434-.771-1.473-1.156-3.15-1.156-5.032zm15.776.034c0-1.405-.284-2.63-.85-3.672-.567-1.043-1.338-1.836-2.312-2.38-.952-.567-2.006-.85-3.162-.85-1.156 0-2.21.272-3.162.816-.952.544-1.712 1.337-2.278 2.38-.567 1.043-.85 2.267-.85 3.672 0 1.428.283 2.675.85 3.74.566 1.043 1.326 1.847 2.278 2.414.952.544 2.006.816 3.162.816 1.156 0 2.21-.272 3.162-.816.974-.567 1.745-1.371 2.312-2.414.566-1.065.85-2.3.85-3.706zm14.952 9.656c-1.428 0-2.708-.238-3.842-.714-1.133-.499-2.028-1.179-2.686-2.04a5.517 5.517 0 0 1-1.088-3.026h3.196c.091.93.522 1.689 1.292 2.278.794.59 1.825.884 3.094.884 1.179 0 2.108-.26 2.788-.782.68-.521 1.02-1.179 1.02-1.972 0-.816-.362-1.417-1.088-1.802-.725-.408-1.847-.805-3.366-1.19-1.382-.363-2.516-.725-3.4-1.088a6.462 6.462 0 0 1-2.244-1.666c-.612-.748-.918-1.723-.918-2.924 0-.952.284-1.825.85-2.618.567-.793 1.372-1.417 2.414-1.87 1.043-.476 2.233-.714 3.57-.714 2.063 0 3.729.521 4.998 1.564 1.27 1.043 1.95 2.47 2.04 4.284h-3.094c-.068-.975-.464-1.757-1.19-2.346-.702-.59-1.654-.884-2.856-.884-1.11 0-1.994.238-2.652.714-.657.476-.986 1.1-.986 1.87 0 .612.193 1.122.578 1.53a4.98 4.98 0 0 0 1.496.952c.612.227 1.451.487 2.516.782 1.338.363 2.426.725 3.264 1.088.839.34 1.553.861 2.142 1.564.612.703.93 1.62.952 2.754 0 1.02-.283 1.938-.85 2.754-.566.816-1.371 1.462-2.414 1.938-1.02.453-2.198.68-3.536.68zM222.729 26l-7.31-8.228V26h-3.094V.84h3.094v14.79l7.174-8.262h4.318l-8.772 9.282 8.806 9.35h-4.216z" fill="#0B1F47"/>
</svg>
