<svg width="255" height="13" viewBox="0 0 255 13" fill="none" xmlns="http://www.w3.org/2000/svg">
    <path d="M.688 6.416c0-1.088.245-2.064.736-2.928a5.349 5.349 0 0 1 2-2.048C4.277.95 5.221.704 6.256.704c1.216 0 2.277.293 3.184.88s1.568 1.419 1.984 2.496H9.68c-.31-.672-.757-1.19-1.344-1.552-.576-.363-1.27-.544-2.08-.544-.779 0-1.477.181-2.096.544A3.792 3.792 0 0 0 2.704 4.08c-.352.661-.528 1.44-.528 2.336 0 .885.176 1.664.528 2.336a3.816 3.816 0 0 0 1.456 1.536c.619.363 1.317.544 2.096.544.81 0 1.504-.176 2.08-.528.587-.363 1.035-.88 1.344-1.552h1.744c-.416 1.067-1.077 1.893-1.984 2.48-.907.576-1.968.864-3.184.864-1.035 0-1.979-.24-2.832-.72a5.38 5.38 0 0 1-2-2.032C.934 8.48.688 7.504.688 6.416zm14.36-1.76c.255-.501.618-.89 1.087-1.168.48-.277 1.062-.416 1.744-.416v1.504h-.384c-1.632 0-2.448.885-2.448 2.656V12h-1.456V3.232h1.456v1.424zM27.56 7.28c0 .277-.016.57-.048.88h-7.008c.053.864.347 1.541.88 2.032.544.48 1.2.72 1.968.72.63 0 1.152-.144 1.568-.432.427-.299.725-.693.896-1.184h1.568a3.807 3.807 0 0 1-1.408 2.064c-.704.523-1.578.784-2.624.784-.832 0-1.579-.187-2.24-.56A3.993 3.993 0 0 1 19.576 10c-.373-.693-.56-1.493-.56-2.4 0-.907.182-1.701.544-2.384a3.782 3.782 0 0 1 1.52-1.568c.662-.373 1.419-.56 2.272-.56.832 0 1.568.181 2.208.544a3.7 3.7 0 0 1 1.472 1.504c.352.63.528 1.344.528 2.144zm-1.504-.304c0-.555-.123-1.03-.368-1.424a2.316 2.316 0 0 0-1.008-.912 3.006 3.006 0 0 0-1.392-.32c-.736 0-1.365.235-1.888.704-.512.47-.805 1.12-.88 1.952h5.536zm2.882.608c0-.896.181-1.68.544-2.352a3.952 3.952 0 0 1 1.488-1.584c.64-.373 1.35-.56 2.128-.56.768 0 1.435.165 2 .496.565.33.987.747 1.264 1.248v-1.6h1.472V12h-1.472v-1.632c-.288.512-.72.939-1.296 1.28-.565.33-1.227.496-1.984.496a3.974 3.974 0 0 1-2.112-.576 4.04 4.04 0 0 1-1.488-1.616c-.363-.693-.544-1.483-.544-2.368zm7.424.016c0-.661-.133-1.237-.4-1.728a2.754 2.754 0 0 0-1.088-1.12 2.854 2.854 0 0 0-1.488-.4c-.544 0-1.04.128-1.488.384-.448.256-.805.63-1.072 1.12-.267.49-.4 1.067-.4 1.728 0 .672.133 1.259.4 1.76a2.9 2.9 0 0 0 1.072 1.136c.448.256.944.384 1.488.384s1.04-.128 1.488-.384a2.864 2.864 0 0 0 1.088-1.136c.267-.501.4-1.083.4-1.744zm5.709-3.168V9.6c0 .427.09.73.272.912.18.17.495.256.943.256h1.072V12h-1.311c-.811 0-1.42-.187-1.825-.56-.405-.373-.608-.987-.608-1.84V4.432h-1.136v-1.2h1.136V1.024h1.457v2.208h2.288v1.2H42.07zM54.123 7.28c0 .277-.016.57-.048.88h-7.008c.053.864.346 1.541.88 2.032.544.48 1.2.72 1.968.72.629 0 1.152-.144 1.568-.432.426-.299.725-.693.896-1.184h1.568a3.807 3.807 0 0 1-1.408 2.064c-.704.523-1.579.784-2.624.784-.832 0-1.579-.187-2.24-.56A3.993 3.993 0 0 1 46.139 10c-.374-.693-.56-1.493-.56-2.4 0-.907.181-1.701.544-2.384a3.782 3.782 0 0 1 1.52-1.568c.661-.373 1.418-.56 2.272-.56.832 0 1.568.181 2.208.544a3.7 3.7 0 0 1 1.472 1.504c.352.63.528 1.344.528 2.144zm-1.504-.304c0-.555-.123-1.03-.368-1.424a2.316 2.316 0 0 0-1.008-.912 3.006 3.006 0 0 0-1.392-.32c-.736 0-1.366.235-1.888.704-.512.47-.806 1.12-.88 1.952h5.536zm11.515 5.168a4.534 4.534 0 0 1-2.24-.56A4.07 4.07 0 0 1 60.326 10c-.373-.693-.56-1.493-.56-2.4 0-.896.192-1.685.576-2.368a4.009 4.009 0 0 1 1.6-1.584c.672-.373 1.424-.56 2.256-.56.832 0 1.584.187 2.256.56.672.363 1.2.885 1.584 1.568.395.683.592 1.477.592 2.384 0 .907-.203 1.707-.608 2.4a4.118 4.118 0 0 1-1.616 1.584c-.683.373-1.44.56-2.272.56zm0-1.28c.523 0 1.013-.123 1.472-.368a2.748 2.748 0 0 0 1.104-1.104c.288-.49.432-1.088.432-1.792s-.138-1.301-.416-1.792c-.277-.49-.64-.853-1.088-1.088a2.983 2.983 0 0 0-1.456-.368c-.533 0-1.024.123-1.472.368-.437.235-.79.597-1.056 1.088-.267.49-.4 1.088-.4 1.792 0 .715.128 1.317.384 1.808.267.49.619.859 1.056 1.104.438.235.917.352 1.44.352zm10.683-7.792c1.066 0 1.93.325 2.592.976.66.64.991 1.568.991 2.784V12h-1.44V7.04c0-.875-.218-1.541-.655-2-.438-.47-1.035-.704-1.793-.704-.767 0-1.38.24-1.84.72-.447.48-.671 1.179-.671 2.096V12h-1.457V3.232h1.457V4.48a2.903 2.903 0 0 1 1.167-1.04 3.698 3.698 0 0 1 1.648-.368zM88.779 7.28c0 .277-.016.57-.048.88h-7.008c.053.864.347 1.541.88 2.032.544.48 1.2.72 1.968.72.63 0 1.152-.144 1.568-.432.427-.299.725-.693.896-1.184h1.568a3.808 3.808 0 0 1-1.408 2.064c-.704.523-1.579.784-2.624.784-.832 0-1.579-.187-2.24-.56A3.992 3.992 0 0 1 80.795 10c-.374-.693-.56-1.493-.56-2.4 0-.907.181-1.701.544-2.384a3.78 3.78 0 0 1 1.52-1.568c.661-.373 1.418-.56 2.272-.56.832 0 1.568.181 2.208.544a3.7 3.7 0 0 1 1.472 1.504c.352.63.528 1.344.528 2.144zm-1.504-.304c0-.555-.123-1.03-.368-1.424a2.317 2.317 0 0 0-1.008-.912 3.006 3.006 0 0 0-1.392-.32c-.736 0-1.366.235-1.888.704-.512.47-.805 1.12-.88 1.952h5.536zm11.515 5.168a4.534 4.534 0 0 1-2.24-.56A4.07 4.07 0 0 1 94.982 10c-.373-.693-.56-1.493-.56-2.4 0-.896.192-1.685.576-2.368a4.008 4.008 0 0 1 1.6-1.584c.672-.373 1.424-.56 2.256-.56.832 0 1.584.187 2.256.56.672.363 1.2.885 1.584 1.568.395.683.592 1.477.592 2.384 0 .907-.202 1.707-.608 2.4a4.112 4.112 0 0 1-1.616 1.584c-.682.373-1.44.56-2.272.56zm0-1.28c.523 0 1.014-.123 1.472-.368a2.744 2.744 0 0 0 1.104-1.104c.288-.49.432-1.088.432-1.792s-.138-1.301-.416-1.792c-.277-.49-.64-.853-1.088-1.088a2.98 2.98 0 0 0-1.456-.368c-.533 0-1.024.123-1.472.368-.437.235-.789.597-1.056 1.088-.266.49-.4 1.088-.4 1.792 0 .715.128 1.317.384 1.808.267.49.619.859 1.056 1.104.438.235.918.352 1.44.352zm7.867-6.208c.256-.501.618-.89 1.088-1.168.48-.277 1.061-.416 1.744-.416v1.504h-.384c-1.632 0-2.448.885-2.448 2.656V12h-1.456V3.232h1.456v1.424zm19.322-1.584c.683 0 1.291.144 1.824.432.533.277.955.699 1.264 1.264.309.565.464 1.253.464 2.064V12h-1.44V7.04c0-.875-.219-1.541-.656-2-.427-.47-1.008-.704-1.744-.704-.757 0-1.36.245-1.808.736-.448.48-.672 1.179-.672 2.096V12h-1.44V7.04c0-.875-.219-1.541-.656-2-.427-.47-1.008-.704-1.744-.704-.757 0-1.36.245-1.808.736-.448.48-.672 1.179-.672 2.096V12h-1.456V3.232h1.456v1.264a2.89 2.89 0 0 1 1.152-1.056 3.562 3.562 0 0 1 1.616-.368c.736 0 1.387.165 1.952.496.565.33.987.816 1.264 1.456a2.876 2.876 0 0 1 1.216-1.44 3.582 3.582 0 0 1 1.888-.512zm9.765 9.072a4.532 4.532 0 0 1-2.24-.56A4.065 4.065 0 0 1 131.936 10c-.374-.693-.56-1.493-.56-2.4 0-.896.192-1.685.576-2.368a4.005 4.005 0 0 1 1.6-1.584c.672-.373 1.424-.56 2.256-.56.832 0 1.584.187 2.256.56.672.363 1.2.885 1.584 1.568.394.683.592 1.477.592 2.384 0 .907-.203 1.707-.608 2.4a4.125 4.125 0 0 1-1.616 1.584c-.683.373-1.44.56-2.272.56zm0-1.28c.522 0 1.013-.123 1.472-.368a2.757 2.757 0 0 0 1.104-1.104c.288-.49.432-1.088.432-1.792s-.139-1.301-.416-1.792c-.278-.49-.64-.853-1.088-1.088a2.985 2.985 0 0 0-1.456-.368c-.534 0-1.024.123-1.472.368-.438.235-.79.597-1.056 1.088-.267.49-.4 1.088-.4 1.792 0 .715.128 1.317.384 1.808.266.49.618.859 1.056 1.104.437.235.917.352 1.44.352zm7.866-6.208a2.81 2.81 0 0 1 1.088-1.168c.48-.277 1.061-.416 1.744-.416v1.504h-.384c-1.632 0-2.448.885-2.448 2.656V12h-1.456V3.232h1.456v1.424zm12.513 2.624c0 .277-.016.57-.048.88h-7.008c.053.864.346 1.541.88 2.032.544.48 1.2.72 1.968.72.629 0 1.152-.144 1.568-.432.426-.299.725-.693.896-1.184h1.568a3.81 3.81 0 0 1-1.408 2.064c-.704.523-1.579.784-2.624.784-.832 0-1.579-.187-2.24-.56A3.988 3.988 0 0 1 148.139 10c-.374-.693-.56-1.493-.56-2.4 0-.907.181-1.701.544-2.384a3.775 3.775 0 0 1 1.52-1.568c.661-.373 1.418-.56 2.272-.56.832 0 1.568.181 2.208.544.64.363 1.13.864 1.472 1.504.352.63.528 1.344.528 2.144zm-1.504-.304c0-.555-.123-1.03-.368-1.424a2.323 2.323 0 0 0-1.008-.912 3.006 3.006 0 0 0-1.392-.32c-.736 0-1.366.235-1.888.704-.512.47-.806 1.12-.88 1.952h5.536zm9.467-2.544V9.6c0 .427.091.73.272.912.181.17.496.256.944.256h1.072V12h-1.312c-.811 0-1.419-.187-1.824-.56-.405-.373-.608-.987-.608-1.84V4.432h-1.136v-1.2h1.136V1.024h1.456v2.208h2.288v1.2h-2.288zm3.508 3.152c0-.896.182-1.68.544-2.352a3.956 3.956 0 0 1 1.488-1.584c.64-.373 1.35-.56 2.128-.56.768 0 1.435.165 2 .496.566.33.987.747 1.264 1.248v-1.6h1.472V12h-1.472v-1.632c-.288.512-.72.939-1.296 1.28-.565.33-1.226.496-1.984.496a3.978 3.978 0 0 1-2.112-.576 4.045 4.045 0 0 1-1.488-1.616c-.362-.693-.544-1.483-.544-2.368zm7.424.016c0-.661-.133-1.237-.4-1.728a2.747 2.747 0 0 0-1.088-1.12 2.854 2.854 0 0 0-1.488-.4c-.544 0-1.04.128-1.488.384-.448.256-.805.63-1.072 1.12-.266.49-.4 1.067-.4 1.728 0 .672.134 1.259.4 1.76.267.49.624.87 1.072 1.136.448.256.944.384 1.488.384s1.04-.128 1.488-.384a2.857 2.857 0 0 0 1.088-1.136c.267-.501.4-1.083.4-1.744zm7.037 4.544c-.672 0-1.275-.112-1.808-.336-.534-.235-.955-.555-1.264-.96a2.59 2.59 0 0 1-.512-1.424h1.504c.042.437.245.795.608 1.072.373.277.858.416 1.456.416.554 0 .992-.123 1.312-.368.32-.245.48-.555.48-.928 0-.384-.171-.667-.512-.848-.342-.192-.87-.379-1.584-.56a13.017 13.017 0 0 1-1.6-.512 3.026 3.026 0 0 1-1.056-.784c-.288-.352-.432-.81-.432-1.376 0-.448.133-.859.4-1.232.266-.373.645-.667 1.136-.88.49-.224 1.05-.336 1.68-.336.97 0 1.754.245 2.352.736.597.49.917 1.163.96 2.016h-1.456a1.495 1.495 0 0 0-.56-1.104c-.331-.277-.779-.416-1.344-.416-.523 0-.939.112-1.248.336-.31.224-.464.517-.464.88 0 .288.09.528.272.72.192.181.426.33.704.448.288.107.682.23 1.184.368.629.17 1.141.341 1.536.512.394.16.73.405 1.008.736.288.33.437.763.448 1.296 0 .48-.134.912-.4 1.296-.267.384-.646.688-1.136.912-.48.213-1.035.32-1.664.32zM192.206 12l-3.44-3.872V12h-1.456V.16h1.456v6.96l3.376-3.888h2.032L190.046 7.6l4.144 4.4h-1.984zm6.443.144c-.672 0-1.275-.112-1.808-.336-.534-.235-.955-.555-1.264-.96a2.59 2.59 0 0 1-.512-1.424h1.504c.042.437.245.795.608 1.072.373.277.858.416 1.456.416.554 0 .992-.123 1.312-.368.32-.245.48-.555.48-.928 0-.384-.171-.667-.512-.848-.342-.192-.87-.379-1.584-.56a13.017 13.017 0 0 1-1.6-.512 3.026 3.026 0 0 1-1.056-.784c-.288-.352-.432-.81-.432-1.376 0-.448.133-.859.4-1.232.266-.373.645-.667 1.136-.88.49-.224 1.05-.336 1.68-.336.97 0 1.754.245 2.352.736.597.49.917 1.163.96 2.016h-1.456a1.495 1.495 0 0 0-.56-1.104c-.331-.277-.779-.416-1.344-.416-.523 0-.939.112-1.248.336-.31.224-.464.517-.464.88 0 .288.09.528.272.72.192.181.426.33.704.448.288.107.682.23 1.184.368.629.17 1.141.341 1.536.512.394.16.73.405 1.008.736.288.33.437.763.448 1.296 0 .48-.134.912-.4 1.296-.267.384-.646.688-1.136.912-.48.213-1.035.32-1.664.32zm10.977-7.28c.298-.523.736-.95 1.312-1.28.576-.33 1.232-.496 1.968-.496.789 0 1.498.187 2.128.56a3.956 3.956 0 0 1 1.488 1.584c.362.672.544 1.456.544 2.352 0 .885-.182 1.675-.544 2.368a4.008 4.008 0 0 1-1.505 1.616 3.972 3.972 0 0 1-2.111.576c-.758 0-1.424-.165-2-.496-.566-.33-.992-.752-1.28-1.264V12h-1.456V.16h1.456v4.704zm5.952 2.72c0-.661-.134-1.237-.4-1.728a2.76 2.76 0 0 0-1.088-1.12 2.946 2.946 0 0 0-1.488-.384c-.534 0-1.03.133-1.488.4-.448.256-.811.635-1.088 1.136-.267.49-.4 1.061-.4 1.712 0 .661.133 1.243.4 1.744.277.49.64.87 1.088 1.136a3 3 0 0 0 1.488.384c.544 0 1.04-.128 1.488-.384a2.87 2.87 0 0 0 1.088-1.136c.266-.501.4-1.088.4-1.76zm11.404-.304c0 .277-.016.57-.048.88h-7.008c.053.864.347 1.541.88 2.032.544.48 1.2.72 1.968.72.629 0 1.152-.144 1.568-.432.427-.299.725-.693.896-1.184h1.568a3.81 3.81 0 0 1-1.408 2.064c-.704.523-1.579.784-2.624.784-.832 0-1.579-.187-2.24-.56A3.988 3.988 0 0 1 218.998 10c-.373-.693-.56-1.493-.56-2.4 0-.907.181-1.701.544-2.384a3.781 3.781 0 0 1 1.52-1.568c.661-.373 1.419-.56 2.272-.56.832 0 1.568.181 2.208.544.64.363 1.131.864 1.472 1.504.352.63.528 1.344.528 2.144zm-1.504-.304c0-.555-.123-1.03-.368-1.424a2.312 2.312 0 0 0-1.008-.912 3.006 3.006 0 0 0-1.392-.32c-.736 0-1.365.235-1.888.704-.512.47-.805 1.12-.88 1.952h5.536zM230.36.16V12h-1.456V.16h1.456zm6.305 11.984a4.535 4.535 0 0 1-2.24-.56A4.072 4.072 0 0 1 232.857 10c-.373-.693-.56-1.493-.56-2.4 0-.896.192-1.685.576-2.368a4.01 4.01 0 0 1 1.6-1.584c.672-.373 1.424-.56 2.256-.56.832 0 1.584.187 2.256.56.672.363 1.2.885 1.584 1.568.395.683.592 1.477.592 2.384 0 .907-.202 1.707-.608 2.4a4.112 4.112 0 0 1-1.616 1.584c-.682.373-1.44.56-2.272.56zm0-1.28c.523 0 1.014-.123 1.472-.368a2.744 2.744 0 0 0 1.104-1.104c.288-.49.432-1.088.432-1.792s-.138-1.301-.416-1.792c-.277-.49-.64-.853-1.088-1.088a2.982 2.982 0 0 0-1.456-.368c-.533 0-1.024.123-1.472.368-.437.235-.789.597-1.056 1.088-.266.49-.4 1.088-.4 1.792 0 .715.128 1.317.384 1.808.267.49.619.859 1.056 1.104a3 3 0 0 0 1.44.352zm18.091-7.632L252.02 12h-1.504l-2.112-6.96-2.112 6.96h-1.504l-2.752-8.768h1.488l2.016 7.36 2.176-7.36h1.488l2.128 7.376 1.984-7.376h1.44z" fill="#5B6477"/>
</svg>
