<svg width="10" height="11" viewBox="0 0 10 11" fill="none" xmlns="http://www.w3.org/2000/svg">
    <path fill-rule="evenodd" clip-rule="evenodd" d="M2.586 8.76.875 8.754.872 7.163c0-.102.04-.2.113-.272l6.063-6 1.57 1.57-5.695 6.153a.459.459 0 0 1-.335.146h-.002zm-2.331.656a.802.802 0 0 0 .656.208l1.672.007h.005c.368 0 .723-.155.974-.426l5.72-6.18a.802.802 0 0 0 0-1.131L7.615.226a.82.82 0 0 0-1.13-.001L.372 6.273a1.258 1.258 0 0 0-.371.891l.003 1.592a.8.8 0 0 0 .25.66zM.435 11H9.08a.435.435 0 0 0 0-.87H.435a.435.435 0 0 0 0 .87z" fill="#318FFF"/>
</svg>
