<svg width="19" height="20" viewBox="0 0 19 20" fill="none" xmlns="http://www.w3.org/2000/svg">
    <path fill-rule="evenodd" clip-rule="evenodd" d="M6.817 0A4.099 4.099 0 0 0 2.72 4.102a4.097 4.097 0 0 0 8.193 0A4.127 4.127 0 0 0 6.817 0zm6.816 19.2h-.038a4.014 4.014 0 0 1-3.96-4.005c0-1.547.892-2.904 2.186-3.563a3.906 3.906 0 0 1 1.812-.442c2.198 0 3.998 1.804 3.998 4.005 0 2.2-1.8 4.004-3.998 4.004zm0-8.81c-.887 0-1.713.24-2.426.653a6.772 6.772 0 0 0-4.39-1.607C3.052 9.436 0 12.492 0 16.263v2.658C0 19.515.479 20 1.077 20h12.556a4.789 4.789 0 0 0 4.798-4.805 4.792 4.792 0 0 0-4.798-4.806zm2.562 5.313v-1.018H14.14v-2.05h-1.016v2.05h-2.048v1.018h2.048v2.057h1.016v-2.057h2.055z" fill="#0B1F47"/>
</svg>
