<?xml version="1.0" encoding="utf-8"?>
<!-- Svg Vector Icons : http://www.onlinewebfonts.com/icon -->
<!DOCTYPE svg PUBLIC "-//W3C//DTD SVG 1.1//EN" "http://www.w3.org/Graphics/SVG/1.1/DTD/svg11.dtd">
<svg version="1.1" xmlns="http://www.w3.org/2000/svg" xmlns:xlink="http://www.w3.org/1999/xlink" x="0px" y="0px" viewBox="0 0 1000 1000" enable-background="new 0 0 1000 1000" xml:space="preserve">
<metadata> Svg Vector Icons : http://www.onlinewebfonts.com/icon </metadata>
<g><path fill="#0A256A"  d="M10,500c0,270.6,219.4,490,490,490c270.6,0,490-219.4,490-490c0-270.6-219.4-490-490-490C229.4,10,10,229.4,10,500z M91.7,500C91.7,274.4,274.4,91.7,500,91.7c225.6,0,408.3,182.8,408.3,408.3c0,225.6-182.8,408.3-408.3,408.3C274.4,908.3,91.7,725.6,91.7,500z"/><path fill="#0A256A"  d="M617.8,357.1c0-18.6-16.4-33.7-36.5-33.7c-20.2,0-36.5,15.1-36.5,33.7v285.8c0.1,18.6,16.4,33.6,36.5,33.6c20.2,0,36.5-15.1,36.5-33.7V357.1z"/><path fill="#0A256A"  d="M455.2,357.1c0-18.6-16.4-33.7-36.5-33.7c-20.2,0-36.5,15.1-36.5,33.7v285.8c0.1,18.6,16.4,33.6,36.5,33.6c20.2,0,36.5-15.1,36.5-33.7V357.1z"/></g>

</svg>
