<?xml version="1.0" encoding="utf-8"?>
<!-- Svg Vector Icons : http://www.onlinewebfonts.com/icon -->
<!DOCTYPE svg PUBLIC "-//W3C//DTD SVG 1.1//EN" "http://www.w3.org/Graphics/SVG/1.1/DTD/svg11.dtd">
<svg version="1.1" xmlns="http://www.w3.org/2000/svg" xmlns:xlink="http://www.w3.org/1999/xlink" x="0px" y="0px" viewBox="0 0 1000 1000" enable-background="new 0 0 1000 1000" xml:space="preserve">
<metadata> Svg Vector Icons : http://www.onlinewebfonts.com/icon </metadata>
<g><path fill="#0A256A" d="M381.8,683.9l307.3-177.4L381.8,316.1V683.9z"/><path fill="#0A256A"  d="M500,10C229.4,10,10,229.4,10,500C10,770.6,229.3,990,500,990c270.7,0,490-219.4,490-490C990,229.4,770.6,10,500,10z M500,892.3c-216.7,0-392.3-175.6-392.3-392.3c0-216.7,175.6-392.3,392.3-392.3c216.7,0,392.3,175.6,392.3,392.3C892.3,716.8,716.7,892.3,500,892.3z"/></g>
<style type="text/css">
	path{fill:#0A256A;}
</style>
</svg>
