<?xml version="1.0" encoding="utf-8"?>
<!-- Generator: Adobe Illustrator 26.0.3, SVG Export Plug-In . SVG Version: 6.00 Build 0)  -->
<svg version="1.1" id="Layer_1" xmlns="http://www.w3.org/2000/svg" xmlns:xlink="http://www.w3.org/1999/xlink" x="0px" y="0px"
	 viewBox="0 0 265.9 256" style="enable-background:new 0 0 265.9 256;" xml:space="preserve">
<style type="text/css">
	.st0{fill:#0A256A;}
	.st1{fill-rule:evenodd;clip-rule:evenodd;fill:#0A256A;}
	.st2{fill:#00246E;}
	.st3{filter:url(#Adobe_OpacityMaskFilter);}
	.st4{fill-rule:evenodd;clip-rule:evenodd;fill:#FFFFFF;}
	.st5{mask:url(#mask-2_00000133504372766920365570000000869489387910414495_);fill-rule:evenodd;clip-rule:evenodd;fill:#0A256A;}
	.st6{filter:url(#Adobe_OpacityMaskFilter_00000000909670989399174430000013695900323132786321_);}
	.st7{mask:url(#mask-2_00000144329366519499576320000005957112603762654105_);fill-rule:evenodd;clip-rule:evenodd;fill:#0A256A;}
	.st8{filter:url(#Adobe_OpacityMaskFilter_00000132059024604825464700000017120254997870273415_);}
	.st9{mask:url(#mask-4_00000140712766783203010850000006926516956759499710_);fill-rule:evenodd;clip-rule:evenodd;fill:#0A256A;}
	.st10{fill:#09266A;}
	.st11{fill:#09256A;}
	.st12{fill-rule:evenodd;clip-rule:evenodd;fill:#09266A;}
	.st13{fill-rule:evenodd;clip-rule:evenodd;fill:#00246E;}
</style>
<g>
	<path class="st2" d="M137.5,32.5v191.1c0,5.2-5.9,8.1-10,5L66.3,182H12.7c-6.2,0-11.2-5-11.2-11.2V85.2C1.5,79,6.5,74,12.7,74h53.6
		l61.2-46.5C131.6,24.4,137.5,27.3,137.5,32.5z"/>
	<g>
		<path class="st2" d="M233.5,191.5c-2,0-4.1-0.8-5.6-2.3c-3.1-3.1-3.1-8.2,0-11.3c13.3-13.3,20.7-31,20.7-49.9s-7.3-36.5-20.7-49.9
			c-3.1-3.1-3.1-8.2,0-11.3c3.1-3.1,8.2-3.1,11.3,0c16.3,16.3,25.3,38,25.3,61.1s-9,44.8-25.3,61.1
			C237.6,190.7,235.5,191.5,233.5,191.5z"/>
		<path class="st2" d="M206.1,178.1c-2,0-4.1-0.8-5.6-2.3c-3.1-3.1-3.1-8.2,0-11.3c20.1-20.1,20.1-52.8,0-72.9
			c-3.1-3.1-3.1-8.2,0-11.3c3.1-3.1,8.2-3.1,11.3,0c26.3,26.3,26.3,69.2,0,95.5C210.2,177.3,208.1,178.1,206.1,178.1z"/>
		<path class="st2" d="M179.5,165.3c-2,0-4.1-0.8-5.6-2.3c-3.1-3.1-3.1-8.2,0-11.3c13-13,13-34.3,0-47.3c-3.1-3.1-3.1-8.2,0-11.3
			c3.1-3.1,8.2-3.1,11.3,0c19.3,19.3,19.3,50.6,0,69.8C183.6,164.5,181.5,165.3,179.5,165.3z"/>
	</g>
</g>
</svg>
