<?xml version="1.0" encoding="utf-8"?>
<!-- Generator: Adobe Illustrator 26.0.3, SVG Export Plug-In . SVG Version: 6.00 Build 0)  -->
<svg version="1.1" id="Layer_1" xmlns="http://www.w3.org/2000/svg" xmlns:xlink="http://www.w3.org/1999/xlink" x="0px" y="0px"
	 viewBox="0 0 256 256" style="enable-background:new 0 0 256 256;" xml:space="preserve">
<style type="text/css">
	.st0{fill:#0A256A;}
	.st1{fill-rule:evenodd;clip-rule:evenodd;fill:#0A256A;}
	.st2{fill:#00246E;}
	.st3{filter:url(#Adobe_OpacityMaskFilter);}
	.st4{fill-rule:evenodd;clip-rule:evenodd;fill:#FFFFFF;}
	.st5{mask:url(#mask-2_00000133504372766920365570000000869489387910414495_);fill-rule:evenodd;clip-rule:evenodd;fill:#0A256A;}
	.st6{filter:url(#Adobe_OpacityMaskFilter_00000097475528507312955480000002174632508873171119_);}
	.st7{mask:url(#mask-2_00000144329366519499576320000005957112603762654105_);fill-rule:evenodd;clip-rule:evenodd;fill:#0A256A;}
	.st8{filter:url(#Adobe_OpacityMaskFilter_00000016050929725269472370000006469617434637121420_);}
	.st9{mask:url(#mask-4_00000140712766783203010850000006926516956759499710_);fill-rule:evenodd;clip-rule:evenodd;fill:#0A256A;}
	.st10{fill:#09266A;}
	.st11{fill:#09256A;}
	.st12{fill-rule:evenodd;clip-rule:evenodd;fill:#09266A;}
	.st13{fill-rule:evenodd;clip-rule:evenodd;fill:#00246E;}
</style>
<g id="Branding_00000162329293894332945550000004520171458304909244_">
	<g id="Icons_00000008147370109975569610000003781668836635173276_" transform="translate(-488.000000, -401.000000)">
		<path id="Path" class="st0" d="M696.7,571.5c0.4,3.8-2.9,7.7-6.6,7.7h-64.9v68.4c0,5.1-4.1,9.4-9.1,9.4c-5,0-9.1-4.3-9.1-9.4
			v-68.4H542c-3.7,0-7-3.4-6.6-7.7c2.5-26.5,16.5-49.6,37.6-63.3v-57.7c-11.2-10.7-19-25.2-21.1-41.5c-0.4-4.3,2.9-8.1,7-8.1h114.2
			c4.1,0,7.9,3.8,7,8.1c-2.1,16.7-9.5,31.2-21.1,41.5v57.7C680.1,521.9,694.2,544.6,696.7,571.5z"/>
	</g>
</g>
</svg>
