<?xml version="1.0" encoding="utf-8"?>
<!-- Generator: Adobe Illustrator 26.0.3, SVG Export Plug-In . SVG Version: 6.00 Build 0)  -->
<svg version="1.1" id="Layer_1" xmlns="http://www.w3.org/2000/svg" xmlns:xlink="http://www.w3.org/1999/xlink" x="0px" y="0px"
	 viewBox="0 0 256 256" style="enable-background:new 0 0 256 256;" xml:space="preserve">
<style type="text/css">
	.st0{fill:#0A256A;}
	.st1{fill-rule:evenodd;clip-rule:evenodd;fill:#0A256A;}
	.st2{fill:#00246E;}
	.st3{filter:url(#Adobe_OpacityMaskFilter);}
	.st4{fill-rule:evenodd;clip-rule:evenodd;fill:#FFFFFF;}
	.st5{mask:url(#mask-2_00000133504372766920365570000000869489387910414495_);fill-rule:evenodd;clip-rule:evenodd;fill:#0A256A;}
	.st6{filter:url(#Adobe_OpacityMaskFilter_00000085234967251013979120000015447587661859944621_);}
	.st7{mask:url(#mask-2_00000144329366519499576320000005957112603762654105_);fill-rule:evenodd;clip-rule:evenodd;fill:#0A256A;}
	.st8{filter:url(#Adobe_OpacityMaskFilter_00000141435567719149651600000012902063776310210228_);}
	.st9{mask:url(#mask-4_00000140712766783203010850000006926516956759499710_);fill-rule:evenodd;clip-rule:evenodd;fill:#0A256A;}
	.st10{fill:#09266A;}
	.st11{fill:#09256A;}
	.st12{fill-rule:evenodd;clip-rule:evenodd;fill:#09266A;}
	.st13{fill-rule:evenodd;clip-rule:evenodd;fill:#00246E;}
</style>
<g>
	<g>
		<g>
			<g>
				<path class="st2" d="M109.8,192.9L109.8,192.9c0.2,1.8-0.4,3.6-1.6,4.9c-1.3,1.4-3.1,2.3-4.5,2.5h-0.8c-3.6,0-6.7-2.9-7-6.5
					L88,81.9c-0.2-1.8,0.4-3.5,1.7-4.9c1.3-1.4,3.1-2.3,5-2.4c3.7,0,7,2.9,7.3,6.5L109.8,192.9z"/>
			</g>
		</g>
		<g>
			<g>
				<path class="st2" d="M167.7,81.7l-7.8,111.8c-0.3,3.7-3.4,6.6-7,6.6h-0.7c-1.8-0.1-3.5-0.8-4.6-2.2c-1.3-1.4-1.8-3.3-1.7-5.3
					l7.8-111.8c0.3-3.5,3.7-6.6,7.1-6.6h0.3C165,74.6,168,78,167.7,81.7z"/>
			</g>
		</g>
	</g>
	<g>
		<path class="st2" d="M247.8,25.3h-69.5V20c0-6.4-5.3-11.7-11.7-11.7H89.3c-3.2,0-6.1,1.2-8.3,3.4c-2.2,2.3-3.4,5.2-3.4,8.3v5.3
			H7.9c-3.8,0-6.9,3.2-6.9,7c0,3.8,3.2,6.9,6.9,6.9h15.2l21.8,181.3c1.9,15.5,15.1,27.1,30.6,27.1h104.9c15.6,0,28.7-11.6,30.6-27.1
			l21.8-181.3h15.2c3.8,0,6.9-3.2,6.9-6.9C254.9,28.6,251.5,25.3,247.8,25.3z M197.1,218.7c-0.9,8.4-8.2,15-16.7,15H75.6
			c-8.5,0-15.8-6.6-16.7-15.1L37.4,39.2h181.2L197.1,218.7z"/>
	</g>
</g>
</svg>
