<?xml version="1.0" encoding="utf-8"?>
<!-- Generator: Adobe Illustrator 26.0.3, SVG Export Plug-In . SVG Version: 6.00 Build 0)  -->
<svg version="1.1" id="Layer_1" xmlns="http://www.w3.org/2000/svg" xmlns:xlink="http://www.w3.org/1999/xlink" x="0px" y="0px"
	 viewBox="0 0 343.2 256" style="enable-background:new 0 0 343.2 256;" xml:space="preserve">
<style type="text/css">
	.st0{fill:#0A256A;}
	.st1{fill-rule:evenodd;clip-rule:evenodd;fill:#0A256A;}
	.st2{fill:#00246E;}
	.st3{filter:url(#Adobe_OpacityMaskFilter);}
	.st4{fill-rule:evenodd;clip-rule:evenodd;fill:#FFFFFF;}
	.st5{mask:url(#mask-2_00000133504372766920365570000000869489387910414495_);fill-rule:evenodd;clip-rule:evenodd;fill:#0A256A;}
	.st6{filter:url(#Adobe_OpacityMaskFilter_00000098218801888065337450000004895381358943616650_);}
	.st7{mask:url(#mask-2_00000144329366519499576320000005957112603762654105_);fill-rule:evenodd;clip-rule:evenodd;fill:#0A256A;}
	.st8{filter:url(#Adobe_OpacityMaskFilter_00000129178724849403165460000014799327077876018612_);}
	.st9{mask:url(#mask-4_00000140712766783203010850000006926516956759499710_);fill-rule:evenodd;clip-rule:evenodd;fill:#0A256A;}
	.st10{fill:#09266A;}
	.st11{fill:#09256A;}
	.st12{fill-rule:evenodd;clip-rule:evenodd;fill:#09266A;}
	.st13{fill-rule:evenodd;clip-rule:evenodd;fill:#00246E;}
</style>
<g>
	<path class="st2" d="M269.1,59.7c-17.9,0-32.4,14.5-32.4,32.4s14.5,32.4,32.4,32.4s32.4-14.5,32.4-32.4
		C301.4,74.2,287,59.8,269.1,59.7z"/>
	<g>
		<path class="st2" d="M172.4,11.4c-27.1,0-49.2,22-49.2,49.2s22,49.2,49.2,49.2s49.2-22,49.2-49.2
			C221.3,33.5,199.5,11.6,172.4,11.4z"/>
		<path class="st2" d="M172.4,118c45.2,0,81.8,36.6,81.8,81.8v31.9c0,7.1-5.8,12.9-12.9,12.9H103.5c-7.1,0-12.9-5.8-12.9-12.9v-31.9
			C90.6,154.6,127.2,118,172.4,118z"/>
	</g>
	<path class="st2" d="M277.8,141.7c36.9,0,66.8,29.9,66.8,66.8c0,0.1,0,0.3,0,0.4v22.8c0,7.1-5.8,12.9-12.9,12.9h-60.3
		c1.5-4.2,2.2-8.5,2.2-12.9v-31.9c0-19.3-5.2-38.2-15.1-54.7C264.7,143,271.2,141.9,277.8,141.7z"/>
	<path class="st2" d="M43.1,92.1c0,17.9,14.5,32.4,32.4,32.4s32.4-14.5,32.4-32.4S93.4,59.7,75.5,59.7
		C57.6,59.8,43.2,74.2,43.1,92.1z"/>
	<path class="st2" d="M86.1,145.1c-9.9,16.5-15.1,35.4-15.1,54.7v31.9c0,4.4,0.7,8.8,2.2,12.9H12.9c-7.1,0-12.9-5.8-12.9-12.9
		l0-22.8c0-0.1,0-0.3,0-0.4c0-36.9,29.9-66.8,66.8-66.8C73.3,141.9,79.9,143,86.1,145.1z"/>
</g>
</svg>
