<?xml version="1.0" encoding="utf-8"?>
<!-- Generator: Adobe Illustrator 26.0.3, SVG Export Plug-In . SVG Version: 6.00 Build 0)  -->
<svg version="1.1" id="Layer_1" xmlns="http://www.w3.org/2000/svg" xmlns:xlink="http://www.w3.org/1999/xlink" x="0px" y="0px"
	 viewBox="0 0 256 256" style="enable-background:new 0 0 256 256;" xml:space="preserve">
<style type="text/css">
	.st0{fill:#0A256A;}
	.st1{fill-rule:evenodd;clip-rule:evenodd;fill:#0A256A;}
	.st2{fill:#00246E;}
	.st3{filter:url(#Adobe_OpacityMaskFilter);}
	.st4{fill-rule:evenodd;clip-rule:evenodd;fill:#FFFFFF;}
	.st5{mask:url(#mask-2_00000133504372766920365570000000869489387910414495_);fill-rule:evenodd;clip-rule:evenodd;fill:#0A256A;}
	.st6{filter:url(#Adobe_OpacityMaskFilter_00000053503971986317539640000009961681592586190467_);}
	.st7{mask:url(#mask-2_00000144329366519499576320000005957112603762654105_);fill-rule:evenodd;clip-rule:evenodd;fill:#0A256A;}
	.st8{filter:url(#Adobe_OpacityMaskFilter_00000059997987234477045570000010374193683077661577_);}
	.st9{mask:url(#mask-4_00000140712766783203010850000006926516956759499710_);fill-rule:evenodd;clip-rule:evenodd;fill:#0A256A;}
	.st10{fill:#09266A;}
	.st11{fill:#09256A;}
	.st12{fill-rule:evenodd;clip-rule:evenodd;fill:#09266A;}
	.st13{fill-rule:evenodd;clip-rule:evenodd;fill:#00246E;}
</style>
<g>
	<path class="st2" d="M92.3,118.1H23.6C10.6,118.1,0,107.5,0,94.4V25.8C0,12.7,10.6,2.1,23.6,2.1h68.7c13.1,0,23.6,10.6,23.6,23.6
		v68.7C115.9,107.5,105.4,118.1,92.3,118.1z"/>
	<path class="st2" d="M232.4,118.1h-68.7c-13.1,0-23.6-10.6-23.6-23.6V25.8c0-13.1,10.6-23.6,23.6-23.6h68.7
		c13.1,0,23.6,10.6,23.6,23.6v68.7C256,107.5,245.4,118.1,232.4,118.1z"/>
	<path class="st2" d="M92.3,253.9H23.6C10.6,253.9,0,243.3,0,230.2v-68.7c0-13.1,10.6-23.6,23.6-23.6h68.7
		c13.1,0,23.6,10.6,23.6,23.6v68.7C115.9,243.3,105.4,253.9,92.3,253.9z"/>
	<path class="st2" d="M232.4,253.9h-68.7c-13.1,0-23.6-10.6-23.6-23.6v-68.7c0-13.1,10.6-23.6,23.6-23.6h68.7
		c13.1,0,23.6,10.6,23.6,23.6v68.7C256,243.3,245.4,253.9,232.4,253.9z"/>
</g>
</svg>
