<?xml version="1.0" encoding="utf-8"?>
<!-- Generator: Adobe Illustrator 26.0.3, SVG Export Plug-In . SVG Version: 6.00 Build 0)  -->
<svg version="1.1" id="Layer_1" xmlns="http://www.w3.org/2000/svg" xmlns:xlink="http://www.w3.org/1999/xlink" x="0px" y="0px"
	 viewBox="0 0 256 256" style="enable-background:new 0 0 256 256;" xml:space="preserve">
<style type="text/css">
	.st0{fill:#0A256A;}
	.st1{fill-rule:evenodd;clip-rule:evenodd;fill:#0A256A;}
	.st2{fill:#00246E;}
	.st3{filter:url(#Adobe_OpacityMaskFilter);}
	.st4{fill-rule:evenodd;clip-rule:evenodd;fill:#FFFFFF;}
	.st5{mask:url(#mask-2_00000133504372766920365570000000869489387910414495_);fill-rule:evenodd;clip-rule:evenodd;fill:#0A256A;}
	.st6{filter:url(#Adobe_OpacityMaskFilter_00000134958477127321449130000003795569582489739702_);}
	.st7{mask:url(#mask-2_00000144329366519499576320000005957112603762654105_);fill-rule:evenodd;clip-rule:evenodd;fill:#0A256A;}
	.st8{filter:url(#Adobe_OpacityMaskFilter_00000147931570476594060550000010265335667873483652_);}
	.st9{mask:url(#mask-4_00000140712766783203010850000006926516956759499710_);fill-rule:evenodd;clip-rule:evenodd;fill:#0A256A;}
	.st10{fill:#09266A;}
	.st11{fill:#09256A;}
	.st12{fill-rule:evenodd;clip-rule:evenodd;fill:#09266A;}
	.st13{fill-rule:evenodd;clip-rule:evenodd;fill:#00246E;}
</style>
<g id="Branding_00000129173539679335100160000012589715848984219306_">
	<g id="Icons_00000067956105935915069220000006446997469557548195_" transform="translate(-605.000000, -406.000000)">
		<path id="Shape" class="st0" d="M830.1,493.9h-19.4v-8.5c0-43.7-35.2-77.8-77.6-77.8s-77.6,34-77.6,77.8v8.5h-19.4
			c-13.3,0-23.1,10.9-23.1,23.1v121.9c0,12.2,10.9,23.1,23.1,23.1h194.1c13.3,0,23.1-10.9,23.1-23.1V517
			C853.1,503.7,842.2,493.9,830.1,493.9z M690.5,485.4c0-23.1,19.4-42.5,42.5-42.5s42.5,19.4,42.5,42.5v8.5h-84.9L690.5,485.4z"/>
	</g>
</g>
</svg>
