<?xml version="1.0" encoding="utf-8"?>
<!-- Generator: Adobe Illustrator 26.0.3, SVG Export Plug-In . SVG Version: 6.00 Build 0)  -->
<svg version="1.1" id="Layer_1" xmlns="http://www.w3.org/2000/svg" xmlns:xlink="http://www.w3.org/1999/xlink" x="0px" y="0px"
	 viewBox="0 0 256 256" style="enable-background:new 0 0 256 256;" xml:space="preserve">
<style type="text/css">
	.st0{fill:#0A256A;}
	.st1{fill-rule:evenodd;clip-rule:evenodd;fill:#0A256A;}
	.st2{fill:#00246E;}
	.st3{filter:url(#Adobe_OpacityMaskFilter);}
	.st4{fill-rule:evenodd;clip-rule:evenodd;fill:#FFFFFF;}
	.st5{mask:url(#mask-2_00000133504372766920365570000000869489387910414495_);fill-rule:evenodd;clip-rule:evenodd;fill:#0A256A;}
	.st6{filter:url(#Adobe_OpacityMaskFilter_00000001654439454560652700000016240604264405018524_);}
	.st7{mask:url(#mask-2_00000144329366519499576320000005957112603762654105_);fill-rule:evenodd;clip-rule:evenodd;fill:#0A256A;}
	.st8{filter:url(#Adobe_OpacityMaskFilter_00000008853257675901890480000000526420906629365153_);}
	.st9{mask:url(#mask-4_00000140712766783203010850000006926516956759499710_);fill-rule:evenodd;clip-rule:evenodd;fill:#0A256A;}
	.st10{fill:#09266A;}
	.st11{fill:#09256A;}
	.st12{fill-rule:evenodd;clip-rule:evenodd;fill:#09266A;}
	.st13{fill-rule:evenodd;clip-rule:evenodd;fill:#00246E;}
</style>
<g id="Branding_00000103978940367130770470000001133374578636321417_">
	<g id="Icons_00000150092989647889672860000017375979925652579001_" transform="translate(-849.000000, -400.000000)">
		<path id="Path_00000029731097802684942610000011729353639281604764_" class="st1" d="M994.7,590.1c10.2-7.6,21.9-15.6,32.4-10.2
			c14,7.3,27.9,14.6,41.9,21.6c11.4,6,15.5,12.7,8.9,24.5c-10.5,19.1-38.1,34.7-59,28.6c-90.7-25.8-152.2-112-145.3-208.1
			c1.6-21.6,25.7-42.6,46.9-46.1c13.3-2.2,18.4,4.1,20,16.9c1.9,15.6,3.8,31.5,5.7,47.1c1.6,11.8-9.8,20-20.3,27
			C900.5,509.3,969.3,607.9,994.7,590.1z"/>
	</g>
</g>
</svg>
