<?xml version="1.0" encoding="utf-8"?>
<!-- Generator: Adobe Illustrator 26.0.3, SVG Export Plug-In . SVG Version: 6.00 Build 0)  -->
<svg version="1.1" id="Layer_1" xmlns="http://www.w3.org/2000/svg" xmlns:xlink="http://www.w3.org/1999/xlink" x="0px" y="0px"
	 viewBox="0 0 256 256" style="enable-background:new 0 0 256 256;" xml:space="preserve">
<style type="text/css">
	.st0{fill:#0A256A;}
	.st1{fill-rule:evenodd;clip-rule:evenodd;fill:#0A256A;}
	.st2{fill:#00246E;}
	.st3{filter:url(#Adobe_OpacityMaskFilter);}
	.st4{fill-rule:evenodd;clip-rule:evenodd;fill:#FFFFFF;}
	.st5{mask:url(#mask-2_00000133504372766920365570000000869489387910414495_);fill-rule:evenodd;clip-rule:evenodd;fill:#0A256A;}
	.st6{filter:url(#Adobe_OpacityMaskFilter_00000003784326388430669500000015190246124046288551_);}
	.st7{mask:url(#mask-2_00000144329366519499576320000005957112603762654105_);fill-rule:evenodd;clip-rule:evenodd;fill:#0A256A;}
	.st8{filter:url(#Adobe_OpacityMaskFilter_00000079451008494073857360000001127362766309701817_);}
	.st9{mask:url(#mask-4_00000140712766783203010850000006926516956759499710_);fill-rule:evenodd;clip-rule:evenodd;fill:#0A256A;}
	.st10{fill:#09266A;}
	.st11{fill:#09256A;}
	.st12{fill-rule:evenodd;clip-rule:evenodd;fill:#09266A;}
	.st13{fill-rule:evenodd;clip-rule:evenodd;fill:#00246E;}
</style>
<g id="Icons_00000044164700476656607210000005744682290373263799_" transform="translate(-408.000000, -629.000000)">
	<path id="Combined-Shape-Copy_00000126282447441367907740000017694688306663915160_" class="st2" d="M536,631.8
		c69.4,0,125.2,55.8,125.2,125.2S605.4,882.2,536,882.2S410.8,826.4,410.8,757S466.6,631.8,536,631.8z M536,652.7
		c-57.4,0-104.3,46.9-104.3,104.3S478.6,861.3,536,861.3S640.3,814.4,640.3,757S593.4,652.7,536,652.7z M546.4,789.9v19.3h-19.8
		v-19.3H546.4z M535,710.6c9.9,0,18.3,2.6,25,7.3c6.8,4.7,9.9,12,9.9,21.4c0,5.7-1.6,10.4-4.2,14.6c-1.6,2.6-4.7,5.2-9.9,9.4
		l-4.7,3.7c-2.6,2.1-4.2,4.2-5.2,6.8c-0.5,1.6-1,4.2-1,7.8h-17.7c0.5-7.3,1-12.5,2.1-15.6c1-3.1,4.2-6.3,8.9-9.9l4.7-3.7
		c1.6-1,3.1-2.6,3.7-3.7c1.6-2.6,2.6-5.2,2.6-7.8c0-3.1-1-6.3-3.1-9.4c-2.1-3.1-5.7-4.2-11-4.2c-5.2,0-8.9,1.6-11,5.2
		c-2.1,3.7-3.1,6.8-3.1,10.4h-19.3c0.5-12.5,4.7-21.4,13-26.6C520.9,712.1,527.7,710.6,535,710.6z"/>
</g>
</svg>
