<?xml version="1.0" encoding="utf-8"?>
<!-- Generator: Adobe Illustrator 26.0.3, SVG Export Plug-In . SVG Version: 6.00 Build 0)  -->
<svg version="1.1" id="Layer_1" xmlns="http://www.w3.org/2000/svg" xmlns:xlink="http://www.w3.org/1999/xlink" x="0px" y="0px"
	 viewBox="0 0 256 256" style="enable-background:new 0 0 256 256;" xml:space="preserve">
<style type="text/css">
	.st0{fill:#0A256A;}
	.st1{fill-rule:evenodd;clip-rule:evenodd;fill:#0A256A;}
	.st2{fill:#00246E;}
	.st3{filter:url(#Adobe_OpacityMaskFilter);}
	.st4{fill-rule:evenodd;clip-rule:evenodd;fill:#FFFFFF;}
	.st5{mask:url(#mask-2_00000133504372766920365570000000869489387910414495_);fill-rule:evenodd;clip-rule:evenodd;fill:#0A256A;}
	.st6{filter:url(#Adobe_OpacityMaskFilter_00000033352891813803526180000001164016620251748287_);}
	.st7{mask:url(#mask-2_00000144329366519499576320000005957112603762654105_);fill-rule:evenodd;clip-rule:evenodd;fill:#0A256A;}
	.st8{filter:url(#Adobe_OpacityMaskFilter_00000123406135545228146380000003898653826117639552_);}
	.st9{mask:url(#mask-4_00000140712766783203010850000006926516956759499710_);fill-rule:evenodd;clip-rule:evenodd;fill:#0A256A;}
	.st10{fill:#09266A;}
	.st11{fill:#09256A;}
	.st12{fill-rule:evenodd;clip-rule:evenodd;fill:#09266A;}
	.st13{fill-rule:evenodd;clip-rule:evenodd;fill:#00246E;}
</style>
<g>
	<g id="Icons_00000047033421023842476500000007844571900486765726_" transform="translate(-408.000000, -629.000000)">
		<path id="Combined-Shape-Copy_00000086653491437016093430000014176130027893653409_" class="st2" d="M536,631.3
			c69.7,0,125.7,56,125.7,125.7s-56,125.7-125.7,125.7s-125.7-56-125.7-125.7S466.3,631.3,536,631.3z M536,652.3
			c-57.6,0-104.7,47.1-104.7,104.7S478.4,861.7,536,861.7S640.7,814.6,640.7,757S593.6,652.3,536,652.3z"/>
	</g>
	<g>
		<circle class="st2" cx="133" cy="75.2" r="15.1"/>
		<path class="st2" d="M125.1,195.9c-12.9,0-22.3-12.2-18.7-24.4l12.9-43.1c1.4-5-2.2-9.3-7.2-9.3h-6.5c3.6-10.8,13.6-18,25.1-18
			c12.9,0,22.3,12.2,18.7,24.4l-12.9,43.1c-1.4,5,2.2,9.3,7.2,9.3h6.5C146.7,188.7,136.6,195.9,125.1,195.9z"/>
	</g>
</g>
</svg>
