<?xml version="1.0" encoding="utf-8"?>
<!-- Generator: Adobe Illustrator 26.0.3, SVG Export Plug-In . SVG Version: 6.00 Build 0)  -->
<svg version="1.1" id="Layer_1" xmlns="http://www.w3.org/2000/svg" xmlns:xlink="http://www.w3.org/1999/xlink" x="0px" y="0px"
	 viewBox="0 0 256 256" style="enable-background:new 0 0 256 256;" xml:space="preserve">
<style type="text/css">
	.st0{fill:#0A256A;}
	.st1{fill-rule:evenodd;clip-rule:evenodd;fill:#0A256A;}
	.st2{fill:#00246E;}
	.st3{filter:url(#Adobe_OpacityMaskFilter);}
	.st4{fill-rule:evenodd;clip-rule:evenodd;fill:#FFFFFF;}
	.st5{mask:url(#mask-2_00000133504372766920365570000000869489387910414495_);fill-rule:evenodd;clip-rule:evenodd;fill:#0A256A;}
	.st6{filter:url(#Adobe_OpacityMaskFilter_00000021809163363216446320000015831584321109248951_);}
	.st7{mask:url(#mask-2_00000144329366519499576320000005957112603762654105_);fill-rule:evenodd;clip-rule:evenodd;fill:#0A256A;}
	.st8{filter:url(#Adobe_OpacityMaskFilter_00000080198217864587844890000005364759862686870692_);}
	.st9{mask:url(#mask-4_00000140712766783203010850000006926516956759499710_);fill-rule:evenodd;clip-rule:evenodd;fill:#0A256A;}
	.st10{fill:#09266A;}
	.st11{fill:#09256A;}
	.st12{fill-rule:evenodd;clip-rule:evenodd;fill:#09266A;}
	.st13{fill-rule:evenodd;clip-rule:evenodd;fill:#00246E;}
</style>
<g>
	<path class="st2" d="M256,75.1v108c0,7.4-8.1,12-14.5,8.4l-37.4-21.6V190c0,9.6-7.8,17.3-17.3,17.3H40.6l-24.2,20.6
		c-4.1,3.5-10.3,2.8-13.9-1.4c-3.1-3.6-3.3-8.7-0.7-12.3c0.4-0.6,1-1.2,1.5-1.8l10.7-9.1L192,52L220,28.1c0.6-0.5,1.2-0.9,1.9-1.2
		c3.9-2,8.9-1,12,2.7c1.7,2,2.5,4.4,2.5,6.7c0,2.7-1.1,5.4-3.3,7.3l-29,24.7v20.4L241.5,67C247.9,63.4,255.7,68,256,75.1z"/>
	<path class="st2" d="M162.1,51.2L7.8,182.4V68.5c0-9.6,7.7-17.3,17.3-17.3H162.1z"/>
</g>
</svg>
