<?xml version="1.0" encoding="utf-8"?>
<!-- Generator: Adobe Illustrator 26.0.3, SVG Export Plug-In . SVG Version: 6.00 Build 0)  -->
<svg version="1.1" id="Layer_1" xmlns="http://www.w3.org/2000/svg" xmlns:xlink="http://www.w3.org/1999/xlink" x="0px" y="0px"
	 viewBox="0 0 256 256" style="enable-background:new 0 0 256 256;" xml:space="preserve">
<style type="text/css">
	.st0{fill:#0A256A;}
	.st1{fill-rule:evenodd;clip-rule:evenodd;fill:#0A256A;}
	.st2{fill:#00246E;}
	.st3{filter:url(#Adobe_OpacityMaskFilter);}
	.st4{fill-rule:evenodd;clip-rule:evenodd;fill:#FFFFFF;}
	.st5{mask:url(#mask-2_00000133504372766920365570000000869489387910414495_);fill-rule:evenodd;clip-rule:evenodd;fill:#0A256A;}
	.st6{filter:url(#Adobe_OpacityMaskFilter_00000038391470944886702870000010438214143756949144_);}
	.st7{mask:url(#mask-2_00000144329366519499576320000005957112603762654105_);fill-rule:evenodd;clip-rule:evenodd;fill:#0A256A;}
	.st8{filter:url(#Adobe_OpacityMaskFilter_00000124156095054715395620000014674111626585935539_);}
	.st9{mask:url(#mask-4_00000140712766783203010850000006926516956759499710_);fill-rule:evenodd;clip-rule:evenodd;fill:#0A256A;}
	.st10{fill:#09266A;}
	.st11{fill:#09256A;}
	.st12{fill-rule:evenodd;clip-rule:evenodd;fill:#09266A;}
	.st13{fill-rule:evenodd;clip-rule:evenodd;fill:#00246E;}
</style>
<g id="Branding_00000142854775542562744920000012631129045496948363_">
	<g id="Icons_00000160880285297016101660000004343534757723484800_" transform="translate(-1118.000000, -402.000000)">
		<path id="Combined-Shape_00000134955116301944785590000001275720448292617138_" class="st1" d="M1312.1,402
			c21.3,0,38.6,16.9,38.6,37.8c0,20.9-17.3,37.8-38.6,37.8c-7.9,0-15.2-2.3-21.3-6.3l-73.5,50.8c0.8,3,1.2,6.1,1.2,9.3
			c0,3.5-0.5,6.9-1.4,10.2l71.1,49.1c6.3-4.9,14.1-7.9,22.6-8.2l1.4,0c21.3,0,38.6,16.9,38.6,37.8c0,20.9-17.3,37.8-38.6,37.8
			c-21.3,0-38.6-16.9-38.6-37.8c0-4.1,0.7-8,1.9-11.7l-70.3-48.6c-6.8,5.7-15.6,9.2-25.2,9.2c-21.3,0-38.6-16.9-38.6-37.8
			c0-20.9,17.3-37.8,38.6-37.8c10,0,19,3.7,25.9,9.8l70.8-48.9c-2-4.5-3-9.5-3-14.7C1273.5,418.9,1290.8,402,1312.1,402z"/>
	</g>
</g>
</svg>
