<?xml version="1.0" encoding="utf-8"?>
<!-- Generator: Adobe Illustrator 26.0.3, SVG Export Plug-In . SVG Version: 6.00 Build 0)  -->
<svg version="1.1" id="Layer_1" xmlns="http://www.w3.org/2000/svg" xmlns:xlink="http://www.w3.org/1999/xlink" x="0px" y="0px"
	 viewBox="0 0 256 256" style="enable-background:new 0 0 256 256;" xml:space="preserve">
<style type="text/css">
	.st0{fill:#0A256A;}
	.st1{fill-rule:evenodd;clip-rule:evenodd;fill:#0A256A;}
	.st2{fill:#00246E;}
	.st3{filter:url(#Adobe_OpacityMaskFilter);}
	.st4{fill-rule:evenodd;clip-rule:evenodd;fill:#FFFFFF;}
	.st5{mask:url(#mask-2_00000133504372766920365570000000869489387910414495_);fill-rule:evenodd;clip-rule:evenodd;fill:#0A256A;}
	.st6{filter:url(#Adobe_OpacityMaskFilter_00000170248161438899612600000009759177024201597593_);}
	.st7{mask:url(#mask-2_00000144329366519499576320000005957112603762654105_);fill-rule:evenodd;clip-rule:evenodd;fill:#0A256A;}
	.st8{filter:url(#Adobe_OpacityMaskFilter_00000083048678893673825700000006201110274300457117_);}
	.st9{mask:url(#mask-4_00000140712766783203010850000006926516956759499710_);fill-rule:evenodd;clip-rule:evenodd;fill:#0A256A;}
	.st10{fill:#09266A;}
	.st11{fill:#09256A;}
	.st12{fill-rule:evenodd;clip-rule:evenodd;fill:#09266A;}
	.st13{fill-rule:evenodd;clip-rule:evenodd;fill:#00246E;}
</style>
<path class="st13" d="M209.4,248.4V7.8c0-3.4-2.5-6.4-6.4-6.4H52.9c-3.4,0-6.4,3-6.4,6.4v240.6h0.1c0.1,3.4,2.9,6.1,6.3,6.1h150.1
	c0.1,0,0.2-0.1,0.3-0.1c0.6,0,1.2-0.2,1.8-0.4c0.2-0.1,0.3-0.1,0.5-0.2c0.6-0.3,1.1-0.6,1.6-1.1c0.1-0.1,0.3-0.2,0.4-0.4
	c0.2-0.3,0.4-0.6,0.6-0.9c0.3-0.5,0.6-1.1,0.8-1.7C209.4,249.6,209.4,248.8,209.4,248.4z M171.8,125.7c0,1.3-0.5,2.4-1.4,3.3
	c-1.8,1.8-4.8,1.8-6.6,0l-14.6-14.2v37.7c0,2.6-2.1,4.7-4.7,4.7c-1.2,0-2.4-0.5-3.3-1.4c-0.9-0.9-1.4-2-1.4-3.3v-37.7L124.7,129
	c-1.8,1.8-4.8,1.8-6.6,0.1c-1.8-1.9-1.7-4.9,0.1-6.6l23.1-22.2c0.7-0.7,1.6-1.2,2.4-1.3h0.5c0.1-0.1,0.3,0,0.3,0h0.8
	c1,0.2,1.9,0.6,2.7,1.5l22.4,22.1C171.3,123.3,171.8,124.5,171.8,125.7z M164.6,14.1L88.5,39.5c-2.5,0.8-4.2,3.3-4.2,5.9v165.4
	c0,3,2.1,5.5,4.7,5.9l75.2,25.2H59.3V14.1H164.6z"/>
</svg>
