<?xml version="1.0" encoding="utf-8"?>
<!-- Generator: Adobe Illustrator 26.0.3, SVG Export Plug-In . SVG Version: 6.00 Build 0)  -->
<svg version="1.1" id="Layer_1" xmlns="http://www.w3.org/2000/svg" xmlns:xlink="http://www.w3.org/1999/xlink" x="0px" y="0px"
	 viewBox="0 0 256 256" style="enable-background:new 0 0 256 256;" xml:space="preserve">
<style type="text/css">
	.st0{fill:#0A256A;}
	.st1{fill-rule:evenodd;clip-rule:evenodd;fill:#0A256A;}
	.st2{fill:#00246E;}
	.st3{filter:url(#Adobe_OpacityMaskFilter);}
	.st4{fill-rule:evenodd;clip-rule:evenodd;fill:#FFFFFF;}
	.st5{mask:url(#mask-2_00000133504372766920365570000000869489387910414495_);fill-rule:evenodd;clip-rule:evenodd;fill:#0A256A;}
	.st6{filter:url(#Adobe_OpacityMaskFilter_00000109729037143927929790000003133279395926949508_);}
	.st7{mask:url(#mask-2_00000144329366519499576320000005957112603762654105_);fill-rule:evenodd;clip-rule:evenodd;fill:#0A256A;}
	.st8{filter:url(#Adobe_OpacityMaskFilter_00000007408664585969925290000013259270804238021005_);}
	.st9{mask:url(#mask-4_00000140712766783203010850000006926516956759499710_);fill-rule:evenodd;clip-rule:evenodd;fill:#0A256A;}
	.st10{fill:#09266A;}
	.st11{fill:#09256A;}
	.st12{fill-rule:evenodd;clip-rule:evenodd;fill:#09266A;}
	.st13{fill-rule:evenodd;clip-rule:evenodd;fill:#00246E;}
</style>
<g>
	<path class="st2" d="M218.3,22.3c8.5,0,15.4,6.9,15.4,15.4v180.6c0,8.5-6.9,15.4-15.4,15.4H37.7c-8.5,0-15.4-6.9-15.4-15.4V37.7
		c0-8.5,6.9-15.4,15.4-15.4H218.3 M218.3,1.1H37.7C17.5,1.1,1.1,17.5,1.1,37.7v180.6c0,20.2,16.4,36.7,36.7,36.7h180.6
		c20.2,0,36.7-16.4,36.7-36.7V37.7C254.9,17.5,238.5,1.1,218.3,1.1L218.3,1.1z"/>
	<path class="st2" d="M109.2,191.1c-3.4,0-6.5-1.3-8.8-3.8l-38-36c-4.3-4-4.5-10.8-0.4-15c4-4.3,10.8-4.4,15-0.4l31,29.3l69.8-95.9
		c3.5-4.8,10.1-5.8,14.9-2.3c4.8,3.5,5.8,10.1,2.3,14.9l-75.9,104.3c-2.2,3.1-5.7,4.9-9.5,5C109.4,191.1,109.3,191.1,109.2,191.1z
		 M101.9,173.6C101.9,173.6,101.8,173.6,101.9,173.6L101.9,173.6z"/>
</g>
</svg>
