<?xml version="1.0" encoding="utf-8"?>
<!-- Generator: Adobe Illustrator 26.0.3, SVG Export Plug-In . SVG Version: 6.00 Build 0)  -->
<svg version="1.1" id="Layer_1" xmlns="http://www.w3.org/2000/svg" xmlns:xlink="http://www.w3.org/1999/xlink" x="0px" y="0px"
	 viewBox="0 0 256 256" style="enable-background:new 0 0 256 256;" xml:space="preserve">
<style type="text/css">
	.st0{fill:#0A256A;}
	.st1{fill-rule:evenodd;clip-rule:evenodd;fill:#0A256A;}
	.st2{fill:#00246E;}
	.st3{filter:url(#Adobe_OpacityMaskFilter);}
	.st4{fill-rule:evenodd;clip-rule:evenodd;fill:#FFFFFF;}
	.st5{mask:url(#mask-2_00000133504372766920365570000000869489387910414495_);fill-rule:evenodd;clip-rule:evenodd;fill:#0A256A;}
	.st6{filter:url(#Adobe_OpacityMaskFilter_00000130615170913634315160000008158656219963313064_);}
	.st7{mask:url(#mask-2_00000144329366519499576320000005957112603762654105_);fill-rule:evenodd;clip-rule:evenodd;fill:#0A256A;}
	.st8{filter:url(#Adobe_OpacityMaskFilter_00000104665773359745970550000008012187790276786600_);}
	.st9{mask:url(#mask-4_00000140712766783203010850000006926516956759499710_);fill-rule:evenodd;clip-rule:evenodd;fill:#0A256A;}
	.st10{fill:#09266A;}
	.st11{fill:#09256A;}
	.st12{fill-rule:evenodd;clip-rule:evenodd;fill:#09266A;}
	.st13{fill-rule:evenodd;clip-rule:evenodd;fill:#00246E;}
</style>
<g>
	<path class="st11" d="M243.3,172.5c3.3,0,6.3,1.4,8.5,3.5c2.1,2.2,3.4,5.3,3.4,8.6V241c0,0.7-0.1,1.5-0.2,2.1l-0.2,1l0,0
		c-1.1,5.5-6,9.7-11.8,9.7H12.9c-6.2,0-11.3-4.7-11.9-10.8c-0.2-0.7-0.2-1.4-0.2-2.2v-56.4c0-6.7,5.4-12,12-12
		c3.3,0,6.3,1.4,8.5,3.5c2.2,2.2,3.5,5.2,3.5,8.5v45.2h206.4v-45.2C231.2,177.9,236.7,172.5,243.3,172.5z"/>
	<g>
		<path class="st11" d="M195.4,126.2l-59.4,59.5c-1.7,1.7-3.9,2.9-6.5,3.2l-1.4,0.1l-1.9-0.2c-2.4-0.3-4.5-1.4-6.6-3.5l-59-59.1
			c-2.2-2.1-3.3-5-3.3-8.1c0-3.1,1.2-6,3.3-8.1c2.2-2.2,5.1-3.3,8-3.3c2.9,0,5.9,1.1,8.1,3.3l40,40.1V13.5c0-6.3,5.1-11.4,11.3-11.4
			c3,0,5.9,1.2,8.1,3.3c2.2,2.2,3.3,4.9,3.3,8.1v136.6l40-40.1c4.5-4.4,11.7-4.4,16.1-0.1C199.9,114.6,199.8,121.9,195.4,126.2z"/>
	</g>
</g>
</svg>
