<?xml version="1.0" encoding="utf-8"?>
<!-- Generator: Adobe Illustrator 26.0.3, SVG Export Plug-In . SVG Version: 6.00 Build 0)  -->
<svg version="1.1" id="Layer_1" xmlns="http://www.w3.org/2000/svg" xmlns:xlink="http://www.w3.org/1999/xlink" x="0px" y="0px"
	 viewBox="0 0 256 256" style="enable-background:new 0 0 256 256;" xml:space="preserve">
<style type="text/css">
	.st0{fill:#0A256A;}
	.st1{fill-rule:evenodd;clip-rule:evenodd;fill:#0A256A;}
	.st2{fill:#00246E;}
	.st3{filter:url(#Adobe_OpacityMaskFilter);}
	.st4{fill-rule:evenodd;clip-rule:evenodd;fill:#FFFFFF;}
	.st5{mask:url(#mask-2_00000133504372766920365570000000869489387910414495_);fill-rule:evenodd;clip-rule:evenodd;fill:#0A256A;}
	.st6{filter:url(#Adobe_OpacityMaskFilter_00000054225748608816710330000018280721433993074346_);}
	.st7{mask:url(#mask-2_00000144329366519499576320000005957112603762654105_);fill-rule:evenodd;clip-rule:evenodd;fill:#0A256A;}
	.st8{filter:url(#Adobe_OpacityMaskFilter_00000173156507572369896590000008996266343536017066_);}
	.st9{mask:url(#mask-4_00000140712766783203010850000006926516956759499710_);fill-rule:evenodd;clip-rule:evenodd;fill:#0A256A;}
	.st10{fill:#09266A;}
	.st11{fill:#09256A;}
	.st12{fill-rule:evenodd;clip-rule:evenodd;fill:#09266A;}
	.st13{fill-rule:evenodd;clip-rule:evenodd;fill:#00246E;}
</style>
<g>
	<path class="st2" d="M217,39c-22.6-22.6-54.2-36.9-89-36.9C58.5,2.1,2.1,58.5,2.1,128v125.9H128c34.8,0,66.4-14.2,89-36.9
		s36.9-54.2,36.9-89C253.9,93.2,239.6,61.6,217,39z M202.3,202.3c-19,19-45.3,31.1-74.3,31.1H22.7V128C22.7,70.1,70.1,22.7,128,22.7
		c29,0,55.3,11.6,74.3,31.1c19,19.5,31.1,45.3,31.1,74.3S221.2,183.3,202.3,202.3z"/>
	<g>
		<rect x="117.5" y="159.1" class="st2" width="20" height="19.5"/>
		<rect x="117.5" y="78.5" class="st2" width="20" height="71.1"/>
	</g>
</g>
</svg>
