<?xml version="1.0" encoding="utf-8"?>
<!-- Generator: Adobe Illustrator 26.0.3, SVG Export Plug-In . SVG Version: 6.00 Build 0)  -->
<svg version="1.1" id="Layer_1" xmlns="http://www.w3.org/2000/svg" xmlns:xlink="http://www.w3.org/1999/xlink" x="0px" y="0px"
	 viewBox="0 0 256 256" style="enable-background:new 0 0 256 256;" xml:space="preserve">
<style type="text/css">
	.st0{fill:#0A256A;}
	.st1{fill-rule:evenodd;clip-rule:evenodd;fill:#0A256A;}
	.st2{fill:#00246E;}
	.st3{filter:url(#Adobe_OpacityMaskFilter);}
	.st4{fill-rule:evenodd;clip-rule:evenodd;fill:#FFFFFF;}
	.st5{mask:url(#mask-2_00000133504372766920365570000000869489387910414495_);fill-rule:evenodd;clip-rule:evenodd;fill:#0A256A;}
	.st6{filter:url(#Adobe_OpacityMaskFilter_00000018202544907463518020000004831894601577164675_);}
	.st7{mask:url(#mask-2_00000144329366519499576320000005957112603762654105_);fill-rule:evenodd;clip-rule:evenodd;fill:#0A256A;}
	.st8{filter:url(#Adobe_OpacityMaskFilter_00000038370700936967303410000012877319662803651493_);}
	.st9{mask:url(#mask-4_00000140712766783203010850000006926516956759499710_);fill-rule:evenodd;clip-rule:evenodd;fill:#0A256A;}
	.st10{fill:#09266A;}
	.st11{fill:#09256A;}
	.st12{fill-rule:evenodd;clip-rule:evenodd;fill:#09266A;}
	.st13{fill-rule:evenodd;clip-rule:evenodd;fill:#00246E;}
</style>
<g>
	<path class="st2" d="M163.9,33.3C162.2,14.6,146.5,0,127.4,0c-20.2,0-36.6,16.4-36.6,36.6v82.7c0,2.3,0.3,4.7,0.7,6.9L163.9,33.3z"
		/>
	<path class="st2" d="M127.4,155.9c20.2-0.1,36.6-16.4,36.6-36.6V98.7l63-81c3.6-4.6,2.9-11.1-1.5-14.5c-4-3.1-9.8-2.6-13.5,1
		L212,4.4c-0.3,0.3-0.6,0.6-0.9,1L164,65.8L102,145.5l-17.2,22.1l-12.6,16.2l-43.2,55.5c-0.3,0.4-0.6,0.9-0.9,1.3l-0.2,0.2
		c-0.9,1.6-1.3,3.4-1.3,5.1c0,3,1.3,6,3.8,7.9c4.4,3.4,10.9,2.5,14.4-2.1l44.3-56.9c7.6,3.7,15.9,6.4,24.7,7.8l3.4,0.5v42.5
		c0,5.6,4.6,10.2,10.2,10.2c5.6,0,10.2-4.6,10.2-10.2v-42.5l3.4-0.5c41.9-6.7,72.3-42.3,72.3-84.7c0-5.6-4.6-10.2-10.2-10.2
		c-5.6,0-10.2,4.6-10.2,10.2c0,36.1-29.4,65.5-65.5,65.5c-9,0-17.6-1.8-25.4-5.2l18.1-23.3C122.5,155.6,124.9,155.9,127.4,155.9z"/>
	<path class="st2" d="M71.5,152c-6.1-9.9-9.5-21.6-9.5-34c0-5.6-4.6-10.2-10.2-10.2c-5.6,0-10.2,4.6-10.2,10.2
		c0.1,19,6.1,36.6,16.7,50.9L71.5,152z"/>
</g>
</svg>
