<?xml version="1.0" encoding="utf-8"?>
<!-- Generator: Adobe Illustrator 26.0.3, SVG Export Plug-In . SVG Version: 6.00 Build 0)  -->
<svg version="1.1" id="Layer_1" xmlns="http://www.w3.org/2000/svg" xmlns:xlink="http://www.w3.org/1999/xlink" x="0px" y="0px"
	 viewBox="0 0 256 256" style="enable-background:new 0 0 256 256;" xml:space="preserve">
<style type="text/css">
	.st0{fill:#0A256A;}
	.st1{fill-rule:evenodd;clip-rule:evenodd;fill:#0A256A;}
	.st2{fill:#00246E;}
	.st3{filter:url(#Adobe_OpacityMaskFilter);}
	.st4{fill-rule:evenodd;clip-rule:evenodd;fill:#FFFFFF;}
	.st5{mask:url(#mask-2_00000133504372766920365570000000869489387910414495_);fill-rule:evenodd;clip-rule:evenodd;fill:#0A256A;}
	.st6{filter:url(#Adobe_OpacityMaskFilter_00000003065087383479174510000003789421621920427426_);}
	.st7{mask:url(#mask-2_00000144329366519499576320000005957112603762654105_);fill-rule:evenodd;clip-rule:evenodd;fill:#0A256A;}
	.st8{filter:url(#Adobe_OpacityMaskFilter_00000021804673973872176330000007133443182484422293_);}
	.st9{mask:url(#mask-4_00000140712766783203010850000006926516956759499710_);fill-rule:evenodd;clip-rule:evenodd;fill:#0A256A;}
	.st10{fill:#09266A;}
	.st11{fill:#09256A;}
	.st12{fill-rule:evenodd;clip-rule:evenodd;fill:#09266A;}
	.st13{fill-rule:evenodd;clip-rule:evenodd;fill:#00246E;}
</style>
<g>
	<path class="st2" d="M233.6,24.9c0,44.3-10.3,65.5-26.2,92.5c-10.5,17.6-10.9,29.2-11.2,45.8V243c0,5.8-4.4,10.9-10.6,11.2H36.3
		c-7.7,0-14-6.3-14-14v-34.5c0-39.4,25.7-72.8,61.2-84.3c8.4,3.5,17.7,5.4,27.4,5.4c7.3,0,14.5-1.1,21.1-3.2
		c2.1-0.6,4.2-1.4,6.2-2.2c15.5-6.4,28.3-18,36.1-32.7c10-14.9,15-34.9,14.4-68.6c0-5.1,2.1-9.7,5.4-13c3.3-3.4,8-5.4,13.1-5.4h8.8
		c9.7,0,17.6,7.9,17.6,17.5C233.6,21.2,233.6,23.1,233.6,24.9z"/>
	<path class="st2" d="M110.9,1.8C81.5,1.8,57.8,25.6,57.8,55c0,29.4,23.8,53.2,53.2,53.2c29.4,0,53.2-23.8,53.2-53.2
		C163.9,25.7,140.3,1.9,110.9,1.8z"/>
	<path class="st2" d="M110.9,1.8C81.5,1.8,57.8,25.6,57.8,55c0,29.4,23.8,53.2,53.2,53.2c29.4,0,53.2-23.8,53.2-53.2
		C163.9,25.7,140.3,1.9,110.9,1.8z"/>
</g>
</svg>
