<?xml version="1.0" encoding="utf-8"?>
<!-- Generator: Adobe Illustrator 26.0.3, SVG Export Plug-In . SVG Version: 6.00 Build 0)  -->
<svg version="1.1" id="Layer_1" xmlns="http://www.w3.org/2000/svg" xmlns:xlink="http://www.w3.org/1999/xlink" x="0px" y="0px"
	 viewBox="0 0 256 256" style="enable-background:new 0 0 256 256;" xml:space="preserve">
<style type="text/css">
	.st0{fill:#0A256A;}
	.st1{fill-rule:evenodd;clip-rule:evenodd;fill:#0A256A;}
	.st2{fill:#00246E;}
	.st3{filter:url(#Adobe_OpacityMaskFilter);}
	.st4{fill-rule:evenodd;clip-rule:evenodd;fill:#FFFFFF;}
	.st5{mask:url(#mask-2_00000133504372766920365570000000869489387910414495_);fill-rule:evenodd;clip-rule:evenodd;fill:#0A256A;}
	.st6{filter:url(#Adobe_OpacityMaskFilter_00000040559166166616232290000005118155598192462472_);}
	.st7{mask:url(#mask-2_00000144329366519499576320000005957112603762654105_);fill-rule:evenodd;clip-rule:evenodd;fill:#0A256A;}
	.st8{filter:url(#Adobe_OpacityMaskFilter_00000181052358404215631930000001502668956805337994_);}
	.st9{mask:url(#mask-4_00000140712766783203010850000006926516956759499710_);fill-rule:evenodd;clip-rule:evenodd;fill:#0A256A;}
	.st10{fill:#09266A;}
	.st11{fill:#09256A;}
	.st12{fill-rule:evenodd;clip-rule:evenodd;fill:#09266A;}
	.st13{fill-rule:evenodd;clip-rule:evenodd;fill:#00246E;}
</style>
<g id="Branding_00000094595684061591132710000011655751085289012909_">
	<g id="Icons_00000042715915837188978140000009842766981783096211_" transform="translate(-221.000000, -400.000000)">
		<path id="Combined-Shape_00000093166373949426197950000013434780615443129772_" class="st0" d="M374.1,623.4
			c0.6,2.1,0.8,4.2,0.8,6.3c0,13.5-11.7,24.6-25.9,24.6s-25.9-11.1-25.9-24.6c0-2.4,0.3-4.2,0.8-6.3l0,0H374.1z M349.3,401.7
			c10.3,0,18.9,8.2,18.9,18l0,0v13.7c27.6,6.1,61,25.9,61,73.2c0,60.8,22.3,83.8,22.6,84.1c1.4,1.6,2.2,3.4,2.5,5.6l0,0v16.7H243.7
			v-16.7l0.2-0.9c0.4-1.7,1.2-3.3,2.6-4.7c0.3,0,22.6-23,22.6-83.8c0-47.6,33.4-67.1,61-73.2l0,0v-14
			C330.1,409.8,339,401.7,349.3,401.7z"/>
	</g>
</g>
</svg>
