<?xml version="1.0" encoding="utf-8"?>
<!-- Generator: Adobe Illustrator 26.0.3, SVG Export Plug-In . SVG Version: 6.00 Build 0)  -->
<svg version="1.1" id="Layer_1" xmlns="http://www.w3.org/2000/svg" xmlns:xlink="http://www.w3.org/1999/xlink" x="0px" y="0px"
	 viewBox="0 0 256 256" style="enable-background:new 0 0 256 256;" xml:space="preserve">
<style type="text/css">
	.st0{fill:#0A256A;}
	.st1{fill-rule:evenodd;clip-rule:evenodd;fill:#0A256A;}
	.st2{fill:#00246E;}
	.st3{filter:url(#Adobe_OpacityMaskFilter);}
	.st4{fill-rule:evenodd;clip-rule:evenodd;fill:#FFFFFF;}
	.st5{mask:url(#mask-2_00000133504372766920365570000000869489387910414495_);fill-rule:evenodd;clip-rule:evenodd;fill:#0A256A;}
	.st6{filter:url(#Adobe_OpacityMaskFilter_00000177484755479229700680000010803543203415727773_);}
	.st7{mask:url(#mask-2_00000144329366519499576320000005957112603762654105_);fill-rule:evenodd;clip-rule:evenodd;fill:#0A256A;}
	.st8{filter:url(#Adobe_OpacityMaskFilter_00000080902703357283200510000010283994127283254700_);}
	.st9{mask:url(#mask-4_00000140712766783203010850000006926516956759499710_);fill-rule:evenodd;clip-rule:evenodd;fill:#0A256A;}
	.st10{fill:#09266A;}
	.st11{fill:#09256A;}
	.st12{fill-rule:evenodd;clip-rule:evenodd;fill:#09266A;}
	.st13{fill-rule:evenodd;clip-rule:evenodd;fill:#00246E;}
</style>
<g>
	<g id="Icons_00000057144436166207336330000017418937333558783897_" transform="translate(-408.000000, -629.000000)">
		<path id="Combined-Shape-Copy_00000004512794830836385430000005513448986356571315_" class="st2" d="M536,629.5
			c70.6,0,127.5,56.8,127.5,127.5S606.6,884.5,536,884.5S408.5,827.6,408.5,757S465.4,629.5,536,629.5z M536,650.8
			c-58.4,0-106.2,47.8-106.2,106.2S477.6,863.2,536,863.2S642.2,815.4,642.2,757S594.4,650.8,536,650.8z"/>
	</g>
	<path class="st2" d="M171.9,155.7L144.2,128l27.7-27.7c2.8-2.8,2.8-7.3,0-10.1l-6.1-6.1c-2.8-2.8-7.3-2.8-10.1,0L128,111.8
		l-27.7-27.7c-2.8-2.8-7.3-2.8-10.1,0l-6.1,6.1c-2.8,2.8-2.8,7.3,0,10.1l27.7,27.7l-27.7,27.7c-2.8,2.8-2.8,7.3,0,10.1l6.1,6.1
		c2.8,2.8,7.3,2.8,10.1,0l27.7-27.7l27.7,27.7c2.8,2.8,7.3,2.8,10.1,0l6.1-6.1C174.6,163,174.6,158.5,171.9,155.7z"/>
</g>
</svg>
