<?xml version="1.0" encoding="utf-8"?>
<!-- Generator: Adobe Illustrator 26.0.3, SVG Export Plug-In . SVG Version: 6.00 Build 0)  -->
<svg version="1.1" id="Layer_1" xmlns="http://www.w3.org/2000/svg" xmlns:xlink="http://www.w3.org/1999/xlink" x="0px" y="0px"
	 viewBox="0 0 256 256" style="enable-background:new 0 0 256 256;" xml:space="preserve">
<style type="text/css">
	.st0{fill:#0A256A;}
	.st1{fill-rule:evenodd;clip-rule:evenodd;fill:#0A256A;}
	.st2{fill:#00246E;}
	.st3{filter:url(#Adobe_OpacityMaskFilter);}
	.st4{fill-rule:evenodd;clip-rule:evenodd;fill:#FFFFFF;}
	.st5{mask:url(#mask-2_00000133504372766920365570000000869489387910414495_);fill-rule:evenodd;clip-rule:evenodd;fill:#0A256A;}
	.st6{filter:url(#Adobe_OpacityMaskFilter_00000060738294940349002810000001146993985185023653_);}
	.st7{mask:url(#mask-2_00000144329366519499576320000005957112603762654105_);fill-rule:evenodd;clip-rule:evenodd;fill:#0A256A;}
	.st8{filter:url(#Adobe_OpacityMaskFilter_00000026852845308107397310000007461403989373695421_);}
	.st9{mask:url(#mask-4_00000140712766783203010850000006926516956759499710_);fill-rule:evenodd;clip-rule:evenodd;fill:#0A256A;}
	.st10{fill:#09266A;}
	.st11{fill:#09256A;}
	.st12{fill-rule:evenodd;clip-rule:evenodd;fill:#09266A;}
	.st13{fill-rule:evenodd;clip-rule:evenodd;fill:#00246E;}
</style>
<g id="Branding_00000013185524559387632960000018127969547089807783_">
	<g id="Icons_00000029751976298530823650000006382384193077310382_" transform="translate(-1762.000000, -642.000000)">
		<path id="Combined-Shape_00000008828170272620897610000011892263762573795517_" class="st12" d="M1792.1,741
			c16.2,0,29.4,13,29.4,29s-13.1,29-29.4,29s-29.4-13-29.4-29S1775.9,741,1792.1,741z M1890,741c16.2,0,29.4,13,29.4,29
			s-13.1,29-29.4,29s-29.4-13-29.4-29S1873.8,741,1890,741z M1987.9,741c16.2,0,29.4,13,29.4,29s-13.1,29-29.4,29s-29.4-13-29.4-29
			S1971.6,741,1987.9,741z"/>
	</g>
</g>
</svg>
