<?xml version="1.0" encoding="utf-8"?>
<!-- Generator: Adobe Illustrator 26.0.3, SVG Export Plug-In . SVG Version: 6.00 Build 0)  -->
<svg version="1.1" id="Layer_1" xmlns="http://www.w3.org/2000/svg" xmlns:xlink="http://www.w3.org/1999/xlink" x="0px" y="0px"
	 viewBox="0 0 256 256" style="enable-background:new 0 0 256 256;" xml:space="preserve">
<style type="text/css">
	.st0{fill:#0A256A;}
	.st1{fill-rule:evenodd;clip-rule:evenodd;fill:#0A256A;}
	.st2{fill:#00246E;}
	.st3{filter:url(#Adobe_OpacityMaskFilter);}
	.st4{fill-rule:evenodd;clip-rule:evenodd;fill:#FFFFFF;}
	.st5{mask:url(#mask-2_00000133504372766920365570000000869489387910414495_);fill-rule:evenodd;clip-rule:evenodd;fill:#0A256A;}
	.st6{filter:url(#Adobe_OpacityMaskFilter_00000032631928953125244870000002730485595713259174_);}
	.st7{mask:url(#mask-2_00000144329366519499576320000005957112603762654105_);fill-rule:evenodd;clip-rule:evenodd;fill:#0A256A;}
	.st8{filter:url(#Adobe_OpacityMaskFilter_00000021093660482321941970000016154937711692430215_);}
	.st9{mask:url(#mask-4_00000140712766783203010850000006926516956759499710_);fill-rule:evenodd;clip-rule:evenodd;fill:#0A256A;}
	.st10{fill:#09266A;}
	.st11{fill:#09256A;}
	.st12{fill-rule:evenodd;clip-rule:evenodd;fill:#09266A;}
	.st13{fill-rule:evenodd;clip-rule:evenodd;fill:#00246E;}
</style>
<g id="Branding_00000074401292587429007580000015053873572056118953_">
	<g id="Icons_00000021839999812627512840000014822971477077139850_" transform="translate(-727.000000, -405.000000)">
		<path id="Fill-1" class="st1" d="M946.9,503.9h-18.3v-24.5c0-41-33.3-72.7-73.5-72.7c-25.4,0-47.9,12.6-61.2,32.2
			c-6,8.9-0.7,21.1,9.8,23.6l2.2,0.5c6.4,1.5,12.7-1.4,16.5-6.7c7.4-10,19.3-16.6,32.6-16.6c21.9,0,40.3,18,40.3,39.7v24.5H763.1
			c-12.7,0-21.9,10.2-21.9,21.5v114c0,11.8,9.9,21.5,21.9,21.5h183.8c12.7,0,21.9-10.2,21.9-21.5v-114
			C968.8,513,958.4,503.9,946.9,503.9"/>
	</g>
</g>
</svg>
