<?xml version="1.0" encoding="utf-8"?>
<!-- Generator: Adobe Illustrator 26.0.3, SVG Export Plug-In . SVG Version: 6.00 Build 0)  -->
<svg version="1.1" id="Layer_1" xmlns="http://www.w3.org/2000/svg" xmlns:xlink="http://www.w3.org/1999/xlink" x="0px" y="0px"
	 viewBox="0 0 256 256" style="enable-background:new 0 0 256 256;" xml:space="preserve">
<style type="text/css">
	.st0{fill:#0A256A;}
	.st1{fill-rule:evenodd;clip-rule:evenodd;fill:#0A256A;}
	.st2{fill:#00246E;}
	.st3{filter:url(#Adobe_OpacityMaskFilter);}
	.st4{fill-rule:evenodd;clip-rule:evenodd;fill:#FFFFFF;}
	.st5{mask:url(#mask-2_00000133504372766920365570000000869489387910414495_);fill-rule:evenodd;clip-rule:evenodd;fill:#0A256A;}
	.st6{filter:url(#Adobe_OpacityMaskFilter_00000137851288720333986170000010612957364845880965_);}
	.st7{mask:url(#mask-2_00000144329366519499576320000005957112603762654105_);fill-rule:evenodd;clip-rule:evenodd;fill:#0A256A;}
	.st8{filter:url(#Adobe_OpacityMaskFilter_00000018920957671542052710000017642245933246555801_);}
	.st9{mask:url(#mask-4_00000140712766783203010850000006926516956759499710_);fill-rule:evenodd;clip-rule:evenodd;fill:#0A256A;}
	.st10{fill:#09266A;}
	.st11{fill:#09256A;}
	.st12{fill-rule:evenodd;clip-rule:evenodd;fill:#09266A;}
	.st13{fill-rule:evenodd;clip-rule:evenodd;fill:#00246E;}
</style>
<g>
	<path class="st2" d="M250.9,149.6L229.3,128l21.6-21.6c3.9-3.9,3.9-10.3,0-14.2l0,0c-3.9-3.9-10.3-3.9-14.2,0l-21.6,21.6
		l-21.6-21.6c-3.9-3.9-10.3-3.9-14.2,0l0,0c-3.9,3.9-3.9,10.3,0,14.2L201,128l-21.6,21.6c-3.9,3.9-3.9,10.3,0,14.2l0,0
		c3.9,3.9,10.3,3.9,14.2,0l21.6-21.6l21.6,21.6c3.9,3.9,10.3,3.9,14.2,0h0C254.8,159.8,254.8,153.5,250.9,149.6z"/>
	<path class="st2" d="M138.2,32.5v191.1c0,5.2-5.9,8.1-10,5L67,182H13.4c-6.2,0-11.2-5-11.2-11.2V85.2C2.2,79,7.2,74,13.4,74H67
		l61.2-46.5C132.3,24.4,138.2,27.3,138.2,32.5z"/>
</g>
</svg>
