<?xml version="1.0" encoding="utf-8"?>
<!-- Generator: Adobe Illustrator 26.0.3, SVG Export Plug-In . SVG Version: 6.00 Build 0)  -->
<svg version="1.1" id="Layer_1" xmlns="http://www.w3.org/2000/svg" xmlns:xlink="http://www.w3.org/1999/xlink" x="0px" y="0px"
	 viewBox="0 0 256 256" style="enable-background:new 0 0 256 256;" xml:space="preserve">
<style type="text/css">
	.st0{fill:#0A256A;}
	.st1{fill-rule:evenodd;clip-rule:evenodd;fill:#0A256A;}
	.st2{fill:#00246E;}
	.st3{filter:url(#Adobe_OpacityMaskFilter);}
	.st4{fill-rule:evenodd;clip-rule:evenodd;fill:#FFFFFF;}
	.st5{mask:url(#mask-2_00000133504372766920365570000000869489387910414495_);fill-rule:evenodd;clip-rule:evenodd;fill:#0A256A;}
	.st6{filter:url(#Adobe_OpacityMaskFilter_00000023247457703249340420000015490669967369221310_);}
	.st7{mask:url(#mask-2_00000144329366519499576320000005957112603762654105_);fill-rule:evenodd;clip-rule:evenodd;fill:#0A256A;}
	.st8{filter:url(#Adobe_OpacityMaskFilter_00000170252641927613273010000005326216196317230723_);}
	.st9{mask:url(#mask-4_00000140712766783203010850000006926516956759499710_);fill-rule:evenodd;clip-rule:evenodd;fill:#0A256A;}
	.st10{fill:#09266A;}
	.st11{fill:#09256A;}
	.st12{fill-rule:evenodd;clip-rule:evenodd;fill:#09266A;}
	.st13{fill-rule:evenodd;clip-rule:evenodd;fill:#00246E;}
</style>
<g id="Branding_00000052106471244026547950000003277555826925533851_">
	<g id="Icons_00000121981859588587590070000010235980536135944119_" transform="translate(-976.000000, -413.000000)">
		<path id="Fill-1_00000043417844773060844930000014899106700917235113_" class="st1" d="M1050,542.9c0.4,11.5,0.2,24.3-9.2,29.3
			c-12.6,6.6-25.1,13.1-37.4,19.9c-10.3,5.3-17.3,4.9-22.6-6.1c-8.6-17.7-5.8-46.2,9.4-58.6c65.6-54,160.6-55,227.5,0
			c15.1,12.4,18,41.2,9.7,58.7c-5.2,11-12.5,11.5-22.7,6.1c-12.4-6.7-25.1-13.5-37.5-20.2c-9.5-4.9-9.6-17.7-9.4-29.1
			C1157.9,514.9,1050,514.8,1050,542.9"/>
	</g>
</g>
</svg>
