<?xml version="1.0" encoding="utf-8"?>
<!-- Generator: Adobe Illustrator 26.0.3, SVG Export Plug-In . SVG Version: 6.00 Build 0)  -->
<svg version="1.1" id="Layer_1" xmlns="http://www.w3.org/2000/svg" xmlns:xlink="http://www.w3.org/1999/xlink" x="0px" y="0px"
	 viewBox="0 0 256 256" style="enable-background:new 0 0 256 256;" xml:space="preserve">
<style type="text/css">
	.st0{fill:#0A256A;}
	.st1{fill-rule:evenodd;clip-rule:evenodd;fill:#0A256A;}
	.st2{fill:#00246E;}
	.st3{filter:url(#Adobe_OpacityMaskFilter);}
	.st4{fill-rule:evenodd;clip-rule:evenodd;fill:#FFFFFF;}
	.st5{mask:url(#mask-2_00000133504372766920365570000000869489387910414495_);fill-rule:evenodd;clip-rule:evenodd;fill:#0A256A;}
	.st6{filter:url(#Adobe_OpacityMaskFilter_00000164480917247619369540000006563432637969011356_);}
	.st7{mask:url(#mask-2_00000144329366519499576320000005957112603762654105_);fill-rule:evenodd;clip-rule:evenodd;fill:#0A256A;}
	.st8{filter:url(#Adobe_OpacityMaskFilter_00000005989545921698878250000006417683500296038537_);}
	.st9{mask:url(#mask-4_00000140712766783203010850000006926516956759499710_);fill-rule:evenodd;clip-rule:evenodd;fill:#0A256A;}
	.st10{fill:#09266A;}
	.st11{fill:#09256A;}
	.st12{fill-rule:evenodd;clip-rule:evenodd;fill:#09266A;}
	.st13{fill-rule:evenodd;clip-rule:evenodd;fill:#00246E;}
</style>
<g>
	<g id="Icons_00000065773809584917617420000008958104044693660857_" transform="translate(-408.000000, -629.000000)">
		<path id="Combined-Shape-Copy_00000048463018342921254810000015670925276677540739_" class="st2" d="M536,630
			c-70.4,0-127,56.6-127,127c0,70.4,56.6,127,127,127c70.4,0,127-56.6,127-127C663,686.6,606.4,630,536,630z M593.4,719.9l-70,96.1
			c-2.4,3.2-6,5.1-10,5.2H513c-3.5,0-6.8-1.4-9.2-3.9l-33.9-32.1c-4.5-4.2-4.7-11.3-0.4-15.8c4.2-4.5,11.3-4.7,15.7-0.4l26.6,25.1
			l63.6-87.4c3.7-5,10.6-6.1,15.6-2.4C595.9,707.9,597,714.9,593.4,719.9z"/>
	</g>
</g>
</svg>
