<svg width="12" height="14" viewBox="0 0 12 14" xmlns="http://www.w3.org/2000/svg">
    <path d="M9.936.2C11.076.2 12 1.098 12 2.206c0 1.109-.924 2.007-2.064 2.007-.42 0-.812-.122-1.139-.332L4.866 6.579a1.958 1.958 0 0 1-.013 1.035l3.8 2.608a2.089 2.089 0 0 1 1.129-.43l.154-.005c1.14 0 2.064.898 2.064 2.007 0 1.108-.924 2.006-2.064 2.006-1.14 0-2.065-.898-2.065-2.006 0-.217.036-.426.101-.622l-3.758-2.58a2.091 2.091 0 0 1-1.35.488C1.725 9.08.8 8.18.8 7.073s.924-2.006 2.065-2.006a2.09 2.09 0 0 1 1.384.518l3.784-2.598a1.952 1.952 0 0 1-.162-.78C7.871 1.097 8.796.2 9.936.2z" fill="#0A256A" fill-rule="evenodd"/>
</svg>
