<?xml version="1.0" encoding="utf-8"?>
<!-- Generator: Adobe Illustrator 26.0.3, SVG Export Plug-In . SVG Version: 6.00 Build 0)  -->
<svg version="1.1" xmlns="http://www.w3.org/2000/svg" xmlns:xlink="http://www.w3.org/1999/xlink" x="0px" y="0px"
	 viewBox="0 0 256 256" style="enable-background:new 0 0 256 256;" xml:space="preserve">
<style type="text/css">
	.st0{fill:#FFFFFF;}
	.st1{fill-rule:evenodd;clip-rule:evenodd;fill:#FFFFFF;}
	.st2{filter:url(#Adobe_OpacityMaskFilter);}
	.st3{mask:url(#mask-2_00000133504372766920365570000000869489387910414495_);fill-rule:evenodd;clip-rule:evenodd;fill:#FFFFFF;}
	.st4{filter:url(#Adobe_OpacityMaskFilter_00000057139049720293763980000007887299212008238236_);}
	.st5{mask:url(#mask-2_00000144329366519499576320000005957112603762654105_);fill-rule:evenodd;clip-rule:evenodd;fill:#FFFFFF;}
	.st6{filter:url(#Adobe_OpacityMaskFilter_00000086692977171638121590000011119268854469905063_);}
	.st7{mask:url(#mask-4_00000140712766783203010850000006926516956759499710_);fill-rule:evenodd;clip-rule:evenodd;fill:#FFFFFF;}
</style>
<g id="Layer_2">
</g>
<g id="Layer_1">
	<g>
		<g>
			<g id="Icons_00000010305671751196404240000015576753054280229795_" transform="translate(-408.000000, -629.000000)">
				<path id="Combined-Shape-Copy_00000162336763868779368910000007013562434808283523_" class="st0" d="M536,630
					c70.4,0,127,56.6,127,127s-56.6,127-127,127s-127-56.6-127-127S465.6,630,536,630z M536,651.2c-58.2,0-105.8,47.6-105.8,105.8
					S477.8,862.8,536,862.8S641.8,815.2,641.8,757S594.2,651.2,536,651.2z"/>
			</g>
		</g>
		<path class="st0" d="M106,189.3c-3.3,0-6.5-1.3-8.7-3.7L65,155c-4.2-4-4.4-10.7-0.4-15c4-4.2,10.7-4.4,15-0.4l25.2,23.8l60.4-83
			c3.4-4.7,10.1-5.8,14.8-2.3c4.7,3.4,5.8,10.1,2.3,14.8l-66.4,91.3c-2.3,3.1-5.7,4.9-9.5,5C106.2,189.3,106.1,189.3,106,189.3z"/>
	</g>
</g>
</svg>
