<?xml version="1.0" encoding="utf-8"?>
<!-- Generator: Adobe Illustrator 26.0.3, SVG Export Plug-In . SVG Version: 6.00 Build 0)  -->
<svg version="1.1" xmlns="http://www.w3.org/2000/svg" xmlns:xlink="http://www.w3.org/1999/xlink" x="0px" y="0px"
	 viewBox="0 0 256 256" style="enable-background:new 0 0 256 256;" xml:space="preserve">
<style type="text/css">
	.st0{fill:#FFFFFF;}
	.st1{fill-rule:evenodd;clip-rule:evenodd;fill:#FFFFFF;}
	.st2{filter:url(#Adobe_OpacityMaskFilter);}
	.st3{mask:url(#mask-2_00000133504372766920365570000000869489387910414495_);fill-rule:evenodd;clip-rule:evenodd;fill:#FFFFFF;}
	.st4{filter:url(#Adobe_OpacityMaskFilter_00000083782544758144021190000006442519183600362921_);}
	.st5{mask:url(#mask-2_00000144329366519499576320000005957112603762654105_);fill-rule:evenodd;clip-rule:evenodd;fill:#FFFFFF;}
	.st6{filter:url(#Adobe_OpacityMaskFilter_00000152244883775980191400000009280905917746001282_);}
	.st7{mask:url(#mask-4_00000140712766783203010850000006926516956759499710_);fill-rule:evenodd;clip-rule:evenodd;fill:#FFFFFF;}
</style>
<g id="Layer_2">
</g>
<g id="Layer_1">
	<g>
		<path class="st0" d="M222.9,30.4H33.1c-10.9,0-19.8,8.9-19.8,19.8v127.4c0,10.9,8.9,19.8,19.8,19.8h189.7
			c10.9,0,19.8-8.9,19.8-19.8V50.2C242.7,39.3,233.8,30.4,222.9,30.4z M224.9,177.7c0,1.1-0.9,2.1-2.1,2.1h-74.3
			c1.3-1.2,2.1-2.9,2.1-4.8v-16.2c0-23-18.7-41.7-41.7-41.7c-23,0-41.7,18.7-41.7,41.7v16.2c0,1.9,0.8,3.6,2.1,4.8H33.1
			c-1.1,0-2.1-0.9-2.1-2.1V50.2c0-1.1,0.9-2.1,2.1-2.1h189.7c1.1,0,2.1,0.9,2.1,2.1V177.7z"/>
		<path class="st0" d="M246,225.6H10c-4.9,0-8.9-4-8.9-8.9c0-4.9,4-8.9,8.9-8.9h236c4.9,0,8.9,4,8.9,8.9
			C254.8,221.6,250.9,225.6,246,225.6z"/>
		<g>
			<g>
				<path class="st0" d="M109,62.7c-13.8,0-25,11.2-25,25s11.2,25,25,25s25-11.2,25-25C134,73.9,122.8,62.7,109,62.7z"/>
			</g>
			<path class="st0" d="M187,108.1l-12.3-12.3L187,83.4c2.2-2.2,2.2-5.9,0-8.1l0,0c-2.2-2.2-5.9-2.2-8.1,0l-12.3,12.3l-12.3-12.3
				c-2.2-2.2-5.9-2.2-8.1,0v0c-2.2,2.2-2.2,5.9,0,8.1l12.3,12.3l-12.3,12.3c-2.2,2.2-2.2,5.9,0,8.1l0,0c2.2,2.2,5.9,2.2,8.1,0
				l12.3-12.3l12.3,12.3c2.2,2.2,5.9,2.2,8.1,0l0,0C189.2,114,189.2,110.4,187,108.1z"/>
		</g>
	</g>
</g>
</svg>
