<?xml version="1.0" encoding="utf-8"?>
<!-- Generator: Adobe Illustrator 26.0.3, SVG Export Plug-In . SVG Version: 6.00 Build 0)  -->
<svg version="1.1" xmlns="http://www.w3.org/2000/svg" xmlns:xlink="http://www.w3.org/1999/xlink" x="0px" y="0px"
	 viewBox="0 0 256 256" style="enable-background:new 0 0 256 256;" xml:space="preserve">
<style type="text/css">
	.st0{fill:#FFFFFF;}
	.st1{fill-rule:evenodd;clip-rule:evenodd;fill:#FFFFFF;}
	.st2{filter:url(#Adobe_OpacityMaskFilter);}
	.st3{mask:url(#mask-2_00000133504372766920365570000000869489387910414495_);fill-rule:evenodd;clip-rule:evenodd;fill:#FFFFFF;}
	.st4{filter:url(#Adobe_OpacityMaskFilter_00000171707331175752703390000001860275352252017851_);}
	.st5{mask:url(#mask-2_00000144329366519499576320000005957112603762654105_);fill-rule:evenodd;clip-rule:evenodd;fill:#FFFFFF;}
	.st6{filter:url(#Adobe_OpacityMaskFilter_00000178921419583490251630000013722516869407020678_);}
	.st7{mask:url(#mask-4_00000140712766783203010850000006926516956759499710_);fill-rule:evenodd;clip-rule:evenodd;fill:#FFFFFF;}
</style>
<g id="Layer_2">
</g>
<g id="Layer_1">
	<g id="Branding">
		<g id="Icons" transform="translate(-87.000000, -405.000000)">
			<path id="Combined-Shape" class="st0" d="M241.9,483.9c4.2,0,7.6,3.8,7.6,8.3l0,0V592c0,2.1-0.8,4.1-2.2,5.6
				c-1.4,1.5-3.4,2.3-5.4,2.2l0,0h-96.8l-26.8,34c-6.2,7.8-11.3,6-11.3-4.2l0,0v-29.9H94.6c-2,0-3.9-0.8-5.4-2.2
				c-1.4-1.5-2.2-3.5-2.2-5.6l0,0v-99.8c0-4.4,3.4-8.3,7.6-8.3l0,0H241.9z M331.8,427.3c6.2,0,11.2,5.4,11.2,12l0,0v111
				c0,6.5-5,11.5-11.2,11.5l0,0H322l0.1,29c0,10.2-5,12.2-11.2,4.4l0,0l-26.4-33.4h-19v-69.6c0-13.8-10.6-25.2-23.6-25.2l0,0H162
				v-27.7c0.1-6.6,5.2-11.9,11.4-12l0,0H331.8z"/>
		</g>
	</g>
</g>
</svg>
