<?xml version="1.0" encoding="utf-8"?>
<!-- Generator: Adobe Illustrator 26.0.3, SVG Export Plug-In . SVG Version: 6.00 Build 0)  -->
<svg version="1.1" xmlns="http://www.w3.org/2000/svg" xmlns:xlink="http://www.w3.org/1999/xlink" x="0px" y="0px"
	 viewBox="0 0 256 256" style="enable-background:new 0 0 256 256;" xml:space="preserve">
<style type="text/css">
	.st0{fill:#FFFFFF;}
	.st1{fill-rule:evenodd;clip-rule:evenodd;fill:#FFFFFF;}
	.st2{filter:url(#Adobe_OpacityMaskFilter);}
	.st3{mask:url(#mask-2_00000133504372766920365570000000869489387910414495_);fill-rule:evenodd;clip-rule:evenodd;fill:#FFFFFF;}
	.st4{filter:url(#Adobe_OpacityMaskFilter_00000083811101605218198970000015319641071464319667_);}
	.st5{mask:url(#mask-2_00000144329366519499576320000005957112603762654105_);fill-rule:evenodd;clip-rule:evenodd;fill:#FFFFFF;}
	.st6{filter:url(#Adobe_OpacityMaskFilter_00000127007599684571555560000010267622392779676562_);}
	.st7{mask:url(#mask-4_00000140712766783203010850000006926516956759499710_);fill-rule:evenodd;clip-rule:evenodd;fill:#FFFFFF;}
</style>
<g id="Layer_2">
</g>
<g id="Layer_1">
	<g id="Branding_00000100374912329546558390000000937626868866808758_">
		<g id="Icons_00000127726968577925997490000016275212424784625032_" transform="translate(-1516.000000, -513.000000)">
			<path id="Path_00000010991497618781677220000007903020869296496528_" class="st0" d="M1766.9,600.4l-50.7-50.7c-5-5-13-5-18,0
				c-5,5-5,13,0,18l29.1,29h-96.1c-63,0-114,51-114,114v12.7c0,7,5.7,12.7,12.7,12.7s12.7-5.7,12.7-12.7v-12.7
				c0-49,39.7-88.7,88.7-88.7h96.1l-29.1,29c-2.4,2.4-3.7,5.6-3.7,9c0,3.4,1.3,6.6,3.7,9c2.4,2.4,5.6,3.7,9,3.7c3.4,0,6.6-1.3,9-3.7
				l50.7-50.7c2.4-2.4,3.7-5.6,3.7-9S1769.3,602.7,1766.9,600.4z"/>
		</g>
	</g>
</g>
</svg>
