<?xml version="1.0" encoding="utf-8"?>
<!-- Generator: Adobe Illustrator 26.0.3, SVG Export Plug-In . SVG Version: 6.00 Build 0)  -->
<svg version="1.1" xmlns="http://www.w3.org/2000/svg" xmlns:xlink="http://www.w3.org/1999/xlink" x="0px" y="0px"
	 viewBox="0 0 256 256" style="enable-background:new 0 0 256 256;" xml:space="preserve">
<style type="text/css">
	.st0{fill:#FFFFFF;}
	.st1{fill-rule:evenodd;clip-rule:evenodd;fill:#FFFFFF;}
	.st2{filter:url(#Adobe_OpacityMaskFilter);}
	.st3{mask:url(#mask-2_00000133504372766920365570000000869489387910414495_);fill-rule:evenodd;clip-rule:evenodd;fill:#FFFFFF;}
	.st4{filter:url(#Adobe_OpacityMaskFilter_00000178198925055742108100000017025192699137134012_);}
	.st5{mask:url(#mask-2_00000144329366519499576320000005957112603762654105_);fill-rule:evenodd;clip-rule:evenodd;fill:#FFFFFF;}
	.st6{filter:url(#Adobe_OpacityMaskFilter_00000116232068807720242140000011989940042163917491_);}
	.st7{mask:url(#mask-4_00000140712766783203010850000006926516956759499710_);fill-rule:evenodd;clip-rule:evenodd;fill:#FFFFFF;}
</style>
<g id="Layer_2">
</g>
<g id="Layer_1">
	<g>
		<g>
			<g id="Icons_00000012441619277427082560000017541747314817357708_" transform="translate(-408.000000, -629.000000)">
				<path id="Combined-Shape-Copy_00000031911365129062334570000006830691500157810345_" class="st0" d="M536,631.2
					c69.7,0,125.8,56.1,125.8,125.8S605.7,882.8,536,882.8S410.2,826.7,410.2,757S466.3,631.2,536,631.2z M536,652.2
					c-57.7,0-104.8,47.2-104.8,104.8S478.3,861.8,536,861.8S640.8,814.7,640.8,757S593.7,652.2,536,652.2z"/>
			</g>
		</g>
		<path class="st0" d="M172.7,175.9c-1.9,0-3.8-0.5-5.6-1.6l-44.8-28.2c-3.1-1.9-4.9-5.3-4.9-8.9V78c0-5.8,4.7-10.5,10.5-10.5
			c5.8,0,10.5,4.7,10.5,10.5v53.4l39.9,25.1c4.9,3.1,6.4,9.6,3.3,14.5C179.6,174.2,176.2,175.9,172.7,175.9z"/>
	</g>
</g>
</svg>
