<?xml version="1.0" encoding="utf-8"?>
<!-- Generator: Adobe Illustrator 26.0.3, SVG Export Plug-In . SVG Version: 6.00 Build 0)  -->
<svg version="1.1" xmlns="http://www.w3.org/2000/svg" xmlns:xlink="http://www.w3.org/1999/xlink" x="0px" y="0px"
	 viewBox="0 0 256 256" style="enable-background:new 0 0 256 256;" xml:space="preserve">
<style type="text/css">
	.st0{fill:#FFFFFF;}
	.st1{fill-rule:evenodd;clip-rule:evenodd;fill:#FFFFFF;}
	.st2{filter:url(#Adobe_OpacityMaskFilter);}
	.st3{mask:url(#mask-2_00000133504372766920365570000000869489387910414495_);fill-rule:evenodd;clip-rule:evenodd;fill:#FFFFFF;}
	.st4{filter:url(#Adobe_OpacityMaskFilter_00000127011028568514187040000015367559827885907105_);}
	.st5{mask:url(#mask-2_00000144329366519499576320000005957112603762654105_);fill-rule:evenodd;clip-rule:evenodd;fill:#FFFFFF;}
	.st6{filter:url(#Adobe_OpacityMaskFilter_00000137827917134621136530000009612790271037281183_);}
	.st7{mask:url(#mask-4_00000140712766783203010850000006926516956759499710_);fill-rule:evenodd;clip-rule:evenodd;fill:#FFFFFF;}
</style>
<g id="Layer_2">
</g>
<g id="Layer_1">
	<g>
		<path class="st0" d="M106.4,221c-0.5,2.1-0.8,3.9-0.8,6.2c0,13.1,10.8,24,24,24c13.1,0,24-10.8,24-24c0-2.1-0.3-4.1-0.8-6.2H106.4
			z"/>
		<path class="st0" d="M147.4,35.8V22.4c0-9.5-8-17.5-17.5-17.5c-9.5,0-17.8,8-17.8,17.5v13.6c-25.5,5.9-56.4,25-56.4,71.3
			c0,25.1-3.7,43.5-8,56.5L175.4,48.1C166.5,41.8,156.6,38,147.4,35.8z"/>
		<path class="st0" d="M253.8,15.9c-3.2-3.5-8.9-3.8-13.4-0.7c-0.5,0.3-1,0.7-1.4,1.1l-49.6,45L32.2,203.8L4.1,229.3
			c-0.4,0.4-0.8,0.8-1.1,1.2c-2,2.2-3,5-3,7.6c0,2.2,0.7,4.3,2.2,6c3.5,4,10.2,3.8,14.8-0.4l36.3-33H227v-16.2
			c-0.3-2-1.1-3.9-2.3-5.4c-0.3-0.3-20.9-22.7-20.9-81.9c0-11-1.7-20.4-4.8-28.5l53-48.1C256.5,26.4,257.3,19.9,253.8,15.9z"/>
	</g>
</g>
</svg>
