<?xml version="1.0" encoding="utf-8"?>
<!-- Generator: Adobe Illustrator 26.0.3, SVG Export Plug-In . SVG Version: 6.00 Build 0)  -->
<svg version="1.1" xmlns="http://www.w3.org/2000/svg" xmlns:xlink="http://www.w3.org/1999/xlink" x="0px" y="0px"
	 viewBox="0 0 256 256" style="enable-background:new 0 0 256 256;" xml:space="preserve">
<style type="text/css">
	.st0{fill:#FFFFFF;}
	.st1{fill-rule:evenodd;clip-rule:evenodd;fill:#FFFFFF;}
	.st2{filter:url(#Adobe_OpacityMaskFilter);}
	.st3{mask:url(#mask-2_00000133504372766920365570000000869489387910414495_);fill-rule:evenodd;clip-rule:evenodd;fill:#FFFFFF;}
	.st4{filter:url(#Adobe_OpacityMaskFilter_00000143589203980042136440000013795229444521820547_);}
	.st5{mask:url(#mask-2_00000144329366519499576320000005957112603762654105_);fill-rule:evenodd;clip-rule:evenodd;fill:#FFFFFF;}
	.st6{filter:url(#Adobe_OpacityMaskFilter_00000133521240838345613040000017049480330627941787_);}
	.st7{mask:url(#mask-4_00000140712766783203010850000006926516956759499710_);fill-rule:evenodd;clip-rule:evenodd;fill:#FFFFFF;}
</style>
<g id="Layer_2">
</g>
<g id="Layer_1">
	<g id="Branding_00000026876353127085871410000014537025834820343452_">
		<g id="Icons_00000126299225731494972250000002512868703488538557_" transform="translate(-1763.000000, -403.000000)">
			<g id="Group-7" transform="translate(1763.000000, 403.000000)">
				<g id="Group-3_00000061440148514908768820000007507819486289438388_" transform="translate(13.200000, 0.349470)">
					<defs>
						<filter id="Adobe_OpacityMaskFilter" filterUnits="userSpaceOnUse" x="67.9" y="12.5" width="174.9" height="230.4">
							<feColorMatrix  type="matrix" values="1 0 0 0 0  0 1 0 0 0  0 0 1 0 0  0 0 0 1 0"/>
						</filter>
					</defs>
					
						<mask maskUnits="userSpaceOnUse" x="67.9" y="12.5" width="174.9" height="230.4" id="mask-2_00000144329366519499576320000005957112603762654105_">
						<g class="st2">
							<polygon id="path-1_00000130619085545533742480000002962598560306405034_" class="st1" points="67.9,12.5 242.8,12.5 
								242.8,242.8 67.9,242.8 							"/>
						</g>
					</mask>
					<path id="Fill-1_00000179615239617102394260000007539602938366793909_" class="st5" d="M242.3,120.1L222,221.5
						c-2.5,12.4-13.4,21.3-26,21.3h-55.6c-19,0-37.9-4.7-54.7-13.7c-3.4-1.9-6.8-3.6-9.6-5.1c-5-2.7-8.2-7.9-8.2-13.6v-98.8
						c0-15.5,30.9-30.9,30.9-52.8V27.9c0-8.3,6.8-15.3,15.1-15.4c17.2-0.2,31.2,13.7,31.2,30.8V73c0,8.5,6.9,15.4,15.4,15.4h55.8
						C233,88.4,245.6,103.7,242.3,120.1"/>
				</g>
				<g id="Group-6" transform="translate(0.000000, 14.099470)">
					<defs>
						
							<filter id="Adobe_OpacityMaskFilter_00000136404703631670807430000004817237364747369862_" filterUnits="userSpaceOnUse" x="0" y="82.3" width="61.8" height="131.3">
							<feColorMatrix  type="matrix" values="1 0 0 0 0  0 1 0 0 0  0 0 1 0 0  0 0 0 1 0"/>
						</filter>
					</defs>
					
						<mask maskUnits="userSpaceOnUse" x="0" y="82.3" width="61.8" height="131.3" id="mask-4_00000140712766783203010850000006926516956759499710_">
						<g style="filter:url(#Adobe_OpacityMaskFilter_00000136404703631670807430000004817237364747369862_);">
							<polygon id="path-3_00000008865183704125061790000016264241573734685616_" class="st1" points="0,82.3 61.8,82.3 61.8,213.6 
								0,213.6 							"/>
						</g>
					</mask>
					<path id="Fill-4" class="st7" d="M53.8,213.6H8.1c-4.5,0-8.1-3.6-8.1-8.1V90.4c0-4.5,3.6-8.1,8.1-8.1h45.7
						c4.5,0,8.1,3.6,8.1,8.1v115.1C61.8,210,58.2,213.6,53.8,213.6"/>
				</g>
			</g>
		</g>
	</g>
</g>
</svg>
