<?xml version="1.0" encoding="utf-8"?>
<!-- Generator: Adobe Illustrator 26.0.3, SVG Export Plug-In . SVG Version: 6.00 Build 0)  -->
<svg version="1.1" xmlns="http://www.w3.org/2000/svg" xmlns:xlink="http://www.w3.org/1999/xlink" x="0px" y="0px"
	 viewBox="0 0 256 256" style="enable-background:new 0 0 256 256;" xml:space="preserve">
<style type="text/css">
	.st0{fill:#FFFFFF;}
	.st1{fill-rule:evenodd;clip-rule:evenodd;fill:#FFFFFF;}
	.st2{filter:url(#Adobe_OpacityMaskFilter);}
	.st3{mask:url(#mask-2_00000133504372766920365570000000869489387910414495_);fill-rule:evenodd;clip-rule:evenodd;fill:#FFFFFF;}
	.st4{filter:url(#Adobe_OpacityMaskFilter_00000127020519927003102980000009981958198000859035_);}
	.st5{mask:url(#mask-2_00000144329366519499576320000005957112603762654105_);fill-rule:evenodd;clip-rule:evenodd;fill:#FFFFFF;}
	.st6{filter:url(#Adobe_OpacityMaskFilter_00000154383952064369994160000007639941547109450154_);}
	.st7{mask:url(#mask-4_00000140712766783203010850000006926516956759499710_);fill-rule:evenodd;clip-rule:evenodd;fill:#FFFFFF;}
</style>
<g id="Layer_2">
</g>
<g id="Layer_1">
	<g>
		<g>
			<g id="Icons_00000155833140670569631760000004467653141079852942_" transform="translate(-408.000000, -629.000000)">
				<path id="Combined-Shape-Copy_00000036930320473252339910000000427567743493245332_" class="st0" d="M536,631.2
					c-69.7,0-125.8,56.1-125.8,125.8S466.3,882.8,536,882.8S661.8,826.7,661.8,757S605.7,631.2,536,631.2z M599.7,804.3
					c-2,3.1-5.4,4.9-8.9,4.9c-1.9,0-3.8-0.5-5.6-1.6L530.4,774c-3-1.9-4.9-5.3-4.9-8.9v-73.9c0-5.8,4.7-10.5,10.5-10.5
					c5.8,0,10.5,4.7,10.5,10.5v68.1l50,30.5C601.3,792.9,602.8,799.4,599.7,804.3z"/>
			</g>
		</g>
	</g>
</g>
</svg>
