<?xml version="1.0" encoding="utf-8"?>
<!-- Generator: Adobe Illustrator 26.0.3, SVG Export Plug-In . SVG Version: 6.00 Build 0)  -->
<svg version="1.1" xmlns="http://www.w3.org/2000/svg" xmlns:xlink="http://www.w3.org/1999/xlink" x="0px" y="0px"
	 viewBox="0 0 256 256" style="enable-background:new 0 0 256 256;" xml:space="preserve">
<style type="text/css">
	.st0{fill:#FFFFFF;}
	.st1{fill-rule:evenodd;clip-rule:evenodd;fill:#FFFFFF;}
	.st2{filter:url(#Adobe_OpacityMaskFilter);}
	.st3{mask:url(#mask-2_00000133504372766920365570000000869489387910414495_);fill-rule:evenodd;clip-rule:evenodd;fill:#FFFFFF;}
	.st4{filter:url(#Adobe_OpacityMaskFilter_00000044882025568661794230000009430367474989516990_);}
	.st5{mask:url(#mask-2_00000144329366519499576320000005957112603762654105_);fill-rule:evenodd;clip-rule:evenodd;fill:#FFFFFF;}
	.st6{filter:url(#Adobe_OpacityMaskFilter_00000083769802045690100070000013308035456782359173_);}
	.st7{mask:url(#mask-4_00000140712766783203010850000006926516956759499710_);fill-rule:evenodd;clip-rule:evenodd;fill:#FFFFFF;}
</style>
<g id="Layer_2">
</g>
<g id="Layer_1">
	<g>
		<path class="st0" d="M36.4,223.6c-4.7,0-9.2-1.8-12.7-5c-4.2-3.9-6.3-9.6-5.8-15.3l-0.1-36.8c0-7.7,3.1-15.2,8.6-20.6l141.4-140
			c6.9-6.9,19.2-7,26.2,0l38.6,38.6c7.2,7.2,7.2,19,0,26.2l-132.4,143c-5.8,6.3-14,9.8-22.5,9.8c0,0-0.1,0-0.1,0L39,223.5
			C38.1,223.6,37.3,223.6,36.4,223.6z M38.1,203.3l39.6,0.1c0,0,0,0,0,0c2.9,0,5.8-1.2,7.8-3.4L217.4,57.7L181,21.3L40.7,160.2
			c-1.7,1.6-2.6,3.9-2.6,6.3L38.1,203.3z M218.2,56.8C218.2,56.8,218.2,56.8,218.2,56.8L218.2,56.8z M182.1,20.2L182.1,20.2
			C182.1,20.2,182.1,20.2,182.1,20.2z"/>
		<path class="st0" d="M228,255.3H28c-5.6,0-10.1-4.5-10.1-10.1c0-5.6,4.5-10.1,10.1-10.1H228c5.6,0,10.1,4.5,10.1,10.1
			C238.1,250.8,233.6,255.3,228,255.3z"/>
	</g>
</g>
</svg>
