<?xml version="1.0" encoding="utf-8"?>
<!-- Generator: Adobe Illustrator 26.0.3, SVG Export Plug-In . SVG Version: 6.00 Build 0)  -->
<svg version="1.1" xmlns="http://www.w3.org/2000/svg" xmlns:xlink="http://www.w3.org/1999/xlink" x="0px" y="0px"
	 viewBox="0 0 256 256" style="enable-background:new 0 0 256 256;" xml:space="preserve">
<style type="text/css">
	.st0{fill:#FFFFFF;}
	.st1{fill-rule:evenodd;clip-rule:evenodd;fill:#FFFFFF;}
	.st2{filter:url(#Adobe_OpacityMaskFilter);}
	.st3{mask:url(#mask-2_00000133504372766920365570000000869489387910414495_);fill-rule:evenodd;clip-rule:evenodd;fill:#FFFFFF;}
	.st4{filter:url(#Adobe_OpacityMaskFilter_00000036963228128309451160000010412434678612914818_);}
	.st5{mask:url(#mask-2_00000144329366519499576320000005957112603762654105_);fill-rule:evenodd;clip-rule:evenodd;fill:#FFFFFF;}
	.st6{filter:url(#Adobe_OpacityMaskFilter_00000011743869140021547530000014150232589791277712_);}
	.st7{mask:url(#mask-4_00000140712766783203010850000006926516956759499710_);fill-rule:evenodd;clip-rule:evenodd;fill:#FFFFFF;}
</style>
<g id="Layer_2">
</g>
<g id="Layer_1">
	<g>
		<g>
			<path class="st0" d="M128,143.5c39.6,0,71.8,32.1,71.8,71.8v28c0,6.3-5.1,11.3-11.3,11.3H67.5c-6.3,0-11.3-5.1-11.3-11.3v-28
				C56.2,175.6,88.4,143.5,128,143.5z"/>
		</g>
		<path class="st0" d="M171.1,9.1v40.5c0,1.6-2,2.4-3.1,1.2c-10-10.9-24.2-17.7-40-17.8H128c-15.8,0-30.1,6.8-40.1,17.6
			c-1.1,1.2-3.1,0.4-3.1-1.2V9.1c0-0.8,0.4-1.5,1.1-1.9c0.7-0.3,1.5-0.3,2.1,0.2l22.5,16.4l15.7-21.4c0.4-0.5,1-0.9,1.7-0.9
			c0.6,0,1.3,0.3,1.7,0.9l15.7,21.4l22.5-16.4c0.6-0.5,1.4-0.5,2.1-0.2C170.7,7.6,171.1,8.3,171.1,9.1z"/>
		<g>
			<path class="st0" d="M171.1,93.1c0,23.8-19.3,43.1-43.1,43.1c-23.8,0-43.1-19.3-43.1-43.1c0-9.4,3-18.1,8.1-25.2
				C100.8,57,113.6,50,128,50c14.3,0.1,27,7.2,34.8,17.9C168,75,171,83.7,171.1,93.1z"/>
		</g>
	</g>
</g>
</svg>
