<?xml version="1.0" encoding="utf-8"?>
<!-- Generator: Adobe Illustrator 26.0.3, SVG Export Plug-In . SVG Version: 6.00 Build 0)  -->
<svg version="1.1" xmlns="http://www.w3.org/2000/svg" xmlns:xlink="http://www.w3.org/1999/xlink" x="0px" y="0px"
	 viewBox="0 0 256 256" style="enable-background:new 0 0 256 256;" xml:space="preserve">
<style type="text/css">
	.st0{fill:#FFFFFF;}
	.st1{fill-rule:evenodd;clip-rule:evenodd;fill:#FFFFFF;}
	.st2{filter:url(#Adobe_OpacityMaskFilter);}
	.st3{mask:url(#mask-2_00000133504372766920365570000000869489387910414495_);fill-rule:evenodd;clip-rule:evenodd;fill:#FFFFFF;}
	.st4{filter:url(#Adobe_OpacityMaskFilter_00000078008860871675499440000000530348492934057385_);}
	.st5{mask:url(#mask-2_00000144329366519499576320000005957112603762654105_);fill-rule:evenodd;clip-rule:evenodd;fill:#FFFFFF;}
	.st6{filter:url(#Adobe_OpacityMaskFilter_00000140703449389984461840000005001572864967301558_);}
	.st7{mask:url(#mask-4_00000140712766783203010850000006926516956759499710_);fill-rule:evenodd;clip-rule:evenodd;fill:#FFFFFF;}
</style>
<g id="Layer_2">
</g>
<g id="Layer_1">
	<g>
		<path class="st0" d="M92.3,118.1H23.6C10.6,118.1,0,107.5,0,94.4V25.8C0,12.7,10.6,2.1,23.6,2.1h68.7c13.1,0,23.6,10.6,23.6,23.6
			v68.7C115.9,107.5,105.4,118.1,92.3,118.1z"/>
		<path class="st0" d="M232.4,118.1h-68.7c-13.1,0-23.6-10.6-23.6-23.6V25.8c0-13.1,10.6-23.6,23.6-23.6h68.7
			c13.1,0,23.6,10.6,23.6,23.6v68.7C256,107.5,245.4,118.1,232.4,118.1z"/>
		<path class="st0" d="M92.3,253.9H23.6C10.6,253.9,0,243.3,0,230.2v-68.7c0-13.1,10.6-23.6,23.6-23.6h68.7
			c13.1,0,23.6,10.6,23.6,23.6v68.7C115.9,243.3,105.4,253.9,92.3,253.9z"/>
		<path class="st0" d="M232.4,253.9h-68.7c-13.1,0-23.6-10.6-23.6-23.6v-68.7c0-13.1,10.6-23.6,23.6-23.6h68.7
			c13.1,0,23.6,10.6,23.6,23.6v68.7C256,243.3,245.4,253.9,232.4,253.9z"/>
	</g>
</g>
</svg>
