<?xml version="1.0" encoding="utf-8"?>
<!-- Generator: Adobe Illustrator 26.0.3, SVG Export Plug-In . SVG Version: 6.00 Build 0)  -->
<svg version="1.1" xmlns="http://www.w3.org/2000/svg" xmlns:xlink="http://www.w3.org/1999/xlink" x="0px" y="0px"
	 viewBox="0 0 256 256" style="enable-background:new 0 0 256 256;" xml:space="preserve">
<style type="text/css">
	.st0{fill:#FFFFFF;}
	.st1{fill-rule:evenodd;clip-rule:evenodd;fill:#FFFFFF;}
	.st2{filter:url(#Adobe_OpacityMaskFilter);}
	.st3{mask:url(#mask-2_00000133504372766920365570000000869489387910414495_);fill-rule:evenodd;clip-rule:evenodd;fill:#FFFFFF;}
	.st4{filter:url(#Adobe_OpacityMaskFilter_00000056419687562866044160000003920845492196384936_);}
	.st5{mask:url(#mask-2_00000144329366519499576320000005957112603762654105_);fill-rule:evenodd;clip-rule:evenodd;fill:#FFFFFF;}
	.st6{filter:url(#Adobe_OpacityMaskFilter_00000143610403414663958830000012209636632063668903_);}
	.st7{mask:url(#mask-4_00000140712766783203010850000006926516956759499710_);fill-rule:evenodd;clip-rule:evenodd;fill:#FFFFFF;}
</style>
<g id="Layer_2">
</g>
<g id="Layer_1">
	<g>
		<path class="st0" d="M128,155.9c20.2,0,36.6-16.4,36.6-36.6V36.6C164.6,16.4,148.2,0,128,0S91.4,16.4,91.4,36.6v82.7
			C91.4,139.5,107.8,155.8,128,155.9z"/>
		<g>
			<path class="st0" d="M213.9,118c-0.1,42.4-30.5,78-72.4,84.8l-3.4,0.5v42.5c0,5.6-4.6,10.2-10.2,10.2c-5.6,0-10.2-4.6-10.2-10.2
				v-42.5l-3.4-0.5c-41.9-6.7-72.3-42.3-72.4-84.8c0-5.6,4.6-10.2,10.2-10.2c5.6,0,10.2,4.6,10.2,10.2c0,36.1,29.4,65.5,65.5,65.5
				c36.1,0,65.5-29.4,65.5-65.5c0-5.6,4.6-10.2,10.2-10.2C209.3,107.8,213.9,112.4,213.9,118z"/>
		</g>
	</g>
</g>
</svg>
