<?xml version="1.0" encoding="utf-8"?>
<!-- Generator: Adobe Illustrator 26.0.3, SVG Export Plug-In . SVG Version: 6.00 Build 0)  -->
<svg version="1.1" xmlns="http://www.w3.org/2000/svg" xmlns:xlink="http://www.w3.org/1999/xlink" x="0px" y="0px"
	 viewBox="0 0 256 256" style="enable-background:new 0 0 256 256;" xml:space="preserve">
<style type="text/css">
	.st0{fill:#FFFFFF;}
	.st1{fill-rule:evenodd;clip-rule:evenodd;fill:#FFFFFF;}
	.st2{filter:url(#Adobe_OpacityMaskFilter);}
	.st3{mask:url(#mask-2_00000133504372766920365570000000869489387910414495_);fill-rule:evenodd;clip-rule:evenodd;fill:#FFFFFF;}
	.st4{filter:url(#Adobe_OpacityMaskFilter_00000180342186676103715420000001123830883045725114_);}
	.st5{mask:url(#mask-2_00000144329366519499576320000005957112603762654105_);fill-rule:evenodd;clip-rule:evenodd;fill:#FFFFFF;}
	.st6{filter:url(#Adobe_OpacityMaskFilter_00000034795717977205809270000000954757469836790190_);}
	.st7{mask:url(#mask-4_00000140712766783203010850000006926516956759499710_);fill-rule:evenodd;clip-rule:evenodd;fill:#FFFFFF;}
</style>
<g id="Layer_2">
</g>
<g id="Layer_1">
	<g>
		<path class="st0" d="M243.8,58.1H71.9c-5.8,0-10.5-4.7-10.5-10.5s4.7-10.5,10.5-10.5h171.9c5.8,0,10.5,4.7,10.5,10.5
			S249.6,58.1,243.8,58.1z"/>
		<path class="st0" d="M243.8,138.5H71.9c-5.8,0-10.5-4.7-10.5-10.5s4.7-10.5,10.5-10.5h171.9c5.8,0,10.5,4.7,10.5,10.5
			S249.6,138.5,243.8,138.5z"/>
		<path class="st0" d="M243.8,218.9H71.9c-5.8,0-10.5-4.7-10.5-10.5c0-5.8,4.7-10.5,10.5-10.5h171.9c5.8,0,10.5,4.7,10.5,10.5
			C254.3,214.2,249.6,218.9,243.8,218.9z"/>
		<circle class="st0" cx="19.8" cy="47.6" r="18.2"/>
		<circle class="st0" cx="19.8" cy="128" r="18.2"/>
		<circle class="st0" cx="19.8" cy="208.4" r="18.2"/>
	</g>
</g>
</svg>
