<?xml version="1.0" encoding="utf-8"?>
<!-- Generator: Adobe Illustrator 26.0.3, SVG Export Plug-In . SVG Version: 6.00 Build 0)  -->
<svg version="1.1" xmlns="http://www.w3.org/2000/svg" xmlns:xlink="http://www.w3.org/1999/xlink" x="0px" y="0px"
	 viewBox="0 0 256 256" style="enable-background:new 0 0 256 256;" xml:space="preserve">
<style type="text/css">
	.st0{fill:#FFFFFF;}
	.st1{fill-rule:evenodd;clip-rule:evenodd;fill:#FFFFFF;}
	.st2{filter:url(#Adobe_OpacityMaskFilter);}
	.st3{mask:url(#mask-2_00000133504372766920365570000000869489387910414495_);fill-rule:evenodd;clip-rule:evenodd;fill:#FFFFFF;}
	.st4{filter:url(#Adobe_OpacityMaskFilter_00000177479355153118477660000002225780947175288964_);}
	.st5{mask:url(#mask-2_00000144329366519499576320000005957112603762654105_);fill-rule:evenodd;clip-rule:evenodd;fill:#FFFFFF;}
	.st6{filter:url(#Adobe_OpacityMaskFilter_00000161617588339874940790000002672111037689669032_);}
	.st7{mask:url(#mask-4_00000140712766783203010850000006926516956759499710_);fill-rule:evenodd;clip-rule:evenodd;fill:#FFFFFF;}
</style>
<g id="Layer_2">
</g>
<g id="Layer_1">
	<g>
		<path class="st0" d="M8.7,45.3h35.6c4.3,7.9,12.6,13.3,22.2,13.3s17.9-5.4,22.2-13.3h158.6c4.2,0,7.6-5.5,7.6-12.2
			s-3.4-12.2-7.6-12.2H88.7C84.4,12.9,76.1,7.5,66.5,7.5c-9.6,0-17.9,5.4-22.2,13.3H8.7c-4.2,0-7.6,5.5-7.6,12.2S4.5,45.3,8.7,45.3z
			"/>
		<path class="st0" d="M247.3,114.6h-35.6c-4.3-7.9-12.6-13.3-22.2-13.3c-9.6,0-17.9,5.4-22.2,13.3H8.7c-4.2,0-7.6,5.5-7.6,12.2
			s3.4,12.2,7.6,12.2h158.6c4.3,7.9,12.6,13.3,22.2,13.3c9.6,0,17.9-5.4,22.2-13.3h35.6c4.2,0,7.6-5.5,7.6-12.2
			S251.5,114.6,247.3,114.6z"/>
		<path class="st0" d="M247.3,208.4H139.7c-4.3-7.9-12.6-13.3-22.2-13.3c-9.6,0-17.9,5.4-22.2,13.3H8.7c-4.2,0-7.6,5.5-7.6,12.2
			c0,6.8,3.4,12.2,7.6,12.2h86.6c4.3,7.9,12.6,13.3,22.2,13.3s17.9-5.4,22.2-13.3h107.6c4.2,0,7.6-5.5,7.6-12.2
			C254.9,213.9,251.5,208.4,247.3,208.4z"/>
	</g>
</g>
</svg>
