<?xml version="1.0" encoding="utf-8"?>
<!-- Generator: Adobe Illustrator 26.0.3, SVG Export Plug-In . SVG Version: 6.00 Build 0)  -->
<svg version="1.1" xmlns="http://www.w3.org/2000/svg" xmlns:xlink="http://www.w3.org/1999/xlink" x="0px" y="0px"
	 viewBox="0 0 256 256" style="enable-background:new 0 0 256 256;" xml:space="preserve">
<style type="text/css">
	.st0{fill:#FFFFFF;}
	.st1{fill-rule:evenodd;clip-rule:evenodd;fill:#FFFFFF;}
	.st2{filter:url(#Adobe_OpacityMaskFilter);}
	.st3{mask:url(#mask-2_00000133504372766920365570000000869489387910414495_);fill-rule:evenodd;clip-rule:evenodd;fill:#FFFFFF;}
	.st4{filter:url(#Adobe_OpacityMaskFilter_00000047775751657623217440000017762935635792417670_);}
	.st5{mask:url(#mask-2_00000144329366519499576320000005957112603762654105_);fill-rule:evenodd;clip-rule:evenodd;fill:#FFFFFF;}
	.st6{filter:url(#Adobe_OpacityMaskFilter_00000171700822915975803530000015783017244666882956_);}
	.st7{mask:url(#mask-4_00000140712766783203010850000006926516956759499710_);fill-rule:evenodd;clip-rule:evenodd;fill:#FFFFFF;}
</style>
<g id="Layer_2">
</g>
<g id="Layer_1">
	<g>
		<g id="Icons_00000057144436166207336330000017418937333558783897_" transform="translate(-408.000000, -629.000000)">
			<path id="Combined-Shape-Copy_00000004512794830836385430000005513448986356571315_" class="st0" d="M536,629.5
				c70.6,0,127.5,56.8,127.5,127.5S606.6,884.5,536,884.5S408.5,827.6,408.5,757S465.4,629.5,536,629.5z M536,650.8
				c-58.4,0-106.2,47.8-106.2,106.2S477.6,863.2,536,863.2S642.2,815.4,642.2,757S594.4,650.8,536,650.8z"/>
		</g>
		<path class="st0" d="M171.9,155.7L144.2,128l27.7-27.7c2.8-2.8,2.8-7.3,0-10.1l-6.1-6.1c-2.8-2.8-7.3-2.8-10.1,0L128,111.8
			l-27.7-27.7c-2.8-2.8-7.3-2.8-10.1,0l-6.1,6.1c-2.8,2.8-2.8,7.3,0,10.1l27.7,27.7l-27.7,27.7c-2.8,2.8-2.8,7.3,0,10.1l6.1,6.1
			c2.8,2.8,7.3,2.8,10.1,0l27.7-27.7l27.7,27.7c2.8,2.8,7.3,2.8,10.1,0l6.1-6.1C174.6,163,174.6,158.5,171.9,155.7z"/>
	</g>
</g>
</svg>
