<?xml version="1.0" encoding="utf-8"?>
<!-- Generator: Adobe Illustrator 26.0.3, SVG Export Plug-In . SVG Version: 6.00 Build 0)  -->
<svg version="1.1" xmlns="http://www.w3.org/2000/svg" xmlns:xlink="http://www.w3.org/1999/xlink" x="0px" y="0px"
	 viewBox="0 0 256 256" style="enable-background:new 0 0 256 256;" xml:space="preserve">
<style type="text/css">
	.st0{fill:#FFFFFF;}
	.st1{fill-rule:evenodd;clip-rule:evenodd;fill:#FFFFFF;}
	.st2{filter:url(#Adobe_OpacityMaskFilter);}
	.st3{mask:url(#mask-2_00000133504372766920365570000000869489387910414495_);fill-rule:evenodd;clip-rule:evenodd;fill:#FFFFFF;}
	.st4{filter:url(#Adobe_OpacityMaskFilter_00000021084238859089831560000005824776113029309312_);}
	.st5{mask:url(#mask-2_00000144329366519499576320000005957112603762654105_);fill-rule:evenodd;clip-rule:evenodd;fill:#FFFFFF;}
	.st6{filter:url(#Adobe_OpacityMaskFilter_00000090269793483099749120000016788533800413276843_);}
	.st7{mask:url(#mask-4_00000140712766783203010850000006926516956759499710_);fill-rule:evenodd;clip-rule:evenodd;fill:#FFFFFF;}
</style>
<g id="Layer_2">
</g>
<g id="Layer_1">
	<g>
		<path class="st0" d="M97.5,1.1c-28.8,0-52.1,23.3-52.1,52.1c0,28.7,23.3,52,52.1,52c28.8,0,52.1-23.3,52.1-52
			C149.4,24.4,126.2,1.3,97.5,1.1z"/>
		<path class="st0" d="M184.2,132.9c-11.3,0-21.8,3-30.8,8.3c-15.1-12.7-34.5-20.4-55.8-20.4c-47.9,0-86.7,38.8-86.7,86.7v33.7
			c0,7.5,6.1,13.7,13.7,13.7h159.6c33.8,0,61-27.2,61-61C245.2,160.2,218,132.9,184.2,132.9z M184.2,244.8h-0.5
			c-27.7-0.3-50.3-23-50.3-50.8c0-19.6,11.3-36.9,27.8-45.2c6.9-3.6,14.7-5.6,23-5.6c27.9,0,50.8,22.9,50.8,50.8
			C235,221.9,212.1,244.8,184.2,244.8z"/>
		<polygon class="st0" points="216.7,187.5 216.7,200.4 190.6,200.4 190.6,226.5 177.7,226.5 177.7,200.4 151.7,200.4 151.7,187.5 
			177.7,187.5 177.7,161.4 190.6,161.4 190.6,187.5 		"/>
	</g>
</g>
</svg>
