<?xml version="1.0" encoding="utf-8"?>
<!-- Generator: Adobe Illustrator 26.0.3, SVG Export Plug-In . SVG Version: 6.00 Build 0)  -->
<svg version="1.1" xmlns="http://www.w3.org/2000/svg" xmlns:xlink="http://www.w3.org/1999/xlink" x="0px" y="0px"
	 viewBox="0 0 256 256" style="enable-background:new 0 0 256 256;" xml:space="preserve">
<style type="text/css">
	.st0{fill:#FFFFFF;}
	.st1{fill-rule:evenodd;clip-rule:evenodd;fill:#FFFFFF;}
	.st2{filter:url(#Adobe_OpacityMaskFilter);}
	.st3{mask:url(#mask-2_00000133504372766920365570000000869489387910414495_);fill-rule:evenodd;clip-rule:evenodd;fill:#FFFFFF;}
	.st4{filter:url(#Adobe_OpacityMaskFilter_00000077300341744106121010000016876902863586851492_);}
	.st5{mask:url(#mask-2_00000144329366519499576320000005957112603762654105_);fill-rule:evenodd;clip-rule:evenodd;fill:#FFFFFF;}
	.st6{filter:url(#Adobe_OpacityMaskFilter_00000155138434772896237240000010215637188868749712_);}
	.st7{mask:url(#mask-4_00000140712766783203010850000006926516956759499710_);fill-rule:evenodd;clip-rule:evenodd;fill:#FFFFFF;}
</style>
<g id="Layer_2">
</g>
<g id="Layer_1">
	<g>
		<path class="st1" d="M160.6,21.1L53.5,174.3c-21.3,30.2,25.1,62.6,46.1,32.1l69.5-99.1c3.3-4.7,2.1-11.2-2.6-14.4l0,0
			c-4.7-3.2-11-2-14.3,2.6l-69.3,99.3c-5.8,8.2-18.4-0.7-12.6-8.9L177.4,32.7c18.7-26.7,57.7,4.4,40.8,28.5L111,214.6
			c-33.3,47.5-100.4-3.8-69.2-48.5L111.3,67c3.3-4.7,2.2-11.2-2.5-14.5l0,0c-4.7-3.3-11.2-2.2-14.5,2.6L25,154.6
			c-46.7,66.6,53.9,141.5,102.7,71.6L234.9,73.1C267.4,26.4,194.9-27.9,160.6,21.1z"/>
	</g>
</g>
</svg>
