<?xml version="1.0" encoding="utf-8"?>
<!-- Generator: Adobe Illustrator 26.0.3, SVG Export Plug-In . SVG Version: 6.00 Build 0)  -->
<svg version="1.1" xmlns="http://www.w3.org/2000/svg" xmlns:xlink="http://www.w3.org/1999/xlink" x="0px" y="0px"
	 viewBox="0 0 256 256" style="enable-background:new 0 0 256 256;" xml:space="preserve">
<style type="text/css">
	.st0{fill:#FFFFFF;}
	.st1{fill-rule:evenodd;clip-rule:evenodd;fill:#FFFFFF;}
	.st2{filter:url(#Adobe_OpacityMaskFilter);}
	.st3{mask:url(#mask-2_00000133504372766920365570000000869489387910414495_);fill-rule:evenodd;clip-rule:evenodd;fill:#FFFFFF;}
	.st4{filter:url(#Adobe_OpacityMaskFilter_00000019671894865856179740000016425623959403378335_);}
	.st5{mask:url(#mask-2_00000144329366519499576320000005957112603762654105_);fill-rule:evenodd;clip-rule:evenodd;fill:#FFFFFF;}
	.st6{filter:url(#Adobe_OpacityMaskFilter_00000005958025715340275250000009521087051353340094_);}
	.st7{mask:url(#mask-4_00000140712766783203010850000006926516956759499710_);fill-rule:evenodd;clip-rule:evenodd;fill:#FFFFFF;}
</style>
<g id="Layer_2">
</g>
<g id="Layer_1">
	<g id="Branding_00000013185524559387632960000018127969547089807783_">
		<g id="Icons_00000029751976298530823650000006382384193077310382_" transform="translate(-1762.000000, -642.000000)">
			<path id="Combined-Shape_00000008828170272620897610000011892263762573795517_" class="st1" d="M1792.1,741
				c16.2,0,29.4,13,29.4,29s-13.1,29-29.4,29s-29.4-13-29.4-29S1775.9,741,1792.1,741z M1890,741c16.2,0,29.4,13,29.4,29
				s-13.1,29-29.4,29s-29.4-13-29.4-29S1873.8,741,1890,741z M1987.9,741c16.2,0,29.4,13,29.4,29s-13.1,29-29.4,29s-29.4-13-29.4-29
				S1971.6,741,1987.9,741z"/>
		</g>
	</g>
</g>
</svg>
