<?xml version="1.0" encoding="utf-8"?>
<!-- Generator: Adobe Illustrator 26.0.3, SVG Export Plug-In . SVG Version: 6.00 Build 0)  -->
<svg version="1.1" xmlns="http://www.w3.org/2000/svg" xmlns:xlink="http://www.w3.org/1999/xlink" x="0px" y="0px"
	 viewBox="0 0 256 256" style="enable-background:new 0 0 256 256;" xml:space="preserve">
<style type="text/css">
	.st0{fill:#FFFFFF;}
	.st1{fill-rule:evenodd;clip-rule:evenodd;fill:#FFFFFF;}
	.st2{filter:url(#Adobe_OpacityMaskFilter);}
	.st3{mask:url(#mask-2_00000133504372766920365570000000869489387910414495_);fill-rule:evenodd;clip-rule:evenodd;fill:#FFFFFF;}
	.st4{filter:url(#Adobe_OpacityMaskFilter_00000169526421202936806630000003237404488912514948_);}
	.st5{mask:url(#mask-2_00000144329366519499576320000005957112603762654105_);fill-rule:evenodd;clip-rule:evenodd;fill:#FFFFFF;}
	.st6{filter:url(#Adobe_OpacityMaskFilter_00000105410612201876677070000014289932436321464472_);}
	.st7{mask:url(#mask-4_00000140712766783203010850000006926516956759499710_);fill-rule:evenodd;clip-rule:evenodd;fill:#FFFFFF;}
</style>
<g id="Layer_2">
</g>
<g id="Layer_1">
	<g id="Branding_00000116222467471139701610000008396372180470346414_">
		<g id="Icons_00000067218876755732040740000008208092954191685563_" transform="translate(-217.000000, -510.000000)">
			<path id="icons_x2F_26px_x2F_search-icon" class="st0" d="M469.3,747.5l-73.1-73.1c13.9-17.1,22.2-38.9,22.2-62.6
				c0-54.9-44.7-99.6-99.6-99.6c-54.9,0-99.6,44.7-99.6,99.6c0,54.9,44.7,99.6,99.6,99.6c23.7,0,45.5-8.3,62.6-22.2l73.1,73.1
				c2,2,5.4,2,7.4,0l7.4-7.4C471.4,752.9,471.4,749.5,469.3,747.5z M318.8,690.4c-43.4,0-78.7-35.3-78.7-78.7
				c0-43.4,35.3-78.7,78.7-78.7c43.4,0,78.7,35.3,78.7,78.7C397.4,655.2,362.2,690.4,318.8,690.4z"/>
		</g>
	</g>
</g>
</svg>
