<?xml version="1.0" encoding="utf-8"?>
<!-- Generator: Adobe Illustrator 26.0.3, SVG Export Plug-In . SVG Version: 6.00 Build 0)  -->
<svg version="1.1" xmlns="http://www.w3.org/2000/svg" xmlns:xlink="http://www.w3.org/1999/xlink" x="0px" y="0px"
	 viewBox="0 0 256 256" style="enable-background:new 0 0 256 256;" xml:space="preserve">
<style type="text/css">
	.st0{fill:#FFFFFF;}
	.st1{fill-rule:evenodd;clip-rule:evenodd;fill:#FFFFFF;}
	.st2{filter:url(#Adobe_OpacityMaskFilter);}
	.st3{mask:url(#mask-2_00000133504372766920365570000000869489387910414495_);fill-rule:evenodd;clip-rule:evenodd;fill:#FFFFFF;}
	.st4{filter:url(#Adobe_OpacityMaskFilter_00000053522027632193146120000001619992518580373376_);}
	.st5{mask:url(#mask-2_00000144329366519499576320000005957112603762654105_);fill-rule:evenodd;clip-rule:evenodd;fill:#FFFFFF;}
	.st6{filter:url(#Adobe_OpacityMaskFilter_00000026850999409918200550000009216159199258003349_);}
	.st7{mask:url(#mask-4_00000140712766783203010850000006926516956759499710_);fill-rule:evenodd;clip-rule:evenodd;fill:#FFFFFF;}
</style>
<g id="Layer_2">
</g>
<g id="Layer_1">
	<g>
		<path class="st0" d="M250.9,149.6L229.3,128l21.6-21.6c3.9-3.9,3.9-10.3,0-14.2l0,0c-3.9-3.9-10.3-3.9-14.2,0l-21.6,21.6
			l-21.6-21.6c-3.9-3.9-10.3-3.9-14.2,0l0,0c-3.9,3.9-3.9,10.3,0,14.2L201,128l-21.6,21.6c-3.9,3.9-3.9,10.3,0,14.2l0,0
			c3.9,3.9,10.3,3.9,14.2,0l21.6-21.6l21.6,21.6c3.9,3.9,10.3,3.9,14.2,0h0C254.8,159.8,254.8,153.5,250.9,149.6z"/>
		<path class="st0" d="M138.2,32.5v191.1c0,5.2-5.9,8.1-10,5L67,182H13.4c-6.2,0-11.2-5-11.2-11.2V85.2C2.2,79,7.2,74,13.4,74H67
			l61.2-46.5C132.3,24.4,138.2,27.3,138.2,32.5z"/>
	</g>
</g>
</svg>
