<?xml version="1.0" encoding="utf-8"?>
<!-- Generator: Adobe Illustrator 26.0.3, SVG Export Plug-In . SVG Version: 6.00 Build 0)  -->
<svg version="1.1" xmlns="http://www.w3.org/2000/svg" xmlns:xlink="http://www.w3.org/1999/xlink" x="0px" y="0px"
	 viewBox="0 0 256 256" style="enable-background:new 0 0 256 256;" xml:space="preserve">
<style type="text/css">
	.st0{fill:#FFFFFF;}
	.st1{fill-rule:evenodd;clip-rule:evenodd;fill:#FFFFFF;}
	.st2{filter:url(#Adobe_OpacityMaskFilter);}
	.st3{mask:url(#mask-2_00000133504372766920365570000000869489387910414495_);fill-rule:evenodd;clip-rule:evenodd;fill:#FFFFFF;}
	.st4{filter:url(#Adobe_OpacityMaskFilter_00000083788025815184067350000012715034180669264831_);}
	.st5{mask:url(#mask-2_00000144329366519499576320000005957112603762654105_);fill-rule:evenodd;clip-rule:evenodd;fill:#FFFFFF;}
	.st6{filter:url(#Adobe_OpacityMaskFilter_00000107553590613395517930000006315507677201910657_);}
	.st7{mask:url(#mask-4_00000140712766783203010850000006926516956759499710_);fill-rule:evenodd;clip-rule:evenodd;fill:#FFFFFF;}
</style>
<g id="Layer_2">
</g>
<g id="Layer_1">
	<g>
		<g id="Icons_00000150787228369339020250000014370152273342882480_" transform="translate(-408.000000, -629.000000)">
			<path id="Combined-Shape-Copy_00000127014377301383346690000016722846246469255583_" class="st0" d="M536,630.1
				c-70.3,0-126.9,56.6-126.9,126.9S465.7,883.9,536,883.9c70.3,0,126.9-56.6,126.9-126.9S606.3,630.1,536,630.1z M591.6,806.5
				l-6.1,6c-2.8,2.8-7.2,2.8-10,0L536,773l-39.5,39.6c-2.8,2.8-7.2,2.8-10,0l-6.1-6.1c-2.7-2.8-2.7-7.3,0-10l39.6-39.5l-39.4-39.4
				c-2.8-2.8-2.8-7.3,0-10l6.1-6.1c2.8-2.8,7.2-2.8,10,0l39.4,39.4l39.4-39.4c2.7-2.8,7.2-2.8,10,0l6,6c2.8,2.8,2.8,7.3,0,10
				l-39.4,39.4l39.5,39.5C594.4,799.2,594.4,803.7,591.6,806.5z"/>
		</g>
	</g>
</g>
</svg>
