<?xml version="1.0" encoding="utf-8"?>
<!-- Generator: Adobe Illustrator 26.0.3, SVG Export Plug-In . SVG Version: 6.00 Build 0)  -->
<svg version="1.1" xmlns="http://www.w3.org/2000/svg" xmlns:xlink="http://www.w3.org/1999/xlink" x="0px" y="0px"
	 viewBox="0 0 256 256" style="enable-background:new 0 0 256 256;" xml:space="preserve">
<style type="text/css">
	.st0{fill:#FFFFFF;}
	.st1{fill-rule:evenodd;clip-rule:evenodd;fill:#FFFFFF;}
	.st2{filter:url(#Adobe_OpacityMaskFilter);}
	.st3{mask:url(#mask-2_00000133504372766920365570000000869489387910414495_);fill-rule:evenodd;clip-rule:evenodd;fill:#FFFFFF;}
	.st4{filter:url(#Adobe_OpacityMaskFilter_00000047039860112164301180000009675234143105330314_);}
	.st5{mask:url(#mask-2_00000144329366519499576320000005957112603762654105_);fill-rule:evenodd;clip-rule:evenodd;fill:#FFFFFF;}
	.st6{filter:url(#Adobe_OpacityMaskFilter_00000173129674107808153830000016489378250627764371_);}
	.st7{mask:url(#mask-4_00000140712766783203010850000006926516956759499710_);fill-rule:evenodd;clip-rule:evenodd;fill:#FFFFFF;}
</style>
<g id="Layer_2">
</g>
<g id="Layer_1">
	<g>
		<path class="st0" d="M178.5,59.7c-17.9,0-32.4,14.5-32.4,32.4s14.5,32.4,32.4,32.4S211,110,211,92.1
			C210.8,74.2,196.4,59.8,178.5,59.7z"/>
		<g>
			<path class="st0" d="M81.8,11.4c-27.1,0-49.2,22-49.2,49.2s22,49.2,49.2,49.2s49.2-22,49.2-49.2C130.8,33.5,108.9,11.6,81.8,11.4
				z"/>
			<path class="st0" d="M81.8,118c45.2,0,81.8,36.6,81.8,81.8v31.9c0,7.1-5.8,12.9-12.9,12.9H12.9c-7.1,0-12.9-5.8-12.9-12.9v-31.9
				C0,154.6,36.6,118,81.8,118z"/>
		</g>
		<path class="st0" d="M187.3,141.7c36.9,0,66.8,29.9,66.8,66.8c0,0.1,0,0.3,0,0.4v22.8c0,7.1-5.8,12.9-12.9,12.9h-60.3
			c1.5-4.2,2.2-8.5,2.2-12.9v-31.9c0-19.3-5.2-38.2-15.1-54.7C174.1,143,180.7,141.9,187.3,141.7z"/>
	</g>
</g>
</svg>
