<svg id="Layer_1" data-name="Layer 1" xmlns="http://www.w3.org/2000/svg" viewBox="0 0 256 256"><defs><style>.cls-1{fill:#49e688;fill-rule:evenodd;}</style></defs><path class="cls-1" d="M160.64,21.08,53.5,174.25c-21.28,30.2,25.08,62.65,46.1,32.07l69.5-99.11a10.31,10.31,0,0,0-2.62-14.44h0a10.32,10.32,0,0,0-14.29,2.61L82.86,194.72c-5.77,8.21-18.38-.66-12.61-8.87L177.38,32.67c18.68-26.7,57.68,4.42,40.8,28.48L111,214.64C77.67,262.17,10.6,210.8,41.74,166.19L111.29,67a10.38,10.38,0,0,0-2.52-14.45h0a10.38,10.38,0,0,0-14.5,2.55L25,154.59c-46.65,66.6,53.86,141.48,102.74,71.65L234.87,73.06C267.37,26.38,194.88-27.93,160.64,21.08Z"/></svg>