<svg id="Layer_1" data-name="Layer 1" xmlns="http://www.w3.org/2000/svg" viewBox="0 0 256 256"><defs><style>.cls-1{fill:#49e688;}</style></defs><g id="Branding"><g id="Icons"><path id="Combined-Shape" class="cls-1" d="M153.07,223.42a24.65,24.65,0,0,1,.83,6.34c0,13.48-11.69,24.58-25.9,24.58s-25.9-11.1-25.9-24.58a23.19,23.19,0,0,1,.83-6.34h50.14ZM128.28,1.66c10.3,0,18.94,8.19,18.94,18h0V33.37c27.57,6.08,61,25.91,61,73.22,0,60.79,22.28,83.79,22.56,84a10.32,10.32,0,0,1,2.51,5.55h0v16.66H22.71V196.19l.16-.89a8.87,8.87,0,0,1,2.63-4.66c.28,0,22.56-23,22.56-83.79,0-47.57,33.42-67.13,61-73.21h0v-14C109.06,9.85,118,1.66,128.28,1.66Z"/></g></g></svg>