<svg id="Layer_1" data-name="Layer 1" xmlns="http://www.w3.org/2000/svg" viewBox="0 0 256 256"><defs><style>.cls-1{fill:#49e688;fill-rule:evenodd;}</style></defs><g id="Branding"><g id="Icons"><path id="Combined-Shape" class="cls-1" d="M194.12,0c21.32,0,38.61,16.91,38.61,37.77s-17.29,37.77-38.61,37.77a39.06,39.06,0,0,1-21.29-6.26L99.31,120.07a37.22,37.22,0,0,1-.24,19.48l71.05,49.09a38.93,38.93,0,0,1,22.62-8.15l1.38,0c21.32,0,38.61,16.91,38.61,37.77S215.44,256,194.12,256s-38.61-16.91-38.61-37.77a37.09,37.09,0,0,1,1.89-11.69L87.11,158a39,39,0,0,1-25.23,9.18c-21.32,0-38.61-16.91-38.61-37.77S40.56,91.61,61.88,91.61a38.91,38.91,0,0,1,25.89,9.75l70.77-48.9a36.94,36.94,0,0,1-3-14.69C155.51,16.91,172.8,0,194.12,0Z"/></g></g></svg>