<svg id="Layer_1" data-name="Layer 1" xmlns="http://www.w3.org/2000/svg" viewBox="0 0 256 256"><defs><style>.cls-1{fill:#49e688;}</style></defs><g id="Branding"><g id="Icons"><path id="Combined-Shape" class="cls-1" d="M154.9,78.91c4.19,0,7.6,3.81,7.6,8.25h0V187a8.09,8.09,0,0,1-2.25,5.6,7.18,7.18,0,0,1-5.35,2.23H58.14l-26.82,34c-6.16,7.84-11.32,6-11.32-4.18h0V194.84H7.6a7.18,7.18,0,0,1-5.35-2.23A8.09,8.09,0,0,1,0,187H0V87.16c0-4.44,3.41-8.25,7.6-8.25H154.9Zm89.9-56.65c6.21,0,11.21,5.4,11.2,12h0v111a11.27,11.27,0,0,1-11.2,11.54H235l.11,29c0,10.22-5,12.2-11.18,4.39h0l-26.4-33.42h-19V87.16C178.5,73.39,167.92,62,154.92,62H75V34.23c.09-6.62,5.16-11.94,11.4-12H244.8Z"/></g></g></svg>