<svg id="Layer_1" data-name="Layer 1" xmlns="http://www.w3.org/2000/svg" viewBox="0 0 265.92 256"><defs><style>.cls-1{fill:#49e688;}</style></defs><path class="cls-1" d="M137.51,32.46V223.54a6.24,6.24,0,0,1-10,5L66.32,182.05H12.7A11.22,11.22,0,0,1,1.48,170.83V85.21A11.21,11.21,0,0,1,12.7,74H66.28l61.21-46.51A6.24,6.24,0,0,1,137.51,32.46Z"/><path class="cls-1" d="M233.48,191.47a8,8,0,0,1-5.63-13.6,70.54,70.54,0,0,0,0-99.74,8,8,0,0,1,11.27-11.27,86.48,86.48,0,0,1,0,122.28A8,8,0,0,1,233.48,191.47Z"/><path class="cls-1" d="M206.11,178.07a8,8,0,0,1-5.64-13.6,51.63,51.63,0,0,0,0-72.94,8,8,0,0,1,11.27-11.27,67.58,67.58,0,0,1,0,95.48A7.94,7.94,0,0,1,206.11,178.07Z"/><path class="cls-1" d="M179.49,165.26a8,8,0,0,1-5.64-13.61,33.47,33.47,0,0,0,0-47.3,8,8,0,0,1,11.27-11.27,49.43,49.43,0,0,1,0,69.84A7.91,7.91,0,0,1,179.49,165.26Z"/></svg>