<svg id="Layer_1" data-name="Layer 1" xmlns="http://www.w3.org/2000/svg" viewBox="0 0 256 256"><defs><style>.cls-1{fill:#49e688;}</style></defs><path class="cls-1" d="M109.82,192.92V193a6.51,6.51,0,0,1-1.64,4.89,7.48,7.48,0,0,1-4.52,2.47h-.84a7.16,7.16,0,0,1-7-6.52L88,81.92a6.5,6.5,0,0,1,1.68-5,7.66,7.66,0,0,1,5-2.42A7.41,7.41,0,0,1,102,81Z"/><path class="cls-1" d="M167.71,81.66l-7.79,111.79a7.17,7.17,0,0,1-7,6.63h-.68a6.3,6.3,0,0,1-4.63-2.16,6.9,6.9,0,0,1-1.69-5.26l7.79-111.85a7.49,7.49,0,0,1,7.11-6.57h.26A7.13,7.13,0,0,1,167.71,81.66Z"/><path class="cls-1" d="M247.82,25.29H178.34V20A11.72,11.72,0,0,0,166.66,8.34H89.34A11.81,11.81,0,0,0,81,11.71,12,12,0,0,0,77.66,20v5.27H7.92a7,7,0,0,0,0,13.94H23.13L44.92,220.55a30.86,30.86,0,0,0,30.63,27.11h104.9a30.86,30.86,0,0,0,30.63-27.11L232.87,39.23h15.21A7,7,0,0,0,255,32.29,7.56,7.56,0,0,0,247.82,25.29ZM197.13,218.71a16.93,16.93,0,0,1-16.68,15H75.55a17,17,0,0,1-16.68-15.05L37.39,39.23H218.61Z"/></svg>