<svg id="Layer_1" data-name="Layer 1" xmlns="http://www.w3.org/2000/svg" viewBox="0 0 256 256"><defs><style>.cls-1{fill:#df1e39;}</style></defs><path class="cls-1" d="M178.54,59.67A32.42,32.42,0,1,0,211,92.09,32.41,32.41,0,0,0,178.54,59.67Z"/><path class="cls-1" d="M81.83,11.41A49.15,49.15,0,1,0,131,60.56,49.14,49.14,0,0,0,81.83,11.41Z"/><path class="cls-1" d="M81.83,118a81.82,81.82,0,0,1,81.82,81.82v31.87a12.91,12.91,0,0,1-12.92,12.92H12.92A12.91,12.91,0,0,1,0,231.67V199.8A81.83,81.83,0,0,1,81.83,118Z"/><path class="cls-1" d="M187.27,141.66A66.76,66.76,0,0,1,254,208.41v23.26a12.92,12.92,0,0,1-12.92,12.92h-60.3A38.39,38.39,0,0,0,183,231.67V199.8a106.83,106.83,0,0,0-15.08-54.69A67,67,0,0,1,187.27,141.66Z"/></svg>