<svg id="Layer_1" data-name="Layer 1" xmlns="http://www.w3.org/2000/svg" viewBox="0 0 256 256"><defs><style>.cls-1{fill:#df1e39;}</style></defs><path class="cls-1" d="M233.63,25c0,44.25-10.29,65.5-26.23,92.51C197,135,196.55,146.62,196.16,163.24V243a11.13,11.13,0,0,1-10.57,11.19H36.33a14,14,0,0,1-14-14V205.74a88.63,88.63,0,0,1,61.21-84.32,71.2,71.2,0,0,0,27.35,5.42,72.62,72.62,0,0,0,21.14-3.16,56.33,56.33,0,0,0,6.16-2.21,71.72,71.72,0,0,0,36.11-32.66c10-14.87,15-34.87,14.36-68.61A18.52,18.52,0,0,1,207.18,1.77h8.76a17.67,17.67,0,0,1,17.63,17.52C233.63,21.22,233.63,23.14,233.63,25Z"/><path class="cls-1" d="M110.93,1.77A53.21,53.21,0,1,0,164.17,55,53.17,53.17,0,0,0,110.93,1.77Z"/><path class="cls-1" d="M110.93,1.77A53.21,53.21,0,1,0,164.17,55,53.17,53.17,0,0,0,110.93,1.77Z"/></svg>