<svg id="Layer_1" data-name="Layer 1" xmlns="http://www.w3.org/2000/svg" viewBox="0 0 256 256"><defs><style>.cls-1{fill:#df1e39;fill-rule:evenodd;}</style></defs><g id="Branding"><g id="Icons"><path id="Fill-1" class="cls-1" d="M219.88,98.91H201.53V74.39c0-41-33.28-72.73-73.53-72.73A73.47,73.47,0,0,0,66.84,33.88c-6,8.93-.74,21.08,9.84,23.59l2.16.52c6.4,1.51,12.71-1.42,16.55-6.68A40.58,40.58,0,0,1,128,34.67c21.9,0,40.25,18,40.25,39.72V98.91H36.12a21.74,21.74,0,0,0-21.91,21.55v114A21.79,21.79,0,0,0,36.12,256H219.88a21.73,21.73,0,0,0,21.91-21.54v-114c0-12.45-10.39-21.55-21.91-21.55"/></g></g></svg>