<svg id="Layer_1" data-name="Layer 1" xmlns="http://www.w3.org/2000/svg" viewBox="0 0 343.19 256"><defs><style>.cls-1{fill:#df1e39;}</style></defs><path class="cls-1" d="M269.1,59.67a32.42,32.42,0,1,0,32.42,32.42A32.42,32.42,0,0,0,269.1,59.67Z"/><path class="cls-1" d="M172.39,11.41a49.15,49.15,0,1,0,49.15,49.15A49.15,49.15,0,0,0,172.39,11.41Z"/><path class="cls-1" d="M172.39,118a81.82,81.82,0,0,1,81.82,81.82v31.87a12.91,12.91,0,0,1-12.92,12.92H103.48a12.91,12.91,0,0,1-12.92-12.92V199.8A81.82,81.82,0,0,1,172.39,118Z"/><path class="cls-1" d="M277.83,141.66a66.76,66.76,0,0,1,66.76,66.75c0,.15,0,.29,0,.44v22.82a12.91,12.91,0,0,1-12.92,12.92H271.37a38.38,38.38,0,0,0,2.15-12.92V199.8a106.82,106.82,0,0,0-15.07-54.69A67,67,0,0,1,277.83,141.66Z"/><path class="cls-1" d="M43.07,92.09A32.42,32.42,0,1,0,75.49,59.67,32.41,32.41,0,0,0,43.07,92.09Z"/><path class="cls-1" d="M86.14,145.11A106.73,106.73,0,0,0,71.06,199.8v31.87a38.14,38.14,0,0,0,2.16,12.92H12.92A12.92,12.92,0,0,1,0,231.67V208.41a66.76,66.76,0,0,1,66.76-66.75A67,67,0,0,1,86.14,145.11Z"/></svg>