<svg id="Layer_1" data-name="Layer 1" xmlns="http://www.w3.org/2000/svg" viewBox="0 0 256 256"><defs><style>.cls-1{fill:#df1e39;}</style></defs><path class="cls-1" d="M218.28,22.34a15.4,15.4,0,0,1,15.38,15.38V218.28a15.4,15.4,0,0,1-15.38,15.38H37.72a15.4,15.4,0,0,1-15.38-15.38V37.72A15.4,15.4,0,0,1,37.72,22.34H218.28m0-21.28H37.72A36.66,36.66,0,0,0,1.06,37.72V218.28a36.66,36.66,0,0,0,36.66,36.66H218.28a36.66,36.66,0,0,0,36.66-36.66V37.72A36.66,36.66,0,0,0,218.28,1.06Z"/><path class="cls-1" d="M109.18,191.11a12.12,12.12,0,0,1-8.81-3.75l-38-36A10.65,10.65,0,1,1,77,135.92l31,29.29,69.8-95.94a10.64,10.64,0,1,1,17.21,12.52l-75.88,104.3a12.12,12.12,0,0,1-9.52,5Zm-7.32-17.55,0,0Z"/></svg>