<svg id="Layer_1" data-name="Layer 1" xmlns="http://www.w3.org/2000/svg" viewBox="0 0 256 256"><defs><style>.cls-1{fill:#df1e39;}</style></defs><path class="cls-1" d="M36.43,223.63A18.52,18.52,0,0,1,18,203.37l-.07-36.85a29.1,29.1,0,0,1,8.59-20.64l141.44-140C174.85-1,187.1-1,194.1,6l38.59,38.58a18.55,18.55,0,0,1,0,26.2l-132.39,143a30.81,30.81,0,0,1-22.54,9.85h-.12L39,223.45A17.94,17.94,0,0,1,36.43,223.63Zm1.68-20.32,39.61.15h0a10.67,10.67,0,0,0,7.77-3.39L217.35,57.67,181,21.32,40.66,160.2A8.88,8.88,0,0,0,38,166.48ZM218.18,56.77l0,0Zm-36-36.59h0A0,0,0,0,1,182.15,20.18Z"/><path class="cls-1" d="M228,255.29H28a10.07,10.07,0,1,1,0-20.13H228a10.07,10.07,0,1,1,0,20.13Z"/></svg>