<svg xmlns="http://www.w3.org/2000/svg" viewBox="0 0 49.39 47.24"><defs><style>.cls-1{fill:#0a256a;}</style></defs><g id="Layer_2" data-name="Layer 2"><g id="Layer_1-2" data-name="Layer 1"><path class="cls-1" d="M27.17,1.54l5.49,11.13a2.77,2.77,0,0,0,2.08,1.51L47,16a2.76,2.76,0,0,1,1.53,4.71l-8.89,8.66a2.75,2.75,0,0,0-.79,2.44L41,44a2.77,2.77,0,0,1-4,2.91L26,41.14a2.78,2.78,0,0,0-2.57,0l-11,5.78a2.76,2.76,0,0,1-4-2.91l2.1-12.24a2.77,2.77,0,0,0-.79-2.44L.84,20.67A2.76,2.76,0,0,1,2.36,16l12.29-1.78a2.78,2.78,0,0,0,2.08-1.51L22.22,1.54A2.76,2.76,0,0,1,27.17,1.54Z"/></g></g></svg>