<svg xmlns="http://www.w3.org/2000/svg" viewBox="0 0 512 257.64"><defs><style>.cls-1{fill:#318fff;}.cls-2{fill:#fff;}.cls-3{fill:#ffe025;}</style></defs><g id="Layer_2" data-name="Layer 2"><g id="Layer_1-2" data-name="Layer 1"><path class="cls-1" d="M482.64,0H376c.26.29.49.61.74.91a27,27,0,0,1,10.9,3.22c14.74,8,21.16,27.42,14.64,44.26-.57,1.42-3.39,7.76-8.14,18.3l88.47-.24c16.23,0,29.4-14.91,29.4-33.23S498.83,0,482.64,0Z"/><path class="cls-2" d="M89.75,207.91c8.21-18.06,17.44-38.35,26.76-58.82C85,79.94,56.37,17.64,55.21,15.22,49.63,5.69,40.27,0,30.1,0A26.87,26.87,0,0,0,17.18,3.34C2.45,11.32-4,30.77,2.55,47.61,5.05,54,66.27,188.53,90.18,240.31A37.7,37.7,0,0,1,89.75,207.91Z"/><path class="cls-1" d="M228,15.22C222.38,5.58,213.22,0,202.85,0s-19.54,5.53-25.2,15.19c-2.91,6.06-32.43,70.8-61.14,133.86-9.32,20.47-18.55,40.76-26.76,58.82a37.7,37.7,0,0,0,.43,32.4l.06.14h0a32,32,0,0,0,13.23,13.85,26.92,26.92,0,0,0,12.93,3.35c11.29,0,21.55-7.06,26.76-18.41h0c.37-.87.83-1.87,1.38-3.08,5.33-11.65,24.93-54.47,44.09-96.49l14.18-31.09L217,139.67c5.88,12.89,35.6,78.35,41.14,90.47a1.7,1.7,0,0,0,.24.22c-3.3-7.14-8.12-17.58-12.67-27.54,11.14,11.14,18-.68,22.54-9.52,1.52-2.92,9.87-20.91,20.71-44.4C262.54,90.86,229.87,19.06,228,15.22Z"/><path class="cls-2" d="M388.5,3.34A27.12,27.12,0,0,0,377.6.13c-.68,0-1.35-.13-2-.13a25.8,25.8,0,0,0-2.79.2c-9.12,1-17.35,6.44-22.41,15.2-.92,1.81-37.3,81.27-61.39,133.5-10.84,23.49-19.19,41.48-20.71,44.4-4.59,8.84-11.4,20.66-22.54,9.52,4.55,10,9.37,20.4,12.67,27.54l4.12,8.88A33.5,33.5,0,0,0,274,252.92l.89.54a27.07,27.07,0,0,0,14.35,4.18c11.3,0,21.55-7.06,26.76-18.41,0,0,77-168.78,79-173.25l0-.07c4.76-10.54,7.58-16.88,8.14-18.3C409.66,30.77,403.23,11.32,388.5,3.34Z"/><circle class="cls-3" cx="434.5" cy="154.78" r="32.01"/></g></g></svg>