<?xml version="1.0" encoding="UTF-8"?>
<svg width="16px" height="19px" viewBox="0 0 16 19" version="1.1" xmlns="http://www.w3.org/2000/svg" xmlns:xlink="http://www.w3.org/1999/xlink">
    <!-- Generator: Sketch 59.1 (86144) - https://sketch.com -->
    <title>Combined Shape Copy</title>
    <desc>Created with Sketch.</desc>
    <g id="Icons" stroke="none" stroke-width="1" fill="none" fill-rule="evenodd">
        <g id="Current-Icon-Guide" transform="translate(-199.000000, -235.000000)" fill="#0A256A">
            <path d="M208.777778,235 C210.741333,235 212.333333,236.620429 212.333333,238.619048 L212.333333,241.333333 L213,241.333333 C214.102222,241.333333 215,242.185619 215,243.233333 L215,252.1 C215,253.147714 214.102222,254 213,254 L201,254 C199.897778,254 199,253.147714 199,252.1 L199,243.233333 C199,242.185619 199.897778,241.333333 201,241.333333 L201.666667,241.333333 L201.666667,238.619048 C201.666667,236.620429 203.258667,235 205.222222,235 L208.777778,235 Z M213,243.142857 L201,243.142857 C200.852444,243.142857 200.777778,243.214333 200.777778,243.233333 L200.777778,252.1 C200.777778,252.119 200.852444,252.190476 201,252.190476 L213,252.190476 C213.147556,252.190476 213.222222,252.119 213.222222,252.1 L213.222222,243.233333 C213.222222,243.214333 213.147556,243.142857 213,243.142857 Z M207,244.900448 C207.490667,244.900448 207.888889,245.304876 207.888889,245.80521 L207.888889,249.528305 C207.888889,249.989316 207.549575,250.370151 207.111451,250.426013 L207,250.433067 C206.509333,250.433067 206.111111,250.027733 206.111111,249.528305 L206.111111,245.80521 C206.111111,245.343363 206.450425,244.963235 206.888549,244.907486 L207,244.900448 Z M208.777778,236.809524 L205.222222,236.809524 C204.24,236.809524 203.444444,237.619286 203.444444,238.619048 L203.444444,241.333333 L210.555556,241.333333 L210.555556,238.619048 C210.555556,237.619286 209.76,236.809524 208.777778,236.809524 Z" id="Combined-Shape-Copy"></path>
        </g>
    </g>
</svg>