<?xml version="1.0" encoding="utf-8"?>
<!-- Generator: Adobe Illustrator 26.0.1, SVG Export Plug-In . SVG Version: 6.00 Build 0)  -->
<svg version="1.1" id="Layer_1" xmlns="http://www.w3.org/2000/svg" xmlns:xlink="http://www.w3.org/1999/xlink" x="0px" y="0px"
	 viewBox="0 0 16 19" style="enable-background:new 0 0 16 19;" xml:space="preserve">
<style type="text/css">
	.st0{fill-rule:evenodd;clip-rule:evenodd;fill:#0A256A;}
</style>
<desc>Created with Sketch.</desc>
<path class="st0" d="M14,6.3h-0.7V3.6c0-2-1.6-3.6-3.5-3.6H6.2C5,0,4,0.6,3.3,1.5c-0.4,0.6,0,1.4,0.7,1.4h0c0.3,0,0.6-0.1,0.7-0.4
	c0.3-0.5,0.8-0.7,1.4-0.7h3.6c1,0,1.8,0.8,1.8,1.8v2.7H4.4v0H2.7v0H2c-1.1,0-2,0.9-2,1.9v8.9C0,18.2,0.9,19,2,19h12
	c1.1,0,2-0.8,2-1.9V8.2C16,7.2,15.1,6.3,14,6.3z M14.2,17.1c0,0-0.1,0.1-0.2,0.1H2c-0.2,0-0.2-0.1-0.2-0.1V8.2c0,0,0.1-0.1,0.2-0.1
	h12c0.2,0,0.2,0.1,0.2,0.1V17.1z"/>
<path class="st0" d="M8,9.9c0.5,0,0.9,0.4,0.9,0.9v3.7c0,0.5-0.3,0.8-0.8,0.9l-0.1,0c-0.5,0-0.9-0.4-0.9-0.9v-3.7
	c0-0.5,0.3-0.8,0.8-0.9L8,9.9z"/>
</svg>
