<?xml version="1.0" encoding="UTF-8"?>
<svg width="24px" height="24px" viewBox="0 0 24 24" version="1.1" xmlns="http://www.w3.org/2000/svg" xmlns:xlink="http://www.w3.org/1999/xlink">
    <!-- Generator: Sketch 59.1 (86144) - https://sketch.com -->
    <title>Combined Shape</title>
    <desc>Created with Sketch.</desc>
    <g id="Icons" stroke="none" stroke-width="1" fill="none" fill-rule="evenodd">
        <g id="Current-Icon-Guide" transform="translate(-263.000000, -230.000000)" fill="#0A256A" fill-rule="nonzero">
            <path d="M275,230 C281.627417,230 287,235.372583 287,242 C287,248.627417 281.627417,254 275,254 C268.372583,254 263,248.627417 263,242 C263,235.372583 268.372583,230 275,230 Z M275,232 C269.477153,232 265,236.477153 265,242 C265,247.522847 269.477153,252 275,252 C280.522847,252 285,247.522847 285,242 C285,236.477153 280.522847,232 275,232 Z M276.018799,245.165527 L276.018799,247 L274.127197,247 L274.127197,245.165527 L276.018799,245.165527 Z M274.914307,237.54834 C275.870692,237.54834 276.665199,237.776853 277.297852,238.233887 C277.930504,238.69092 278.246826,239.367997 278.246826,240.265137 C278.246826,240.81527 278.109295,241.278644 277.834229,241.655273 C277.67342,241.88379 277.364504,242.175779 276.907471,242.53125 L276.456787,242.880371 C276.211343,243.070802 276.048422,243.292967 275.968018,243.546875 C275.917236,243.707683 275.88973,243.957355 275.885498,244.295898 L274.171631,244.295898 C274.197022,243.580726 274.264729,243.086671 274.374756,242.813721 C274.484782,242.54077 274.768308,242.226564 275.225342,241.871094 L275.688721,241.509277 C275.841065,241.395019 275.963785,241.270183 276.056885,241.134766 C276.226156,240.902017 276.310791,240.645997 276.310791,240.366699 C276.310791,240.045083 276.216635,239.752036 276.02832,239.487549 C275.840006,239.223062 275.496178,239.09082 274.996826,239.09082 C274.505938,239.09082 274.157879,239.253742 273.952637,239.57959 C273.747395,239.905438 273.644775,240.243976 273.644775,240.595215 L271.810303,240.595215 C271.861084,239.389154 272.282141,238.534345 273.073486,238.030762 C273.572838,237.709146 274.186438,237.54834 274.914307,237.54834 Z" id="Combined-Shape"></path>
        </g>
    </g>
</svg>