<?xml version="1.0" encoding="utf-8"?>
<!-- Generator: Adobe Illustrator 26.0.1, SVG Export Plug-In . SVG Version: 6.00 Build 0)  -->
<svg version="1.1" id="Layer_1" xmlns="http://www.w3.org/2000/svg" xmlns:xlink="http://www.w3.org/1999/xlink" x="0px" y="0px"
	 viewBox="0 0 72.6 95.4" style="enable-background:new 0 0 72.6 95.4;" xml:space="preserve">
<style type="text/css">
	.st0{fill:#0B1F47;}
</style>
<g id="Layer_2_00000134928148931107493540000014878522269379459754_">
	<g id="Layer_1-2">
		<path class="st0" d="M71.6,21.9L50.1,1c-0.6-0.6-1.5-1-2.4-1H9.5C4.3,0,0,4.3,0,9.5v76.4c0,5.2,4.3,9.5,9.5,9.5h53.6
			c5.2,0,9.5-4.3,9.5-9.5V24.4C72.6,23.4,72.2,22.5,71.6,21.9z M59.4,53.4c-1.7,1.8-4.5,1.8-6.2,0.1c0,0-0.1-0.1-0.1-0.1l0,0
			c-0.4-0.3-0.7-0.7-0.9-1.2h-4.4c3.2,2.8,5.1,5.9,5.7,9.3h2c0.4,0,0.6,0.3,0.7,0.7v8.4c0,0.2-0.1,0.3-0.2,0.4
			c-0.1,0.1-0.3,0.2-0.5,0.2h-8.4c-0.2,0-0.3-0.1-0.5-0.2c-0.1-0.1-0.2-0.3-0.2-0.4v-8.4c0-0.2,0.1-0.3,0.2-0.5
			c0.1-0.1,0.3-0.2,0.5-0.2h1.8c-2.6-4.6-5.1-7.3-7.8-8.2v1c0,0.4-0.3,0.6-0.7,0.7h-8.4c-0.2,0-0.4-0.1-0.5-0.2
			c-0.1-0.1-0.2-0.3-0.2-0.5v-1c-2.6,0.9-5.2,3.7-7.8,8.2h1.8c0.4,0,0.6,0.3,0.7,0.7v8.4c0,0.2-0.1,0.3-0.2,0.4
			c-0.1,0.1-0.3,0.2-0.5,0.2h-8.4c-0.2,0-0.4-0.1-0.5-0.2c-0.1-0.1-0.2-0.3-0.2-0.4v-8.4c0-0.2,0.1-0.3,0.2-0.5
			c0.1-0.1,0.3-0.2,0.5-0.2h1.9c0.8-3.7,2.8-6.9,5.7-9.3h-4.3c-0.2,0.4-0.5,0.8-0.9,1.2l0,0c-0.8,0.9-2,1.4-3.1,1.3
			c-1.2,0-2.4-0.5-3.2-1.4c-0.8-0.8-1.3-1.9-1.3-3.1c-0.1-2.4,1.8-4.4,4.3-4.5c0.1,0,0.1,0,0.2,0c1.2,0,2.3,0.4,3.1,1.3l0,0
			c0.3,0.3,0.5,0.6,0.7,1h11.2V46c0-0.2,0.1-0.3,0.2-0.5c0.1-0.1,0.3-0.2,0.5-0.2h8.3c0.2,0,0.3,0.1,0.5,0.2
			c0.1,0.1,0.2,0.3,0.2,0.5v2h11.2c0.2-0.4,0.5-0.7,0.8-1l0,0c1.8-1.7,4.6-1.7,6.3,0l0,0c0.8,0.9,1.3,2,1.3,3.2
			C60.7,51.5,60.2,52.6,59.4,53.4L59.4,53.4z M65,25.1H53.4c-3.5,0-6.4-2.9-6.4-6.4V7.3c0.1-0.5,0.5-0.9,1.1-0.9
			c0.2,0,0.4,0.1,0.5,0.2l17.1,16.7c0.4,0.4,0.4,1,0,1.4C65.6,25,65.3,25.1,65,25.1z"/>
	</g>
</g>
</svg>
