<?xml version="1.0" encoding="utf-8"?>
<!-- Generator: Adobe Illustrator 26.0.1, SVG Export Plug-In . SVG Version: 6.00 Build 0)  -->
<svg version="1.1" id="Layer_1" xmlns="http://www.w3.org/2000/svg" xmlns:xlink="http://www.w3.org/1999/xlink" x="0px" y="0px"
	 viewBox="0 0 72.6 95.4" style="enable-background:new 0 0 72.6 95.4;" xml:space="preserve">
<style type="text/css">
	.st0{fill:#0B1F47;}
</style>
<g id="Layer_2_00000044881776118946532930000013542597433762166440_">
	<g id="Layer_1-2">
		<path class="st0" d="M71.6,21.9L50.1,1c-0.6-0.6-1.5-1-2.4-1H22v5.9h5.9v5.9H22v5.9h5.9v5.9H22v5.9h5.9v5.9H22v5.9h5.9V47H22v5.9
			h5.9v5.9H22v-5.9h-5.9V47H22v-5.9h-5.9v-5.9H22v-5.9h-5.9v-5.9H22v-5.9h-5.9v-5.9H22V5.9h-5.9V0H9.5C4.3,0,0,4.3,0,9.5v76.4
			c0,5.2,4.3,9.5,9.5,9.5h53.6c5.2,0,9.5-4.3,9.5-9.5V24.4C72.6,23.4,72.2,22.5,71.6,21.9z M22.4,76c-0.9,1-2.2,1.5-3.5,1.5
			c-2.8-0.1-5.1-2.4-5-5.2c0,0,0,0,0,0l1.8-13.7h6.2l1.9,13.7C23.8,73.6,23.3,75,22.4,76z M65,25.1H53.4c-3.5,0-6.4-2.9-6.4-6.4V7.3
			c0.1-0.5,0.5-0.9,1.1-0.9c0.2,0,0.4,0.1,0.5,0.2l17.1,16.7c0.4,0.4,0.4,1,0,1.4C65.6,25,65.3,25.1,65,25.1z"/>
		<path class="st0" d="M17.2,64.7l-0.9,7.1c0,1.4,1.1,2.6,2.6,2.6c1.4,0,2.6-1.1,2.6-2.6l-1-7.1H17.2z"/>
	</g>
</g>
</svg>
