<svg id="Layer_1" data-name="Layer 1" xmlns="http://www.w3.org/2000/svg" viewBox="0 0 256 256"><defs><style>.cls-1{fill:#ff9f2b;}</style></defs><path class="cls-1" d="M106.43,221a23.67,23.67,0,0,0-.78,6.18,24,24,0,0,0,47.91,0,25.16,25.16,0,0,0-.78-6.18Z"/><path class="cls-1" d="M147.38,35.81V22.43A17.74,17.74,0,0,0,129.89,4.89c-9.53,0-17.8,8-17.8,17.54V36.07c-25.5,5.93-56.37,25-56.37,71.33,0,25.09-3.7,43.55-8,56.48L175.41,48.13A80.89,80.89,0,0,0,147.38,35.81Z"/><path class="cls-1" d="M253.79,15.94c-3.24-3.55-8.92-3.75-13.38-.71A9.45,9.45,0,0,0,239,16.35l-49.64,45L32.24,203.77,4.06,229.33A7.75,7.75,0,0,0,3,230.49a11.52,11.52,0,0,0-3,7.56,8.7,8.7,0,0,0,2.23,6c3.55,3.95,10.19,3.75,14.75-.41l36.35-33H227V194.45a10.61,10.61,0,0,0-2.33-5.43c-.25-.25-20.89-22.66-20.89-81.87A80.62,80.62,0,0,0,199,78.65l53-48.06C256.53,26.44,257.34,19.89,253.79,15.94Z"/></svg>