<svg id="Layer_1" data-name="Layer 1" xmlns="http://www.w3.org/2000/svg" viewBox="0 0 256 256"><defs><style>.cls-1{fill:#ff9f2b;}</style></defs><path class="cls-1" d="M128,155.89a36.67,36.67,0,0,0,36.6-36.6V36.6a36.6,36.6,0,0,0-73.2,0v82.69A36.67,36.67,0,0,0,128,155.89Z"/><path class="cls-1" d="M213.9,118a85.54,85.54,0,0,1-72.35,84.75l-3.36.53v42.49a10.19,10.19,0,1,1-20.38,0V203.29l-3.36-.53A85.54,85.54,0,0,1,42.1,118a10.2,10.2,0,0,1,20.39,0,65.51,65.51,0,1,0,131,0,10.2,10.2,0,0,1,20.39,0Z"/></svg>