<svg id="Layer_1" data-name="Layer 1" xmlns="http://www.w3.org/2000/svg" xmlns:xlink="http://www.w3.org/1999/xlink" viewBox="0 0 256 256"><defs><style>.cls-1{fill:#fff;}.cls-1,.cls-3{fill-rule:evenodd;}.cls-2{mask:url(#mask);}.cls-3{fill:#ff9f2b;}.cls-4{mask:url(#mask-2-2);}</style><mask id="mask" x="81.06" y="12.82" width="174.94" height="230.37" maskUnits="userSpaceOnUse"><g id="mask-2"><polygon id="path-1" class="cls-1" points="81.06 12.82 256 12.82 256 243.18 81.06 243.18 81.06 12.82"/></g></mask><mask id="mask-2-2" x="0" y="96.43" width="61.84" height="131.3" maskUnits="userSpaceOnUse"><g id="mask-4"><polygon id="path-3" class="cls-1" points="0 96.43 61.84 96.43 61.84 227.73 0 227.73 0 96.43"/></g></mask></defs><g id="Branding"><g id="Icons"><g id="Group-7"><g id="Group-3"><g class="cls-2"><path id="Fill-1" class="cls-3" d="M255.48,120.48,235.17,221.87a26.5,26.5,0,0,1-26,21.31H153.56a115.74,115.74,0,0,1-54.71-13.7c-3.42-1.9-6.75-3.62-9.61-5.15a15.39,15.39,0,0,1-8.18-13.59V112c0-15.51,30.92-30.92,30.92-52.8V28.25a15.51,15.51,0,0,1,15.14-15.43,30.81,30.81,0,0,1,31.19,30.85V73.35a15.41,15.41,0,0,0,15.42,15.41h55.75a26.51,26.51,0,0,1,26,31.72"/></g></g><g id="Group-6"><g class="cls-4"><path id="Fill-4" class="cls-3" d="M53.77,227.73H8.08A8.08,8.08,0,0,1,0,219.65V104.51a8.08,8.08,0,0,1,8.08-8.08H53.77a8.07,8.07,0,0,1,8.07,8.08V219.65a8.07,8.07,0,0,1-8.07,8.08"/></g></g></g></g></g></svg>