<svg id="Layer_1" data-name="Layer 1" xmlns="http://www.w3.org/2000/svg" viewBox="0 0 256 256"><defs><style>.cls-1{fill:#ff9f2b;}</style></defs><path class="cls-1" d="M256,75.13v108a9.77,9.77,0,0,1-14.52,8.38l-37.36-21.56V190a17.38,17.38,0,0,1-17.34,17.35H40.65l-24.23,20.6a9.89,9.89,0,0,1-13.93-1.44,10.06,10.06,0,0,1-.75-12.28,9.88,9.88,0,0,1,1.55-1.76L14,203.33,192,52,220,28.06A7.29,7.29,0,0,1,222,26.83a10,10,0,0,1,12,2.67,10.53,10.53,0,0,1,2.51,6.72,9.4,9.4,0,0,1-3.31,7.26l-29,24.71V88.58L241.48,67A9.84,9.84,0,0,1,256,75.13Z"/><path class="cls-1" d="M162.07,51.17,7.77,182.4V68.51A17.34,17.34,0,0,1,25.12,51.17Z"/></svg>